<?xml version="1.0" encoding="UTF-8"?><svg id="uuid-2a38ebe2-980f-4708-bcca-1fee1699a048" xmlns="http://www.w3.org/2000/svg" xmlns:xlink="http://www.w3.org/1999/xlink" viewBox="0 0 60 60"><defs><linearGradient id="uuid-5d9eb85d-f15a-4c16-8c52-832316f09e3e" x1="17.5858" y1="42.4142" x2="42.4142" y2="17.5858" gradientUnits="userSpaceOnUse"><stop offset="0" stop-color="#a62b9f"/><stop offset="1" stop-color="#59c8fa"/></linearGradient><linearGradient id="uuid-72bea96e-ea66-4a96-965a-04ba8bf0756e" x1="1.5858" y1="42.4142" x2="26.4142" y2="17.5858" xlink:href="#uuid-5d9eb85d-f15a-4c16-8c52-832316f09e3e"/><linearGradient id="uuid-9e427cb7-359e-4241-84cd-cfedd11931a5" x1="33.5858" y1="42.4142" x2="58.4142" y2="17.5858" xlink:href="#uuid-5d9eb85d-f15a-4c16-8c52-832316f09e3e"/></defs><g id="uuid-e9518e59-c6d4-48b7-be85-6e8e0b0fbb0d"><rect width="60" height="60" rx="4" ry="4" fill="#203b72"/><path d="M30,54h0c-1.1045,0-2-.8955-2-2V8c0-1.1045.8955-2,2-2h0c1.1045,0,2,.8955,2,2v44c0,1.1045-.8955,2-2,2Z" fill="url(#uuid-5d9eb85d-f15a-4c16-8c52-832316f09e3e)"/><path d="M14,54h0c-1.1045,0-2-.8955-2-2V8c0-1.1045.8955-2,2-2h0c1.1045,0,2,.8955,2,2v44c0,1.1045-.8955,2-2,2Z" fill="url(#uuid-72bea96e-ea66-4a96-965a-04ba8bf0756e)"/><path d="M46,54h0c-1.1045,0-2-.8955-2-2V8c0-1.1045.8955-2,2-2h0c1.1045,0,2,.8955,2,2v44c0,1.1045-.8955,2-2,2Z" fill="url(#uuid-9e427cb7-359e-4241-84cd-cfedd11931a5)"/><circle cx="46" cy="12" r="6" fill="#fff"/><circle cx="30" cy="41" r="6" fill="#fff"/><circle cx="14" cy="24" r="6" fill="#fff"/></g></svg>