<?xml version="1.0" encoding="UTF-8"?><svg id="uuid-6d816ab4-cc52-4b60-9252-5d6bece70a9b" xmlns="http://www.w3.org/2000/svg" xmlns:xlink="http://www.w3.org/1999/xlink" viewBox="0 0 60 46"><defs><linearGradient id="uuid-898f7757-2517-4652-8bbf-74733ed05c3b" x1="25.6894" y1="42.9319" x2="34.3106" y2="34.3106" gradientUnits="userSpaceOnUse"><stop offset="0" stop-color="#a62b9f"/><stop offset="1" stop-color="#59c8fa"/></linearGradient><linearGradient id="uuid-3b14c197-0c5a-4b09-8e51-5d615bd59d1a" x1="29.2929" y1="2.7071" x2="30.7071" y2="1.2929" xlink:href="#uuid-898f7757-2517-4652-8bbf-74733ed05c3b"/><linearGradient id="uuid-2da4a1b1-4809-425f-bd59-01b5a8b7e6d2" x1="14.293" y1="27.707" x2="33.707" y2="8.293" xlink:href="#uuid-898f7757-2517-4652-8bbf-74733ed05c3b"/><linearGradient id="uuid-1f2bf7b2-a085-46c1-ab1f-0d275e52945a" x1="16.293" y1="17.707" x2="25.707" y2="8.293" xlink:href="#uuid-898f7757-2517-4652-8bbf-74733ed05c3b"/><linearGradient id="uuid-ed186d90-c33e-4f74-a3bc-4cbe6440f380" x1="31.293" y1="27.707" x2="44.707" y2="14.293" xlink:href="#uuid-898f7757-2517-4652-8bbf-74733ed05c3b"/></defs><g id="uuid-a1c7c9e3-faa0-45f0-82b9-6dc7344ca51d"><path d="M2,38h56c1.1038,0,2,.8962,2,2v2c0,2.2077-1.7923,4-4,4H4c-2.2077,0-4-1.7923-4-4v-2c0-1.1038.8962-2,2-2Z" fill="#203b72"/><path d="M38,38h-16c0,1.6567,1.3433,3,3,3h10c1.6567,0,3-1.3433,3-3h0Z" fill="url(#uuid-898f7757-2517-4652-8bbf-74733ed05c3b)"/><path d="M7,0h46c2.2077,0,4,1.7923,4,4v32H3V4C3,1.7923,4.7923,0,7,0Z" fill="#203b72"/><rect x="7" y="4" width="46" height="28" rx="1" ry="1" fill="#fff"/><path d="M30,1c-.5522,0-1,.4478-1,1s.4478,1,1,1,1-.4478,1-1-.4478-1-1-1h0Z" fill="url(#uuid-3b14c197-0c5a-4b09-8e51-5d615bd59d1a)"/><path d="M15,28c-.2559,0-.5117-.0977-.707-.293-.3907-.3906-.3907-1.0234,0-1.414l18-18c.3906-.3907,1.0234-.3907,1.414,0,.3907.3906.3907,1.0234,0,1.414L15.707,27.707c-.1953.1953-.4511.293-.707.293Z" fill="url(#uuid-2da4a1b1-4809-425f-bd59-01b5a8b7e6d2)"/><path d="M17,18c-.2559,0-.5117-.0977-.707-.293-.3907-.3906-.3907-1.0234,0-1.414l8-8c.3906-.3907,1.0234-.3907,1.414,0,.3907.3906.3907,1.0234,0,1.414l-8,8c-.1953.1953-.4511.293-.707.293Z" fill="url(#uuid-1f2bf7b2-a085-46c1-ab1f-0d275e52945a)"/><path d="M32,28c-.2559,0-.5117-.0977-.707-.293-.3907-.3906-.3907-1.0234,0-1.414l12-12c.3906-.3907,1.0234-.3907,1.414,0,.3907.3906.3907,1.0234,0,1.414l-12,12c-.1953.1953-.4511.293-.707.293Z" fill="url(#uuid-ed186d90-c33e-4f74-a3bc-4cbe6440f380)"/></g></svg>