<?xml version="1.0" encoding="UTF-8"?><svg id="uuid-91f35c46-66ee-4bbf-8842-4d20c9e97134" xmlns="http://www.w3.org/2000/svg" xmlns:xlink="http://www.w3.org/1999/xlink" viewBox="0 0 42 60"><defs><linearGradient id="uuid-01dcd8c1-cf89-4766-8d3a-cfa5c705be3a" x1="18.5858" y1="28.4142" x2="23.4142" y2="23.5858" gradientUnits="userSpaceOnUse"><stop offset="0" stop-color="#a62b9f"/><stop offset="1" stop-color="#59c8fa"/></linearGradient><linearGradient id="uuid-c23f1883-7525-4734-b987-b568da43f047" x1="8.5858" y1="28.4142" x2="13.4142" y2="23.5858" xlink:href="#uuid-01dcd8c1-cf89-4766-8d3a-cfa5c705be3a"/><linearGradient id="uuid-53c4477e-d550-492b-a7e3-58db52c44ea7" x1="28.5858" y1="38.4142" x2="33.4142" y2="33.5858" xlink:href="#uuid-01dcd8c1-cf89-4766-8d3a-cfa5c705be3a"/><linearGradient id="uuid-7f75f032-3965-4108-8c90-8d6320ae48ef" x1="8.5858" y1="38.4142" x2="13.4142" y2="33.5858" xlink:href="#uuid-01dcd8c1-cf89-4766-8d3a-cfa5c705be3a"/><linearGradient id="uuid-5176bc02-1119-452b-a96a-fd9cc456dfc3" x1="18.5858" y1="48.4142" x2="23.4142" y2="43.5858" xlink:href="#uuid-01dcd8c1-cf89-4766-8d3a-cfa5c705be3a"/><linearGradient id="uuid-f59c0992-efc3-4953-a0e0-b8929232cc5b" x1="8.5858" y1="48.4142" x2="13.4142" y2="43.5858" xlink:href="#uuid-01dcd8c1-cf89-4766-8d3a-cfa5c705be3a"/><linearGradient id="uuid-71a286cf-3e33-485d-84a2-2d50dfcb4cfe" x1="18.5858" y1="18.4142" x2="23.4142" y2="13.5858" xlink:href="#uuid-01dcd8c1-cf89-4766-8d3a-cfa5c705be3a"/><linearGradient id="uuid-c03ff73a-d2b6-4cc8-827d-d678b2129bac" x1="28.5858" y1="18.4142" x2="33.4142" y2="13.5858" xlink:href="#uuid-01dcd8c1-cf89-4766-8d3a-cfa5c705be3a"/></defs><g id="uuid-7e66e87e-cbc5-40df-9517-3be6aa281ee7"><rect width="42" height="60" rx="6" ry="6" fill="#203b72"/><rect x="4" y="4" width="34" height="52" rx="2" ry="2" fill="#fff"/><rect x="18" y="23" width="6" height="6" rx="2" ry="2" fill="url(#uuid-01dcd8c1-cf89-4766-8d3a-cfa5c705be3a)"/><rect x="28" y="23" width="6" height="6" rx="2" ry="2" fill="#203b72"/><rect x="8" y="23" width="6" height="6" rx="2" ry="2" fill="url(#uuid-c23f1883-7525-4734-b987-b568da43f047)"/><rect x="18" y="33" width="6" height="6" rx="2" ry="2" fill="#203b72"/><rect x="28" y="33" width="6" height="6" rx="2" ry="2" fill="url(#uuid-53c4477e-d550-492b-a7e3-58db52c44ea7)"/><rect x="8" y="33" width="6" height="6" rx="2" ry="2" fill="url(#uuid-7f75f032-3965-4108-8c90-8d6320ae48ef)"/><rect x="18" y="43" width="6" height="6" rx="2" ry="2" fill="url(#uuid-5176bc02-1119-452b-a96a-fd9cc456dfc3)"/><rect x="28" y="43" width="6" height="6" rx="2" ry="2" fill="#203b72"/><rect x="8" y="43" width="6" height="6" rx="2" ry="2" fill="url(#uuid-f59c0992-efc3-4953-a0e0-b8929232cc5b)"/><rect x="18" y="13" width="6" height="6" rx="2" ry="2" fill="url(#uuid-71a286cf-3e33-485d-84a2-2d50dfcb4cfe)"/><rect x="28" y="13" width="6" height="6" rx="2" ry="2" fill="url(#uuid-c03ff73a-d2b6-4cc8-827d-d678b2129bac)"/><rect x="8" y="13" width="6" height="6" rx="2" ry="2" fill="#203b72"/><circle cx="21" cy="7.5" r="1.5" fill="#203b72"/><path d="M27,52h-12c-.5522,0-1,.4478-1,1h0c0,.5522.4478,1,1,1h12c.5522,0,1-.4478,1-1h0c0-.5522-.4478-1-1-1Z" fill="#203b72"/></g></svg>