<?xml version="1.0" encoding="UTF-8"?><svg id="uuid-35bb5ecc-24c6-4f07-be8e-f65ecab2af71" xmlns="http://www.w3.org/2000/svg" xmlns:xlink="http://www.w3.org/1999/xlink" viewBox="0 0 34 60"><defs><linearGradient id="uuid-900e5446-7713-4207-b3e2-d1b2989ae26d" x1="6.8787" y1="63.3638" x2="27.1213" y2="43.1213" gradientUnits="userSpaceOnUse"><stop offset="0" stop-color="#a62b9f"/><stop offset="1" stop-color="#59c8fa"/></linearGradient><linearGradient id="uuid-c19225f8-88f1-4d11-84c2-b61aa2673f01" x1="16.2928" y1="13.7072" x2="17.7072" y2="12.2928" xlink:href="#uuid-900e5446-7713-4207-b3e2-d1b2989ae26d"/><linearGradient id="uuid-918b76b4-f505-4db3-89bf-3f340106e67a" x1="16.2928" y1="21.7072" x2="17.7072" y2="20.2928" xlink:href="#uuid-900e5446-7713-4207-b3e2-d1b2989ae26d"/><linearGradient id="uuid-f55b3554-16bf-4789-a4c9-482f318e9ac2" x1="20.2928" y1="9.7072" x2="21.7072" y2="8.2928" xlink:href="#uuid-900e5446-7713-4207-b3e2-d1b2989ae26d"/><linearGradient id="uuid-f84be666-7949-4243-866e-5be981f1c229" x1="12.2928" y1="9.7072" x2="13.7072" y2="8.2928" xlink:href="#uuid-900e5446-7713-4207-b3e2-d1b2989ae26d"/><linearGradient id="uuid-163899b3-c68b-4ded-96b4-98e817d68a95" x1="20.2928" y1="17.7072" x2="21.7072" y2="16.2928" xlink:href="#uuid-900e5446-7713-4207-b3e2-d1b2989ae26d"/><linearGradient id="uuid-50183ce7-bbdf-4e60-aab0-edd9c4189ff7" x1="28.2928" y1="17.7072" x2="29.7072" y2="16.2928" xlink:href="#uuid-900e5446-7713-4207-b3e2-d1b2989ae26d"/><linearGradient id="uuid-2efe19aa-22e6-42b8-97c5-8a172971d5bd" x1="8.2928" y1="13.7072" x2="9.7072" y2="12.2928" xlink:href="#uuid-900e5446-7713-4207-b3e2-d1b2989ae26d"/><linearGradient id="uuid-3728cb6c-fad4-4735-ba54-6e84d4f5f736" x1="8.2928" y1="21.7072" x2="9.7072" y2="20.2928" xlink:href="#uuid-900e5446-7713-4207-b3e2-d1b2989ae26d"/><linearGradient id="uuid-0caea014-d02a-411d-9cc6-3b640dbdd1a1" x1="12.2928" y1="17.7072" x2="13.7072" y2="16.2928" xlink:href="#uuid-900e5446-7713-4207-b3e2-d1b2989ae26d"/><linearGradient id="uuid-61927804-f6da-4ed6-ac28-815c8d8a54c0" x1="4.2928" y1="17.7072" x2="5.7072" y2="16.2928" xlink:href="#uuid-900e5446-7713-4207-b3e2-d1b2989ae26d"/><linearGradient id="uuid-da56ae6c-0b3f-4855-9b59-e5d33ebd8692" x1="28.2928" y1="9.7072" x2="29.7072" y2="8.2928" xlink:href="#uuid-900e5446-7713-4207-b3e2-d1b2989ae26d"/><linearGradient id="uuid-7130076b-488f-4e1f-ad19-2a3e9a90c8b9" x1="4.2928" y1="9.7072" x2="5.7072" y2="8.2928" xlink:href="#uuid-900e5446-7713-4207-b3e2-d1b2989ae26d"/><linearGradient id="uuid-f70f87e0-26ee-49e9-9720-23717c70eeb9" x1="24.2928" y1="13.7072" x2="25.7072" y2="12.2928" xlink:href="#uuid-900e5446-7713-4207-b3e2-d1b2989ae26d"/><linearGradient id="uuid-1f45196c-bea1-447a-bfb8-28a527e2fd98" x1="16.2928" y1="5.7072" x2="17.7072" y2="4.2928" xlink:href="#uuid-900e5446-7713-4207-b3e2-d1b2989ae26d"/><linearGradient id="uuid-5051b52b-fee8-488d-9476-5f15de6722f1" x1="8.2928" y1="5.7072" x2="9.7072" y2="4.2928" xlink:href="#uuid-900e5446-7713-4207-b3e2-d1b2989ae26d"/><linearGradient id="uuid-31afa3f1-5a80-4cb6-b457-501fba9ef196" x1="24.2928" y1="5.7072" x2="25.7072" y2="4.2928" xlink:href="#uuid-900e5446-7713-4207-b3e2-d1b2989ae26d"/><linearGradient id="uuid-2578907f-607d-4194-8562-31c86b1b80cc" x1="24.2928" y1="21.7072" x2="25.7072" y2="20.2928" xlink:href="#uuid-900e5446-7713-4207-b3e2-d1b2989ae26d"/><linearGradient id="uuid-c4b2af98-2c22-4539-96b8-f9729321da11" x1="16.2928" y1="29.7072" x2="17.7072" y2="28.2928" xlink:href="#uuid-900e5446-7713-4207-b3e2-d1b2989ae26d"/><linearGradient id="uuid-f32a1dcf-10c3-4b2b-a60c-cc44f1fba153" x1="16.2928" y1="37.7072" x2="17.7072" y2="36.2928" xlink:href="#uuid-900e5446-7713-4207-b3e2-d1b2989ae26d"/><linearGradient id="uuid-ad328705-ff88-4bad-81ba-12bb101b780a" x1="20.2928" y1="25.7072" x2="21.7072" y2="24.2928" xlink:href="#uuid-900e5446-7713-4207-b3e2-d1b2989ae26d"/><linearGradient id="uuid-3e4432de-d7ef-419e-bee6-c7a975a6722f" x1="12.2928" y1="25.7072" x2="13.7072" y2="24.2928" xlink:href="#uuid-900e5446-7713-4207-b3e2-d1b2989ae26d"/><linearGradient id="uuid-6ac12c30-f906-474a-9445-94240e4aa903" x1="20.2928" y1="33.7072" x2="21.7072" y2="32.2928" xlink:href="#uuid-900e5446-7713-4207-b3e2-d1b2989ae26d"/><linearGradient id="uuid-c999444a-cdd5-421f-b5fc-105d75cd7165" x1="28.2928" y1="33.7072" x2="29.7072" y2="32.2928" xlink:href="#uuid-900e5446-7713-4207-b3e2-d1b2989ae26d"/><linearGradient id="uuid-4c382cf3-f11c-41d4-aa6b-62b307961114" x1="8.2928" y1="29.7072" x2="9.7072" y2="28.2928" xlink:href="#uuid-900e5446-7713-4207-b3e2-d1b2989ae26d"/><linearGradient id="uuid-058d818f-b39e-45fc-819d-8f26d021dc9a" x1="8.2928" y1="37.7072" x2="9.7072" y2="36.2928" xlink:href="#uuid-900e5446-7713-4207-b3e2-d1b2989ae26d"/><linearGradient id="uuid-458d227b-ea65-4159-8002-12e236d4f8be" x1="12.2928" y1="33.7072" x2="13.7072" y2="32.2928" xlink:href="#uuid-900e5446-7713-4207-b3e2-d1b2989ae26d"/><linearGradient id="uuid-3cc5a133-a6e9-4127-91f5-38c9758c3ba8" x1="4.2928" y1="33.7072" x2="5.7072" y2="32.2928" xlink:href="#uuid-900e5446-7713-4207-b3e2-d1b2989ae26d"/><linearGradient id="uuid-171a381d-32ca-49bf-969c-ba3c9a88d61a" x1="28.2928" y1="25.7072" x2="29.7072" y2="24.2928" xlink:href="#uuid-900e5446-7713-4207-b3e2-d1b2989ae26d"/><linearGradient id="uuid-f7c973c3-e7df-4493-8f0c-742391c9f78c" x1="4.2928" y1="25.7072" x2="5.7072" y2="24.2928" xlink:href="#uuid-900e5446-7713-4207-b3e2-d1b2989ae26d"/><linearGradient id="uuid-bc21a8b4-7686-4385-b04b-9d2c2e5004de" x1="24.2928" y1="29.7072" x2="25.7072" y2="28.2928" xlink:href="#uuid-900e5446-7713-4207-b3e2-d1b2989ae26d"/><linearGradient id="uuid-02b853a9-0c5e-468c-82fe-60677f2a46de" x1="24.2928" y1="37.7072" x2="25.7072" y2="36.2928" xlink:href="#uuid-900e5446-7713-4207-b3e2-d1b2989ae26d"/><linearGradient id="uuid-f04d8708-e111-434a-92b7-4d09fe1fb6b8" x1="16.2928" y1="45.7072" x2="17.7072" y2="44.2928" xlink:href="#uuid-900e5446-7713-4207-b3e2-d1b2989ae26d"/><linearGradient id="uuid-331641f6-f52f-4902-a3b5-42338ebcc24b" x1="20.2928" y1="41.7072" x2="21.7072" y2="40.2928" xlink:href="#uuid-900e5446-7713-4207-b3e2-d1b2989ae26d"/><linearGradient id="uuid-1f3e48eb-8042-42cc-9440-1da08a15fcc1" x1="28.2928" y1="41.7072" x2="29.7072" y2="40.2928" xlink:href="#uuid-900e5446-7713-4207-b3e2-d1b2989ae26d"/><linearGradient id="uuid-368e2875-522d-4d36-95c6-1aceda3df3cd" x1="8.2928" y1="45.7072" x2="9.7072" y2="44.2928" xlink:href="#uuid-900e5446-7713-4207-b3e2-d1b2989ae26d"/><linearGradient id="uuid-8f2ef422-78fc-4223-b7ce-9622bce6250c" x1="12.2928" y1="41.7072" x2="13.7072" y2="40.2928" xlink:href="#uuid-900e5446-7713-4207-b3e2-d1b2989ae26d"/><linearGradient id="uuid-90ecd6e4-fc18-447d-942d-8fa92feeb2e0" x1="4.2928" y1="41.7072" x2="5.7072" y2="40.2928" xlink:href="#uuid-900e5446-7713-4207-b3e2-d1b2989ae26d"/><linearGradient id="uuid-0f4ca9e2-5580-49f6-881b-10e4d31d79d5" x1="24.2928" y1="45.7072" x2="25.7072" y2="44.2928" xlink:href="#uuid-900e5446-7713-4207-b3e2-d1b2989ae26d"/></defs><g id="uuid-bed3bceb-e1e5-47d5-9d96-00f1acabda9f"><path d="M6,0h22c3.3115,0,6,2.6885,6,6v44H0V6C0,2.6885,2.6885,0,6,0Z" fill="#203b72"/><path d="M28,60H6c-3.3135,0-6-2.6865-6-6v-4h34v4c0,3.3135-2.6865,6-6,6Z" fill="url(#uuid-900e5446-7713-4207-b3e2-d1b2989ae26d)"/><circle cx="17" cy="13" r="1" fill="url(#uuid-c19225f8-88f1-4d11-84c2-b61aa2673f01)"/><circle cx="17" cy="21" r="1" fill="url(#uuid-918b76b4-f505-4db3-89bf-3f340106e67a)"/><circle cx="21" cy="9" r="1" fill="url(#uuid-f55b3554-16bf-4789-a4c9-482f318e9ac2)"/><circle cx="13" cy="9" r="1" fill="url(#uuid-f84be666-7949-4243-866e-5be981f1c229)"/><circle cx="21" cy="17" r="1" fill="url(#uuid-163899b3-c68b-4ded-96b4-98e817d68a95)"/><circle cx="29" cy="17" r="1" fill="url(#uuid-50183ce7-bbdf-4e60-aab0-edd9c4189ff7)"/><circle cx="9" cy="13" r="1" fill="url(#uuid-2efe19aa-22e6-42b8-97c5-8a172971d5bd)"/><circle cx="9" cy="21" r="1" fill="url(#uuid-3728cb6c-fad4-4735-ba54-6e84d4f5f736)"/><circle cx="13" cy="17" r="1" fill="url(#uuid-0caea014-d02a-411d-9cc6-3b640dbdd1a1)"/><circle cx="5" cy="17" r="1" fill="url(#uuid-61927804-f6da-4ed6-ac28-815c8d8a54c0)"/><circle cx="29" cy="9" r="1" fill="url(#uuid-da56ae6c-0b3f-4855-9b59-e5d33ebd8692)"/><circle cx="5" cy="9" r="1" fill="url(#uuid-7130076b-488f-4e1f-ad19-2a3e9a90c8b9)"/><circle cx="25" cy="13" r="1" fill="url(#uuid-f70f87e0-26ee-49e9-9720-23717c70eeb9)"/><circle cx="17" cy="5" r="1" fill="url(#uuid-1f45196c-bea1-447a-bfb8-28a527e2fd98)"/><circle cx="9" cy="5" r="1" fill="url(#uuid-5051b52b-fee8-488d-9476-5f15de6722f1)"/><circle cx="25" cy="5" r="1" fill="url(#uuid-31afa3f1-5a80-4cb6-b457-501fba9ef196)"/><circle cx="25" cy="21" r="1" fill="url(#uuid-2578907f-607d-4194-8562-31c86b1b80cc)"/><circle cx="17" cy="29" r="1" fill="url(#uuid-c4b2af98-2c22-4539-96b8-f9729321da11)"/><circle cx="17" cy="37" r="1" fill="url(#uuid-f32a1dcf-10c3-4b2b-a60c-cc44f1fba153)"/><circle cx="21" cy="25" r="1" fill="url(#uuid-ad328705-ff88-4bad-81ba-12bb101b780a)"/><circle cx="13" cy="25" r="1" fill="url(#uuid-3e4432de-d7ef-419e-bee6-c7a975a6722f)"/><circle cx="21" cy="33" r="1" fill="url(#uuid-6ac12c30-f906-474a-9445-94240e4aa903)"/><circle cx="29" cy="33" r="1" fill="url(#uuid-c999444a-cdd5-421f-b5fc-105d75cd7165)"/><circle cx="9" cy="29" r="1" fill="url(#uuid-4c382cf3-f11c-41d4-aa6b-62b307961114)"/><circle cx="9" cy="37" r="1" fill="url(#uuid-058d818f-b39e-45fc-819d-8f26d021dc9a)"/><circle cx="13" cy="33" r="1" fill="url(#uuid-458d227b-ea65-4159-8002-12e236d4f8be)"/><circle cx="5" cy="33" r="1" fill="url(#uuid-3cc5a133-a6e9-4127-91f5-38c9758c3ba8)"/><circle cx="29" cy="25" r="1" fill="url(#uuid-171a381d-32ca-49bf-969c-ba3c9a88d61a)"/><circle cx="5" cy="25" r="1" fill="url(#uuid-f7c973c3-e7df-4493-8f0c-742391c9f78c)"/><circle cx="25" cy="29" r="1" fill="url(#uuid-bc21a8b4-7686-4385-b04b-9d2c2e5004de)"/><circle cx="25" cy="37" r="1" fill="url(#uuid-02b853a9-0c5e-468c-82fe-60677f2a46de)"/><circle cx="17" cy="45" r="1" fill="url(#uuid-f04d8708-e111-434a-92b7-4d09fe1fb6b8)"/><circle cx="21" cy="41" r="1" fill="url(#uuid-331641f6-f52f-4902-a3b5-42338ebcc24b)"/><circle cx="29" cy="41" r="1" fill="url(#uuid-1f3e48eb-8042-42cc-9440-1da08a15fcc1)"/><circle cx="9" cy="45" r="1" fill="url(#uuid-368e2875-522d-4d36-95c6-1aceda3df3cd)"/><circle cx="13" cy="41" r="1" fill="url(#uuid-8f2ef422-78fc-4223-b7ce-9622bce6250c)"/><circle cx="5" cy="41" r="1" fill="url(#uuid-90ecd6e4-fc18-447d-942d-8fa92feeb2e0)"/><circle cx="25" cy="45" r="1" fill="url(#uuid-0f4ca9e2-5580-49f6-881b-10e4d31d79d5)"/><circle cx="17" cy="55" r="2.5" fill="#203b72"/><path d="M17,52c-1.6543,0-3,1.3457-3,3s1.3457,3,3,3,3-1.3457,3-3-1.3457-3-3-3ZM17,57c-1.1045,0-2-.8955-2-2s.8955-2,2-2,2,.8955,2,2-.8955,2-2,2Z" fill="#fff"/></g></svg>