<?xml version="1.0" encoding="UTF-8"?><svg id="uuid-8f95dbda-6dcb-4ae2-9b05-970d55feb73e" xmlns="http://www.w3.org/2000/svg" xmlns:xlink="http://www.w3.org/1999/xlink" viewBox="0 0 50 60"><defs><linearGradient id="uuid-3a0a7a27-8fb3-4314-9387-3bcc17635763" x1="18.0858" y1="13.9142" x2="22.9142" y2="9.0858" gradientUnits="userSpaceOnUse"><stop offset="0" stop-color="#a62b9f"/><stop offset="1" stop-color="#59c8fa"/></linearGradient><linearGradient id="uuid-010de819-374d-4f6d-8723-f1c6d4feaabd" x1="27.0858" y1="13.9142" x2="31.9142" y2="9.0858" xlink:href="#uuid-3a0a7a27-8fb3-4314-9387-3bcc17635763"/><linearGradient id="uuid-b96b3c70-afba-420e-80a1-79a3e2795fe8" x1="9.0858" y1="13.9142" x2="13.9142" y2="9.0858" xlink:href="#uuid-3a0a7a27-8fb3-4314-9387-3bcc17635763"/><linearGradient id="uuid-e007aeb4-fdc0-41e1-8b6b-5e97439843ae" x1="27.0858" y1="22.9142" x2="31.9142" y2="18.0858" xlink:href="#uuid-3a0a7a27-8fb3-4314-9387-3bcc17635763"/><linearGradient id="uuid-94b5306a-f5c3-4712-b66d-936ea24c437a" x1="36.0858" y1="22.9142" x2="40.9142" y2="18.0858" xlink:href="#uuid-3a0a7a27-8fb3-4314-9387-3bcc17635763"/><linearGradient id="uuid-8c1ad66b-1db4-428b-b974-a5e001f3f029" x1="9.0858" y1="22.9142" x2="13.9142" y2="18.0858" xlink:href="#uuid-3a0a7a27-8fb3-4314-9387-3bcc17635763"/><linearGradient id="uuid-fb6b3880-65ec-43cd-90e9-4478567c6017" x1="18.0858" y1="31.9142" x2="22.9142" y2="27.0858" xlink:href="#uuid-3a0a7a27-8fb3-4314-9387-3bcc17635763"/><linearGradient id="uuid-0e35bf9d-8185-4ff0-af70-45f7f2981da7" x1="36.0858" y1="31.9142" x2="40.9142" y2="27.0858" xlink:href="#uuid-3a0a7a27-8fb3-4314-9387-3bcc17635763"/><linearGradient id="uuid-309c928c-f913-44b5-97cd-efd563ab0389" x1="9.0858" y1="31.9142" x2="13.9142" y2="27.0858" xlink:href="#uuid-3a0a7a27-8fb3-4314-9387-3bcc17635763"/><linearGradient id="uuid-7b5e34c7-35ac-4716-9661-4619b94f4b05" x1="18.0858" y1="40.9142" x2="22.9142" y2="36.0858" xlink:href="#uuid-3a0a7a27-8fb3-4314-9387-3bcc17635763"/><linearGradient id="uuid-4d97831c-3b4f-4590-8ca1-42863329c560" x1="24.2928" y1="3.2072" x2="25.7072" y2="1.7928" xlink:href="#uuid-3a0a7a27-8fb3-4314-9387-3bcc17635763"/></defs><g id="uuid-4a5bc304-4596-472c-acff-1b6500751734"><rect width="50" height="60" rx="6" ry="6" fill="#203b72"/><rect x="5" y="5" width="40" height="50" rx="2" ry="2" fill="#fff"/><rect x="17.5" y="8.5" width="6" height="6" rx="2" ry="2" fill="url(#uuid-3a0a7a27-8fb3-4314-9387-3bcc17635763)"/><rect x="26.5" y="8.5" width="6" height="6" rx="2" ry="2" fill="url(#uuid-010de819-374d-4f6d-8723-f1c6d4feaabd)"/><rect x="35.5" y="8.5" width="6" height="6" rx="2" ry="2" fill="#203b72"/><rect x="8.5" y="8.5" width="6" height="6" rx="2" ry="2" fill="url(#uuid-b96b3c70-afba-420e-80a1-79a3e2795fe8)"/><rect x="17.5" y="17.5" width="6" height="6" rx="2" ry="2" fill="#203b72"/><rect x="26.5" y="17.5" width="6" height="6" rx="2" ry="2" fill="url(#uuid-e007aeb4-fdc0-41e1-8b6b-5e97439843ae)"/><rect x="35.5" y="17.5" width="6" height="6" rx="2" ry="2" fill="url(#uuid-94b5306a-f5c3-4712-b66d-936ea24c437a)"/><rect x="8.5" y="17.5" width="6" height="6" rx="2" ry="2" fill="url(#uuid-8c1ad66b-1db4-428b-b974-a5e001f3f029)"/><rect x="17.5" y="26.5" width="6" height="6" rx="2" ry="2" fill="url(#uuid-fb6b3880-65ec-43cd-90e9-4478567c6017)"/><rect x="26.5" y="26.5" width="6" height="6" rx="2" ry="2" fill="#203b72"/><rect x="35.5" y="26.5" width="6" height="6" rx="2" ry="2" fill="url(#uuid-0e35bf9d-8185-4ff0-af70-45f7f2981da7)"/><rect x="8.5" y="26.5" width="6" height="6" rx="2" ry="2" fill="url(#uuid-309c928c-f913-44b5-97cd-efd563ab0389)"/><rect x="17.5" y="35.5" width="6" height="6" rx="2" ry="2" fill="url(#uuid-7b5e34c7-35ac-4716-9661-4619b94f4b05)"/><rect x="8.5" y="35.5" width="6" height="6" rx="2" ry="2" fill="#203b72"/><path d="M25,1.5c-.5527,0-1,.4478-1,1s.4473,1,1,1,1-.4478,1-1-.4473-1-1-1h0Z" fill="url(#uuid-4d97831c-3b4f-4590-8ca1-42863329c560)"/><path d="M31,51h-12c-.5527,0-1,.4478-1,1h0c0,.5522.4473,1,1,1h12c.5527,0,1-.4478,1-1h0c0-.5522-.4473-1-1-1Z" fill="#203b72"/></g></svg>