<?xml version="1.0" encoding="UTF-8"?><svg id="uuid-975f99b4-965f-4cdb-831a-a2c3c9ada508" xmlns="http://www.w3.org/2000/svg" xmlns:xlink="http://www.w3.org/1999/xlink" viewBox="0 0 60 60"><defs><linearGradient id="uuid-6c703a85-372f-4fd8-aba7-1041e8dcc8f8" x1="36.1003" y1="55.8996" x2="55.8996" y2="36.1004" gradientUnits="userSpaceOnUse"><stop offset="0" stop-color="#a62b9f"/><stop offset="1" stop-color="#59c8fa"/></linearGradient></defs><g id="uuid-4b93d744-78a6-4be5-bc01-b31e8dcbaeaa"><rect y="46" width="8" height="14" rx="1" ry="1" fill="#203b72"/><rect x="12" y="36" width="8" height="24" rx="1" ry="1" fill="#203b72"/><path d="M31,26h-6c-.5527,0-1,.4473-1,1v32c0,.5518.4473,1,1,1h6c.5527,0,1-.4482,1-1v-5.2715c-1.2715-2.293-2-4.9258-2-7.7285s.7285-5.4355,2-7.7285v-11.2715c0-.5527-.4473-1-1-1Z" fill="#203b72"/><path d="M43,16h-6c-.5527,0-1,.4473-1,1v16.5293c2.25-1.8076,4.9961-3.0137,8-3.3906v-13.1387c0-.5527-.4473-1-1-1Z" fill="#203b72"/><path d="M52,0l-8,10h4v20.1387c3.0039.3769,5.75,1.583,8,3.3906V10h4L52,0Z" fill="#203b72"/><circle cx="46" cy="46" r="14" fill="url(#uuid-6c703a85-372f-4fd8-aba7-1041e8dcc8f8)"/><circle cx="46" cy="46" r="2.2109" fill="#203b72"/><path d="M52.7734,53.7734c-.2558,0-.5117-.0976-.707-.2929-.3906-.3907-.3906-1.0235,0-1.4141,3.3438-3.3447,3.3438-8.7881,0-12.1328-3.3467-3.3447-8.7881-3.3428-12.1328,0-3.3438,3.3447-3.3438,8.7881,0,12.1328.3906.3906.3906,1.0234,0,1.4141-.3906.3906-1.0234.3906-1.4141,0-4.124-4.125-4.124-10.836,0-14.961,4.125-4.123,10.836-4.123,14.961,0,4.124,4.125,4.124,10.836,0,14.961-.1953.1953-.4512.2929-.7071.2929Z" fill="#fff"/><path d="M46,47c-.2559,0-.5117-.0977-.707-.293-.3907-.3906-.3907-1.0234,0-1.414l7.5097-7.5098c.3907-.3906,1.0235-.3906,1.4141,0s.3906,1.0234,0,1.4141l-7.5098,7.5097c-.1953.1953-.4511.293-.707.293Z" fill="#203b72"/></g></svg>