<?xml version="1.0" encoding="UTF-8"?><svg id="uuid-5eb94195-1d57-411a-9a77-37f25d86eac1" xmlns="http://www.w3.org/2000/svg" xmlns:xlink="http://www.w3.org/1999/xlink" viewBox="0 0 59.9999 60.0002"><defs><linearGradient id="uuid-e93b7a4f-0df2-4f62-b001-763996ad4040" x1="44.7044" y1="16.26" x2="57.2956" y2="3.6689" gradientUnits="userSpaceOnUse"><stop offset="0" stop-color="#a62b9f"/><stop offset="1" stop-color="#59c8fa"/></linearGradient><linearGradient id="uuid-efbcf3c0-725b-4f42-9689-bd178973e576" x1="4.3723" y1="46.3686" x2="40.3703" y2="10.3706" xlink:href="#uuid-e93b7a4f-0df2-4f62-b001-763996ad4040"/></defs><g id="uuid-8368ef93-3d42-4973-83b1-1aa58654eec9"><rect y="46.0002" width="12" height="14" rx="2" ry="2" fill="#203b72"/><rect x="15" y="41.0002" width="12" height="19" rx="2" ry="2" fill="#203b72"/><rect x="30" y="32.0002" width="12" height="28" rx="2" ry="2" fill="#203b72"/><rect x="45" y="20.0002" width="12" height="40" rx="2" ry="2" fill="#203b72"/><path d="M59.0049,5.7072l-4.208-.6113c-.3789-.0557-.7051-.293-.874-.6348l-1.8829-3.8144c-.4248-.8623-1.6552-.8623-2.081,0l-1.8819,3.8144c-.1689.3418-.496.5791-.874.6348l-4.208.6113c-.9521.1387-1.332,1.3076-.6435,1.9795l3.0459,2.9688c.2734.2666.3984.6504.3339,1.0263l-.7197,4.1924c-.1621.9473.833,1.6699,1.6836,1.2227l3.7647-1.9785c.3379-.1778.7421-.1778,1.08,0l3.7647,1.9785c.8506.4472,1.8457-.2754,1.6836-1.2227l-.7188-4.1924c-.0654-.3759.0596-.7597.333-1.0263l3.0459-2.9688c.6885-.6719.3086-1.8408-.6435-1.9795Z" fill="url(#uuid-e93b7a4f-0df2-4f62-b001-763996ad4040)"/><path d="M31.6396,16.1691l2.8292,2.2168C18.8975,35.8693,1.5615,37.8498,0,37.9934v4.0029c.8271-.0488,20.2031-1.4316,37.623-21.1397l2.8086,2.2002,1.5684-11.0566-10.3604,4.1689Z" fill="url(#uuid-efbcf3c0-725b-4f42-9689-bd178973e576)"/></g></svg>