<?xml version="1.0" encoding="UTF-8"?><svg id="uuid-cbdd5281-15e9-491b-9871-4a8273d0c9cb" xmlns="http://www.w3.org/2000/svg" xmlns:xlink="http://www.w3.org/1999/xlink" viewBox="0 0 60 60"><defs><linearGradient id="uuid-c6be9824-9866-4d79-9d01-3d28ae250ebb" x1="29.8076" y1="48.1924" x2="48.1924" y2="29.8076" gradientUnits="userSpaceOnUse"><stop offset="0" stop-color="#a62b9f"/><stop offset="1" stop-color="#59c8fa"/></linearGradient><linearGradient id="uuid-1258fc01-086d-4c60-9af1-ae521e9c2074" x1="51.1916" y1="56.8488" x2="56.8488" y2="51.1916" xlink:href="#uuid-c6be9824-9866-4d79-9d01-3d28ae250ebb"/></defs><g id="uuid-5818aaf4-71e4-4ec0-b966-065a3745f841"><rect y="30" width="8" height="30" rx="1" ry="1" fill="#203b72"/><rect x="13" y="10" width="8" height="50" rx="1" ry="1" fill="#203b72"/><path d="M26,46.4512v12.5488c0,.5518.4473,1,1,1h6c.5527,0,1-.4482,1-1v-5.875c-3.3945-1.2061-6.2266-3.5928-8-6.6738Z" fill="#203b72"/><path d="M34,24.875v-7.875c0-.5527-.4473-1-1-1h-6c-.5527,0-1,.4473-1,1v14.5488c1.7734-3.081,4.6055-5.4677,8-6.6738Z" fill="#203b72"/><path d="M47,1c0-.5527-.4473-1-1-1h-6c-.5527,0-1,.4473-1,1v23c2.9424,0,5.6816.8643,8,2.334V1Z" fill="#203b72"/><path d="M39,54v5c0,.5518.4473,1,1,1h6c.5527,0,1-.4482,1-1v-3.5146l-2.5342-2.5342c-1.6943.6709-3.5351,1.0488-5.4658,1.0488Z" fill="#203b72"/><circle cx="39" cy="39" r="13" fill="url(#uuid-c6be9824-9866-4d79-9d01-3d28ae250ebb)"/><path d="M58.8281,53.1719l-6.7871-6.7881c-1.3408,2.3584-3.2988,4.3164-5.6572,5.6572l6.7881,6.7871c.7802.7813,1.8047,1.1719,2.8281,1.1719s2.0469-.3906,2.8281-1.1719c1.5625-1.5615,1.5625-4.0947,0-5.6562Z" fill="url(#uuid-1258fc01-086d-4c60-9af1-ae521e9c2074)"/><path d="M31,40c-.5527,0-1-.4482-1-1,0-4.9629,4.0371-9,9-9,.5527,0,1,.4482,1,1s-.4473,1-1,1c-3.8594,0-7,3.1396-7,7,0,.5518-.4473,1-1,1Z" fill="#fff"/></g></svg>