<?xml version="1.0" encoding="UTF-8"?><svg id="uuid-253cfb5b-afa9-4749-a492-013858cf7e34" xmlns="http://www.w3.org/2000/svg" xmlns:xlink="http://www.w3.org/1999/xlink" viewBox="0 0 60 60"><defs><linearGradient id="uuid-865921a2-91c7-4b2f-a47e-afee215dcc23" x1="1.7593" y1="58.2407" x2="31.2122" y2="28.7878" gradientUnits="userSpaceOnUse"><stop offset="0" stop-color="#a62b9f"/><stop offset="1" stop-color="#59c8fa"/></linearGradient></defs><g id="uuid-83e72b03-eb3b-4d23-b3b3-dd7e8314adb8"><path d="M58.2861,56.5713H6c-1.418,0-2.5713-1.1533-2.5713-2.5713V1.7144c0-.9468-.7676-1.7144-1.7148-1.7144C.7676,0,0,.7676,0,1.7144v52.2856c0,3.3086,2.6914,6,6,6h52.2861c.9463,0,1.7139-.7676,1.7139-1.7144s-.7676-1.7143-1.7139-1.7143Z" fill="url(#uuid-865921a2-91c7-4b2f-a47e-afee215dcc23)"/><rect x="51.4287" width="8.5713" height="51.5713" rx="1.5" ry="1.5" fill="#203b72"/><rect x="37.2861" y="18.4287" width="8.5713" height="33.1426" rx="1.5" ry="1.5" fill="#203b72"/><rect x="23.1426" y="10.7144" width="8.5713" height="40.8569" rx="1.5" ry="1.5" fill="#203b72"/><rect x="9" y="27.8569" width="8.5713" height="23.7144" rx="1.5" ry="1.5" fill="#203b72"/></g></svg>