<?xml version="1.0" encoding="UTF-8"?><svg id="uuid-9888f5f7-9122-47ba-b60e-b9223f9b0fb7" xmlns="http://www.w3.org/2000/svg" xmlns:xlink="http://www.w3.org/1999/xlink" viewBox="0 0 60 60"><defs><linearGradient id="uuid-ee9206d3-45e1-4fa6-9386-adf7e7bd92cc" x1="32.3934" y1="55.6066" x2="53.6066" y2="34.3934" gradientUnits="userSpaceOnUse"><stop offset="0" stop-color="#a62b9f"/><stop offset="1" stop-color="#59c8fa"/></linearGradient></defs><g id="uuid-70cc061b-5a0c-425d-9219-127007e05331"><rect y="40" width="8" height="20" rx="1" ry="1" fill="#203b72"/><rect x="13" y="30" width="8" height="30" rx="1" ry="1" fill="#203b72"/><path d="M34,29.4277v-8.4277c0-.5522-.4473-1-1-1h-6c-.5527,0-1,.4478-1,1v18.126c1.4219-4.1153,4.2881-7.5479,8-9.6983Z" fill="#203b72"/><path d="M26,50.874v8.126c0,.5522.4473,1,1,1h6c.0156,0,.0283-.0083.043-.0088-3.251-2.1636-5.7442-5.3603-7.043-9.1172Z" fill="#203b72"/><path d="M47,27.4614V11c0-.5522-.4473-1-1-1h-6c-.5527,0-1,.4478-1,1v16.4614c1.2881-.2925,2.623-.4614,4-.4614s2.7119.1689,4,.4614Z" fill="#203b72"/><path d="M52.9561,59.9912c.0156.0005.0283.0088.0439.0088h6c.5527,0,1-.4478,1-1v-8.126c-1.2988,3.7569-3.792,6.9536-7.0439,9.1172Z" fill="#203b72"/><path d="M60,39.126V1c0-.5522-.4473-1-1-1h-6c-.5527,0-1,.4478-1,1v28.4277c3.7119,2.1504,6.5781,5.583,8,9.6983Z" fill="#203b72"/><circle cx="43" cy="45" r="15" fill="url(#uuid-ee9206d3-45e1-4fa6-9386-adf7e7bd92cc)"/><path d="M40.3535,53.9482c-.5117,0-1.0234-.1953-1.414-.5854l-5.2706-5.2695c-.7812-.7813-.7812-2.0474,0-2.8287.7813-.7812,2.0469-.7807,2.8282-.0004l3.8564,3.8559,9.1494-9.1494c.7813-.7812,2.0469-.7812,2.8282,0,.7812.7808.7812,2.0474,0,2.8281l-10.5635,10.5635c-.3906.3906-.9024.5859-1.4141.5859Z" fill="#fff"/></g></svg>