<?xml version="1.0" encoding="UTF-8"?><svg id="uuid-43ea2660-2cd0-4115-aed4-983224472188" xmlns="http://www.w3.org/2000/svg" xmlns:xlink="http://www.w3.org/1999/xlink" viewBox="0 0 60 60"><defs><linearGradient id="uuid-9a8582ec-f81a-450c-90b9-480a0461a669" x1="32.3934" y1="55.6066" x2="53.6066" y2="34.3934" gradientUnits="userSpaceOnUse"><stop offset="0" stop-color="#a62b9f"/><stop offset="1" stop-color="#59c8fa"/></linearGradient></defs><g id="uuid-cfe939dd-9f32-4961-a8e2-ba1e38e60896"><rect y="40" width="8" height="20" rx="1" ry="1" fill="#203b72"/><rect x="13" y="30" width="8" height="30" rx="1" ry="1" fill="#203b72"/><path d="M34,29.4277v-8.4277c0-.5522-.4478-1-1-1h-6c-.5522,0-1,.4478-1,1v18.126c1.4224-4.1153,4.2876-7.5479,8-9.6983Z" fill="#203b72"/><path d="M26,50.874v8.126c0,.5522.4478,1,1,1h6c.0156,0,.0283-.0083.0435-.0088-3.2515-2.1636-5.7452-5.3603-7.0435-9.1172Z" fill="#203b72"/><path d="M47,27.4614V11c0-.5522-.4478-1-1-1h-6c-.5522,0-1,.4478-1,1v16.4614c1.2881-.2925,2.623-.4614,4-.4614s2.7119.1689,4,.4614Z" fill="#203b72"/><path d="M52.9565,59.9912c.0152.0005.0279.0088.0435.0088h6c.5522,0,1-.4478,1-1v-8.126c-1.2983,3.7569-3.792,6.9536-7.0435,9.1172Z" fill="#203b72"/><path d="M60,39.126V1c0-.5522-.4478-1-1-1h-6c-.5522,0-1,.4478-1,1v28.4277c3.7124,2.1504,6.5776,5.583,8,9.6983Z" fill="#203b72"/><circle cx="43" cy="45" r="15" fill="url(#uuid-9a8582ec-f81a-450c-90b9-480a0461a669)"/><path d="M45.7783,54.2168h-5.5566c-1.8994,0-3.4488-1.5288-3.4815-3.4204-.0005-.0122-.0005-.0244-.0005-.0366v-.0244c0-.6905.5596-1.25,1.25-1.25s1.25.5595,1.25,1.25c0,.541.4405.9814.982.9814h5.5566c.5415,0,.982-.4404.982-.9814v-3.504c0-.541-.4405-.9814-.982-.9814h-5.5566c-1.9199,0-3.482-1.562-3.482-3.4814v-3.504c0-1.9199,1.5621-3.4814,3.482-3.4814h5.5566c1.8994,0,3.4488,1.5288,3.4815,3.4204.0005.0122.0005.0244.0005.0366v.0244c0,.6905-.5596,1.25-1.25,1.25s-1.25-.5595-1.25-1.25c0-.541-.4405-.9814-.982-.9814h-5.5566c-.5415,0-.982.4404-.982.9814v3.504c0,.541.4405.9814.982.9814h5.5566c1.9199,0,3.482,1.562,3.482,3.4814v3.504c0,1.9199-1.5621,3.4814-3.482,3.4814Z" fill="#fff"/><path d="M43,38.2832c-.6904,0-1.25-.5596-1.25-1.25v-3.0332c0-.6904.5596-1.25,1.25-1.25s1.25.5596,1.25,1.25v3.0332c0,.6904-.5596,1.25-1.25,1.25Z" fill="#fff"/><path d="M43,57.25c-.6904,0-1.25-.5596-1.25-1.25v-3.0332c0-.6904.5596-1.25,1.25-1.25s1.25.5596,1.25,1.25v3.0332c0,.6904-.5596,1.25-1.25,1.25Z" fill="#fff"/></g></svg>