<?xml version="1.0" encoding="UTF-8"?><svg id="uuid-a7ad1930-e4b7-4461-873f-ba98252b832d" xmlns="http://www.w3.org/2000/svg" xmlns:xlink="http://www.w3.org/1999/xlink" viewBox="0 0 54.1659 59.9999"><defs><linearGradient id="uuid-369d73e1-0ed0-45f2-a9d9-7bb0016d2e50" x1="16.5585" y1="38.704" x2="44.3866" y2="10.8759" gradientUnits="userSpaceOnUse"><stop offset="0" stop-color="#a62b9f"/><stop offset="1" stop-color="#59c8fa"/></linearGradient><linearGradient id="uuid-6b7c2590-aca9-4f96-a9dc-0623dd781805" x1="47.4822" y1="18.7811" x2="53.3441" y2="12.9193" xlink:href="#uuid-369d73e1-0ed0-45f2-a9d9-7bb0016d2e50"/><linearGradient id="uuid-f15faf8f-33ca-4a5d-9a6f-29b26a32896b" x1="30.9368" y1="35.3255" x2="38.0078" y2="28.2546" xlink:href="#uuid-369d73e1-0ed0-45f2-a9d9-7bb0016d2e50"/><linearGradient id="uuid-c586ad8b-21f3-4db9-adf6-84e65ad4b44c" x1="19.9368" y1="24.3255" x2="27.0078" y2="17.2546" xlink:href="#uuid-369d73e1-0ed0-45f2-a9d9-7bb0016d2e50"/></defs><g id="uuid-fa0367a9-8f64-4d2e-a6fa-4ba9381e110e"><path d="M48.3143,7.83c-3.3584-3.791-7.8759-6.3457-12.8418-7.3408C21.1933-2.3712,8.5643,7.6796,7.1542,21.0741c-.1826,1.7334-.6387,3.4268-1.4736,4.9571L.245,35.9979c-.5742,1.0528-.0996,2.3692,1.0127,2.8145l3.6318,1.4521c.4981.1993.8243.6807.8243,1.2168v7.0899c0,1.3808,1.1191,2.5,2.5,2.5h6.7851c1.3809,0,2.5,1.1191,2.5,2.5v3.9287c0,1.3809,1.1192,2.5,2.5,2.5h25.1192c1.3808,0,2.5-1.1191,2.5-2.5v-4.7461c0-6.1484,1.2031-12.2969,3.9873-17.7803,1.7412-3.4248,2.5683-7.3662,2.5605-11.4023-.0107-5.416-1.6543-11.002-5.8516-15.7412Z" fill="#203b72"/><circle cx="30.6659" cy="23.9999" r="19" fill="#fff"/><path d="M30.6659.9999v5.75c9.5264,0,17.25,7.7227,17.25,17.25s-7.7236,17.25-17.25,17.25v5.75c12.7022,0,23-10.2979,23-23S43.3681.9999,30.6659.9999Z" fill="#203b72"/><path d="M34.4725,33.7899c-.5117,0-1.0234-.1953-1.414-.5859l-9.586-9.5859-9.5859,9.5859c-.7812.7813-2.0469.7813-2.8281,0-.7813-.7812-.7813-2.0469,0-2.8281l11-11c.7812-.7813,2.0469-.7813,2.8281,0l9.5859,9.5859,12.586-12.5859c.7812-.7813,2.0469-.7813,2.8281,0,.7813.7812.7813,2.0469,0,2.8281l-14,14c-.3906.3906-.9023.5859-1.4141.5859Z" fill="url(#uuid-369d73e1-0ed0-45f2-a9d9-7bb0016d2e50)"/><polygon points="50.8671 22.1659 53.3436 12.9188 44.0975 15.3964 50.8671 22.1659" fill="url(#uuid-6b7c2590-aca9-4f96-a9dc-0623dd781805)"/><circle cx="34.4725" cy="31.7899" r="5" fill="url(#uuid-f15faf8f-33ca-4a5d-9a6f-29b26a32896b)"/><circle cx="34.4725" cy="31.7899" r="2" fill="#fff"/><circle cx="23.4725" cy="20.7899" r="5" fill="url(#uuid-c586ad8b-21f3-4db9-adf6-84e65ad4b44c)"/><circle cx="23.4725" cy="20.7899" r="2" fill="#fff"/><path d="M13.4159,23.9999c0-9.5273,7.7227-17.25,17.25-17.25V.9999C17.9638.9999,7.6659,11.2978,7.6659,23.9999s10.2979,23,23,23v-5.75c-9.5273,0-17.25-7.7227-17.25-17.25Z" fill="#203b72"/></g></svg>