<?xml version="1.0" encoding="UTF-8"?><svg id="uuid-6874eceb-0bb6-4141-9428-4ee0a6884e3b" xmlns="http://www.w3.org/2000/svg" xmlns:xlink="http://www.w3.org/1999/xlink" viewBox="0 0 60 60"><defs><linearGradient id="uuid-8759993d-5451-48e4-af5e-d0624678de9d" x1="27.8132" y1="49.8132" x2="42.5251" y2="35.1013" gradientUnits="userSpaceOnUse"><stop offset="0" stop-color="#a62b9f"/><stop offset="1" stop-color="#59c8fa"/></linearGradient><linearGradient id="uuid-71bd7fcf-52cc-453e-9d4c-fa17fed46099" x1="37.0737" y1="48.0737" x2="56.8979" y2="28.2495" xlink:href="#uuid-8759993d-5451-48e4-af5e-d0624678de9d"/><linearGradient id="uuid-f9793ad4-af4b-4200-9197-a70f055aed6f" x1="43.5" y1="43.5" x2="72.5" y2="14.5" xlink:href="#uuid-8759993d-5451-48e4-af5e-d0624678de9d"/><linearGradient id="uuid-ab9bc5fd-500d-49c8-9a81-8679b194b50e" x1="7" y1="51" x2="17.2968" y2="40.7032" xlink:href="#uuid-8759993d-5451-48e4-af5e-d0624678de9d"/><linearGradient id="uuid-ee4af147-b223-47ee-88c9-6c4b7ec3736a" x1="17.7202" y1="50.7202" x2="29.4522" y2="38.9883" xlink:href="#uuid-8759993d-5451-48e4-af5e-d0624678de9d"/></defs><g id="uuid-157f4790-9ef4-4a33-8991-06f156fe0fa9"><path d="M58.2861,56.5713H6c-1.418,0-2.5713-1.1533-2.5713-2.5713V1.7139c0-.9463-.7676-1.7139-1.7148-1.7139C.7676,0,0,.7676,0,1.7139v52.2861c0,3.3086,2.6914,6,6,6h52.2861c.9463,0,1.7139-.7676,1.7139-1.7139,0-.9472-.7676-1.7148-1.7139-1.7148Z" fill="#203b72"/><path d="M30,52h8v-21.4238c-2.4365,1.7285-5.0918,3.3193-8,4.6767v16.7471Z" fill="url(#uuid-8759993d-5451-48e4-af5e-d0624678de9d)"/><path d="M41,28.2949v23.7051h8v-31.6484c-2.2676,2.705-4.9209,5.4228-8,7.9433Z" fill="url(#uuid-71bd7fcf-52cc-453e-9d4c-fa17fed46099)"/><path d="M52,16.4971v35.5029h8V2s-2.3857,6.7158-8,14.4971Z" fill="url(#uuid-f9793ad4-af4b-4200-9197-a70f055aed6f)"/><path d="M8,52h8v-12.5937c-2.542.372-5.1973.5937-8,.5937v12Z" fill="url(#uuid-ab9bc5fd-500d-49c8-9a81-8679b194b50e)"/><path d="M19,52h8v-15.4639c-2.4971.9707-5.1689,1.7588-8,2.3448v13.1191Z" fill="url(#uuid-ee4af147-b223-47ee-88c9-6c4b7ec3736a)"/><path d="M46.5176,7.7559l4.1465,2.4023c-18.1885,26.4424-41.6709,25.875-42.6641,25.8447v5.9942c.083.0039.167.0117.5088.0117,4.3506,0,28.6445-1.3027,47.3584-28.8359l4.1328,2.3818V0l-13.4824,7.7559Z" fill="#203b72"/></g></svg>