<?xml version="1.0" encoding="UTF-8"?><svg id="uuid-510f9a8c-2c27-4b82-bdc4-45a4fcc4da1b" xmlns="http://www.w3.org/2000/svg" xmlns:xlink="http://www.w3.org/1999/xlink" viewBox="0 0 60 60"><defs><linearGradient id="uuid-ef8bd164-6c4b-462c-90a5-f6192fd6e6ae" x1="34.3935" y1="55.6065" x2="55.6065" y2="34.3935" gradientUnits="userSpaceOnUse"><stop offset="0" stop-color="#a62b9f"/><stop offset="1" stop-color="#59c8fa"/></linearGradient></defs><g id="uuid-ebebdae7-6b7a-4253-ab2c-02c66dd28f36"><path d="M59.125,46.1812l.875.5039v-3.3706l-.8789.5063c.0674.7876.0684,1.5767.0039,2.3604Z" fill="#203b72"/><path d="M29.2891,47.0947l1.5898-.9155c-.0674-.7876-.0684-1.5767-.0039-2.3604l-1.5859-.9135c-1.1162-.6421-1.586-2.0235-1.0928-3.2134l1.168-2.8208c.3994-.9648,1.333-1.5879,2.3769-1.5879.2256,0,.4502.0298.668.0884l1.7676.4756c.5078-.5996,1.0673-1.1568,1.6718-1.6665l-.4765-1.7715c-.335-1.2432.3095-2.5523,1.499-3.0449l2.8203-1.1685c.3145-.1299.6445-.1958.9844-.1958h0c.917,0,1.7715.4937,2.2295,1.2886l.915,1.5903c.4024-.0342.8047-.0518,1.2041-.0518.3858,0,.7725.0162,1.1572.0479l.9131-1.5864c.458-.7949,1.3116-1.2886,2.2295-1.2886.3389,0,.6699.0659.9844.1958l2.8203,1.1685c1.1895.4931,1.834,1.8022,1.5,3.0454l-.4766,1.7671c.6006.5083,1.1573,1.0669,1.667,1.6718l1.7715-.477c.2178-.0586.4434-.0884.669-.0884.6601,0,1.2754.251,1.7402.6787V4l-14.333,14.333-6.333-6.333-12.458,12.4585-5.6719-5.6714-13.2041,13.2041v20.0088h20.8965l-.7002-1.6919c-.4932-1.1894-.0234-2.5708,1.0928-3.2134Z" fill="#203b72"/><path d="M54.0234,60h4.2618c.9472,0,1.7148-.7676,1.7148-1.7144s-.7676-1.7143-1.7148-1.7143h-3.9317l.2744,1.0195c.2364.875-.0205,1.7764-.6045,2.4092Z" fill="#203b72"/><path d="M44.9746,59.1724c-.3848,0-.7715-.0157-1.1562-.0474l-.5039.875h3.371l-.5058-.8789c-.4024.0342-.8047.0513-1.2051.0513Z" fill="#203b72"/><path d="M35.3711,57.5903l.2754-1.019H6c-1.418,0-2.5713-1.1533-2.5713-2.5713V1.7144c0-.9468-.7676-1.7144-1.7148-1.7144C.7676,0,0,.7676,0,1.7144v52.2856c0,3.3086,2.6914,6,6,6h29.9766c-.584-.6328-.8409-1.5347-.6055-2.4097Z" fill="#203b72"/><path d="M59.7129,48.8276l-2.4043-1.3842c-.2061-.1192-.3125-.3531-.2764-.5884.1924-1.2456.1836-2.4946-.0049-3.7071-.0371-.2353.0694-.4692.2764-.5883l2.4092-1.3877c.249-.1436.3535-.4492.2432-.7149l-1.168-2.8203c-.0908-.2182-.3018-.3535-.5283-.3535-.0498,0-.0996.0064-.1494.0195l-2.6846.7232c-.0488.0127-.0977.0195-.1465.0195-.1816,0-.3545-.0884-.4658-.2402-.7237-.9907-1.5996-1.8804-2.6172-2.625-.1924-.1406-.2822-.3814-.2207-.6114l.7217-2.6792c.0742-.2773-.0684-.5673-.334-.6772l-2.8203-1.1685c-.0713-.0297-.1455-.0439-.2188-.0439-.1992,0-.3916.1045-.4961.2871l-1.3847,2.4043c-.1036.1797-.294.2832-.4971.2832-.0303,0-.0606-.0024-.0918-.0068-.6104-.0948-1.2217-.1407-1.8301-.1407-.6308,0-1.2588.0499-1.876.146-.0312.0044-.0625.0069-.0918.0069-.2031,0-.3935-.104-.497-.2837l-1.3877-2.4097c-.1045-.1821-.2969-.2866-.4961-.2866-.0733,0-.1475.0142-.2188.0435l-2.8203,1.1684c-.2656.1099-.4082.3999-.334.6773l.7227,2.6855c.0625.23-.0274.4707-.2207.6113-.9902.7242-1.8799,1.6006-2.625,2.6172-.1104.1519-.2842.2403-.4649.2403-.0488,0-.0976-.0064-.1464-.0191l-2.6788-.7217c-.0498-.0131-.0996-.0195-.1494-.0195-.2265,0-.4375.1353-.5283.353l-1.168,2.8213c-.1103.2652-.0058.5713.2432.7149l2.4043,1.3842c.2061.1192.3125.3531.2764.5884-.1924,1.2456-.1836,2.4946.0049,3.7071.0371.2353-.0694.4692-.2764.5883l-2.4092,1.3877c-.249.1431-.3535.4492-.2432.7149l1.168,2.8203c.0908.2182.3018.3535.5283.3535.0498,0,.0996-.0064.1494-.02l2.6846-.7227c.0488-.0132.0977-.0195.1465-.0195.1816,0,.3545.0884.4658.2402.7237.9907,1.5996,1.8804,2.6162,2.625.1934.1406.2832.3814.2217.6114l-.7217,2.6792c-.0742.2773.0684.5673.334.6772l2.8203,1.1685c.0713.0297.1455.0439.2188.0439.1992,0,.3916-.1045.4961-.2871l1.3847-2.4043c.1036-.1797.294-.2832.4971-.2832.0303,0,.0606.0024.0908.0068.6114.0948,1.2227.1402,1.8301.1402.6318,0,1.2598-.0494,1.877-.1455.0312-.0049.0615-.0069.0918-.0069.2031,0,.3935.1035.497.2837l1.3877,2.4097c.1055.1821.2969.2866.4961.2866.0733,0,.1475-.0142.2188-.0435l2.8203-1.1684c.2656-.1099.4082-.3999.334-.6777l-.7227-2.6851c-.0625-.23.0274-.4707.2207-.6113.9902-.7242,1.8799-1.6006,2.625-2.6177.1104-.1514.2842-.2398.4649-.2398.0488,0,.0976.0064.1464.0191l2.6788.7217c.0498.0131.0996.0195.1494.0195.2256,0,.4375-.1353.5283-.3535l1.168-2.8208c.1103-.2652.0058-.5713-.2432-.7149ZM45,51.5625c-3.624,0-6.5625-2.938-6.5625-6.5625s2.9385-6.5625,6.5625-6.5625,6.5625,2.938,6.5625,6.5625-2.9385,6.5625-6.5625,6.5625Z" fill="url(#uuid-ef8bd164-6c4b-462c-90a5-f6192fd6e6ae)"/><circle cx="45" cy="45" r="4.5625" fill="#203b72"/></g></svg>