<?xml version="1.0" encoding="UTF-8"?><svg id="uuid-a6392f1d-53ee-4a2b-9ba8-51db6a1f73e8" xmlns="http://www.w3.org/2000/svg" xmlns:xlink="http://www.w3.org/1999/xlink" viewBox="0 0 60 60"><defs><linearGradient id="uuid-5f67f757-df86-4512-9ae0-7994ce10b53b" x1="4" y1="56" x2="7.4142" y2="52.5858" gradientUnits="userSpaceOnUse"><stop offset="0" stop-color="#a62b9f"/><stop offset="1" stop-color="#59c8fa"/></linearGradient><linearGradient id="uuid-89177f6c-658e-4729-ac15-6f5e92bcf5e3" x1="5.7574" y1="14.2426" x2="14.2426" y2="5.7574" xlink:href="#uuid-5f67f757-df86-4512-9ae0-7994ce10b53b"/><linearGradient id="uuid-bb13bbea-a0df-4435-aa88-673cbd85e395" x1="5.7574" y1="30.2426" x2="14.2426" y2="21.7574" xlink:href="#uuid-5f67f757-df86-4512-9ae0-7994ce10b53b"/><linearGradient id="uuid-5c1bca7c-f5d4-45bc-829e-ddfd8dab4ff3" x1="5.7574" y1="46.2426" x2="14.2426" y2="37.7574" xlink:href="#uuid-5f67f757-df86-4512-9ae0-7994ce10b53b"/><linearGradient id="uuid-673d6041-4d74-4140-abe1-b90a35cfa461" x1="34.5858" y1="59.4142" x2="59.4142" y2="34.5858" xlink:href="#uuid-5f67f757-df86-4512-9ae0-7994ce10b53b"/></defs><g id="uuid-c8d878d0-55aa-4be8-a26e-540e7f769dab"><path d="M44,0H2C.8955,0,0,.8955,0,2v50l8,8h36c1.1045,0,2-.8955,2-2V2c0-1.1045-.8955-2-2-2Z" fill="#203b72"/><path d="M6,52H0l8,8h0v-6c0-1.1045-.8955-2-2-2Z" fill="url(#uuid-5f67f757-df86-4512-9ae0-7994ce10b53b)"/><circle cx="10" cy="10" r="6" fill="url(#uuid-89177f6c-658e-4729-ac15-6f5e92bcf5e3)"/><circle cx="10" cy="26" r="6" fill="url(#uuid-bb13bbea-a0df-4435-aa88-673cbd85e395)"/><circle cx="10" cy="42" r="6" fill="url(#uuid-5c1bca7c-f5d4-45bc-829e-ddfd8dab4ff3)"/><path d="M39,8h-18c-.5527,0-1-.4473-1-1s.4473-1,1-1h18c.5527,0,1,.4473,1,1s-.4473,1-1,1Z" fill="#fff"/><path d="M30,14h-9c-.5527,0-1-.4473-1-1s.4473-1,1-1h9c.5527,0,1,.4473,1,1s-.4473,1-1,1Z" fill="#fff"/><path d="M39,24h-18c-.5527,0-1-.4473-1-1s.4473-1,1-1h18c.5527,0,1,.4473,1,1s-.4473,1-1,1Z" fill="#fff"/><path d="M32,30h-11c-.5527,0-1-.4473-1-1s.4473-1,1-1h11c.5527,0,1,.4473,1,1s-.4473,1-1,1Z" fill="#fff"/><path d="M28,40h-7c-.5527,0-1-.4473-1-1s.4473-1,1-1h7c.5527,0,1,.4473,1,1s-.4473,1-1,1Z" fill="#fff"/><path d="M28,46h-7c-.5527,0-1-.4473-1-1s.4473-1,1-1h7c.5527,0,1,.4473,1,1s-.4473,1-1,1Z" fill="#fff"/><path d="M10.5,13c-.2559,0-.5117-.0977-.707-.293l-3-3c-.3907-.3906-.3907-1.0234,0-1.414.3906-.3907,1.0234-.3907,1.414,0l2.293,2.2929,5.293-5.2929c.3906-.3907,1.0234-.3907,1.414,0,.3907.3906.3907,1.0234,0,1.414l-6,6c-.1953.1953-.4511.293-.707.293Z" fill="#fff"/><path d="M10.5,29c-.2559,0-.5117-.0977-.707-.293l-3-3c-.3907-.3906-.3907-1.0234,0-1.414.3906-.3907,1.0234-.3907,1.414,0l2.293,2.2929,5.293-5.2929c.3906-.3907,1.0234-.3907,1.414,0,.3907.3906.3907,1.0234,0,1.414l-6,6c-.1953.1953-.4511.293-.707.293Z" fill="#fff"/><path d="M12.5,45.5c-.2559,0-.5117-.0977-.707-.293l-5-5c-.3907-.3906-.3907-1.0234,0-1.414.3906-.3907,1.0234-.3907,1.414,0l5,5c.3907.3906.3907,1.0234,0,1.414-.1953.1953-.4511.293-.707.293Z" fill="#fff"/><path d="M7.5,45.5c-.2559,0-.5117-.0977-.707-.293-.3907-.3906-.3907-1.0234,0-1.414l5-5c.3906-.3907,1.0234-.3907,1.414,0,.3907.3906.3907,1.0234,0,1.414l-5,5c-.1953.1953-.4511.293-.707.293Z" fill="#fff"/><path d="M34,58v-22c0-1.1045.8955-2,2-2h10v-2h-10c-2.2061,0-4,1.7939-4,4v22c0,.7314.2119,1.4092.5566,2h3.4434c-1.1045,0-2-.8955-2-2Z" fill="#fff"/><rect x="34" y="34" width="26" height="26" rx="2" ry="2" fill="url(#uuid-673d6041-4d74-4140-abe1-b90a35cfa461)"/><polygon points="52 44 47 42 42 44 42 34 52 34 52 44" fill="#203b72"/></g></svg>