<?xml version="1.0" encoding="UTF-8"?><svg id="uuid-8bd7af3d-f12d-432e-b850-c4ac43c9d439" xmlns="http://www.w3.org/2000/svg" xmlns:xlink="http://www.w3.org/1999/xlink" viewBox="0 0 60 60"><defs><linearGradient id="uuid-9a04e185-cb47-4acd-9fe5-b486288dff45" x1="8.7868" y1="51.2131" x2="51.2131" y2="8.7869" gradientUnits="userSpaceOnUse"><stop offset="0" stop-color="#a62b9f"/><stop offset="1" stop-color="#59c8fa"/></linearGradient></defs><g id="uuid-c7a7b1d9-21f4-4823-b2fd-6514944ab2bc"><circle cx="30" cy="30" r="30" fill="url(#uuid-9a04e185-cb47-4acd-9fe5-b486288dff45)"/><rect x="6.55" y="25.8552" width="39.1891" height="14.0006" transform="translate(-15.5745 28.108) rotate(-44.9971)" fill="#fff"/><path d="M30,0C13.4316,0,0,13.4316,0,30s13.4316,30,30,30,30-13.4316,30-30S46.5684,0,30,0ZM30,52c-12.1309,0-22-9.8691-22-22S17.8691,8,30,8s22,9.8691,22,22-9.8691,22-22,22Z" fill="#203b72"/><polygon points="24 13 46 35 46 13 24 13" fill="#fff"/></g></svg>