<?xml version="1.0" encoding="UTF-8"?><svg id="uuid-d6c4ede0-524e-4f8a-891a-a8708cd7708e" xmlns="http://www.w3.org/2000/svg" xmlns:xlink="http://www.w3.org/1999/xlink" viewBox="0 0 60.0001 60"><defs><linearGradient id="uuid-a5151cca-4e2f-414a-ae11-e91d450ddc19" x1="15.6894" y1="13.9319" x2="34.3106" y2="-4.6894" gradientUnits="userSpaceOnUse"><stop offset="0" stop-color="#a62b9f"/><stop offset="1" stop-color="#59c8fa"/></linearGradient><linearGradient id="uuid-49ef4da6-7854-4512-9550-cae41322f894" x1="10" y1="50" x2="14" y2="46" xlink:href="#uuid-a5151cca-4e2f-414a-ae11-e91d450ddc19"/><linearGradient id="uuid-e53372af-1ce4-41cc-af62-e728da930efe" x1="45.3933" y1="51.0505" x2="51.0505" y2="45.3933" xlink:href="#uuid-a5151cca-4e2f-414a-ae11-e91d450ddc19"/><linearGradient id="uuid-0e7b6dcc-fa5f-43bd-8fd6-b167befeff10" x1="26.1005" y1="45.8995" x2="45.8995" y2="26.1005" xlink:href="#uuid-a5151cca-4e2f-414a-ae11-e91d450ddc19"/></defs><g id="uuid-d33907d3-8380-4656-9b76-e1d6391a22a1"><path d="M47,0H3C1.3433,0,0,1.3433,0,3v54c0,1.6567,1.3433,3,3,3h44c1.6567,0,3-1.3433,3-3V3c0-1.6567-1.3433-3-3-3Z" fill="#203b72"/><path d="M6,6h38v48H14l-8-8V6Z" fill="#fff"/><path d="M11,0v8c0,1.6567,1.3433,3,3,3h22c1.6567,0,3-1.3433,3-3V0H11ZM37,8c0,.5513-.4487,1-1,1H14c-.5513,0-1-.4487-1-1V2h24v6Z" fill="url(#uuid-a5151cca-4e2f-414a-ae11-e91d450ddc19)"/><polygon points="14 54 6 46 14 46 14 54" fill="url(#uuid-49ef4da6-7854-4512-9550-cae41322f894)"/><path d="M58.8286,53.1714l-15.5566-15.5562c-.7808-.7812-1.8047-1.1714-2.8282-1.1714s-2.0478.3902-2.8286,1.1714c-1.562,1.562-1.562,4.0948,0,5.6568l15.5562,15.5566c.7812.7808,1.8047,1.1714,2.8286,1.1714,1.0234,0,2.0474-.3906,2.8286-1.1714,1.562-1.5625,1.562-4.0952,0-5.6572Z" fill="url(#uuid-e53372af-1ce4-41cc-af62-e728da930efe)"/><path d="M50,55.6567l-12.3848-12.3847c-1.562-1.562-1.562-4.0948,0-5.6568.7808-.7812,1.8047-1.1714,2.8286-1.1714s2.0474.3902,2.8282,1.1714l6.728,6.7281v-2.8287l-5.3135-5.3134c-1.1333-1.1333-2.6401-1.7574-4.2427-1.7574s-3.1093.6241-4.2426,1.7569c-2.3394,2.3398-2.3394,6.146,0,8.4858l13.5342,13.5342c.1669-.3735.2646-.7852.2646-1.2207v-1.3433Z" fill="#fff"/><circle cx="36" cy="36" r="14" fill="url(#uuid-0e7b6dcc-fa5f-43bd-8fd6-b167befeff10)"/><path d="M27.3848,37.0771c-.5948,0-1.0772-.4824-1.0772-1.0771,0-5.3442,4.3482-9.6924,9.6924-9.6924.5947,0,1.0771.4824,1.0771,1.0772s-.4824,1.0771-1.0771,1.0771c-4.1567,0-7.5381,3.3814-7.5381,7.5381,0,.5947-.4824,1.0771-1.0771,1.0771Z" fill="#fff"/><path d="M36,50c-7.7319,0-14-6.2681-14-14s6.2681-14,14-14,14,6.2681,14,14v-7.729c-2.7305-4.9258-7.98-8.271-14-8.271-8.8223,0-16,7.1777-16,16s7.1777,16,16,16c6.02,0,11.2695-3.3452,14-8.271v-7.729c0,7.7319-6.2681,14-14,14Z" fill="#fff"/></g></svg>