<?xml version="1.0" encoding="UTF-8"?><svg id="uuid-2ecc3d6b-8222-4f6b-9776-4252ea89e9b9" xmlns="http://www.w3.org/2000/svg" xmlns:xlink="http://www.w3.org/1999/xlink" viewBox="0 0 60.0001 60"><defs><linearGradient id="uuid-e135331a-cf07-4762-876f-41f1fb879780" x1="15.6893" y1="13.9322" x2="34.3107" y2="-4.6893" gradientUnits="userSpaceOnUse"><stop offset="0" stop-color="#a62b9f"/><stop offset="1" stop-color="#59c8fa"/></linearGradient><linearGradient id="uuid-4db38108-ae26-44a1-be8a-ced8a397b5b7" x1="10" y1="50" x2="14" y2="46" xlink:href="#uuid-e135331a-cf07-4762-876f-41f1fb879780"/><linearGradient id="uuid-1cceab3c-57a5-414d-bb12-a39970c4b95d" x1="29.2719" y1="54.7281" x2="54.728" y2="29.272" xlink:href="#uuid-e135331a-cf07-4762-876f-41f1fb879780"/></defs><g id="uuid-5a475df8-bec8-406d-987c-664a9e7eeaf7"><path d="M42.0293,58.6074c-.5518,0-1.1084-.0283-1.6631-.084l-.8506,1.4766h4.9678l-.8467-1.4717c-.5342.0528-1.0713.0791-1.6074.0791Z" fill="#203b72"/><path d="M47.1885,24c-.2393,0-.4688.125-.5947.3438l-1.6651,2.8916c-.124.2158-.3525.3408-.5957.3408-.0371,0-.0742-.003-.1103-.0088-.7422-.1153-1.4942-.1748-2.252-.1748-.7295,0-1.4639.0556-2.1963.1689-.0371.0049-.0742.0078-.1103.0078-.2432,0-.4717-.124-.5957-.3398l-1.6621-2.8848c-.125-.2187-.3555-.3447-.5948-.3447-.0879,0-.1767.0176-.2627.0527l-3.3847,1.4024c-.3194.1318-.4903.4795-.4004.8125l.8652,3.2148c.0742.2764-.0342.5645-.2646.7334-1.2207.8946-2.2725,1.9619-3.1407,3.1504-.1338.1826-.3418.2881-.5586.2881-.0586,0-.1171-.0078-.1757-.0234l-3.2217-.8672c-.0596-.0157-.1201-.0235-.1797-.0235-.2715,0-.5254.1621-.6338.4239l-1.4014,3.3847c-.1328.3184-.0078.6856.2911.8575l2.8916,1.665c.249.1426.3759.4238.332.706-.2266,1.4551-.2373,2.9541-.0059,4.4483.043.2832-.084.5635-.332.706l-2.8857,1.6622c-.2989.1718-.4229.539-.2911.8574l1.4024,3.3847c.1084.2618.3623.4248.6338.4248.0586,0,.1191-.0078.1787-.0244l3.2148-.8652c.0586-.0156.1172-.0234.1748-.0234.2178,0,.4258.1064.5586.288.8936,1.2207,1.9619,2.2725,3.1504,3.1407.2315.1689.3389.458.2647.7343l-.8672,3.2217c-.0899.333.081.6817.4004.8135l3.3847,1.4014c.085.0361.1748.0527.2617.0527.2403,0,.4698-.126.5958-.3437l1.665-2.8917c.124-.2158.3525-.3408.5957-.3408.0371,0,.0732.003.1103.0088.7422.1153,1.4942.1748,2.252.1748.7295,0,1.4639-.0556,2.1963-.1689.0371-.0049.0732-.0078.1103-.0078.2432,0,.4717.124.5957.3398l1.6622,2.8858c.1162.2011.3242.3125.5429.33.083-.0039.1631-.0146.2442-.0244.0234-.0068.0468-.0049.0703-.0146l1.3427-.5557c.7286-.5478,1.2061-1.4102,1.2061-2.3916v-31.8916l-2.5488-1.0557c-.086-.0361-.1748-.0527-.2627-.0527Z" fill="#203b72"/><path d="M30.832,57.2129l.6397-2.374c-.8506-.6944-1.625-1.4668-2.3164-2.3086l-2.3672.6377c-.2285.0615-.4639.0927-.6992.0927-1.0909,0-2.0645-.6513-2.4825-1.6591l-1.4013-3.3848c-.5147-1.2432-.0244-2.6855,1.1406-3.3564l2.126-1.2237c-.1065-1.0849-.1055-2.1787.0049-3.2705l-2.1309-1.2266c-1.165-.6708-1.6553-2.1142-1.1406-3.3564l1.4013-3.3848c.418-1.0078,1.3916-1.6582,2.4815-1.6582.2363,0,.4717.0313.6992.0918l2.374.6397c.6944-.8496,1.4668-1.625,2.3086-2.3164l-.6377-2.3682c-.3496-1.2978.3243-2.666,1.5664-3.1797l3.3848-1.4023c.3281-.1358.6738-.2051,1.0283-.2051.958,0,1.8506.5166,2.3281,1.3467l1.2237,2.125c.5342-.0528,1.0713-.0791,1.6074-.0791.5518,0,1.1084.0283,1.6631.084l1.2266-2.1309c.4785-.8301,1.3701-1.3457,2.3281-1.3457h.001c.3535,0,.7001.0693,1.0273.2051l1.7832.7383V3c0-1.6572-1.3428-3-3-3H3C1.3428,0,0,1.3428,0,3v54c0,1.6572,1.3428,3,3,3h28.7549c-.8125-.6533-1.2051-1.7383-.9229-2.7871Z" fill="#203b72"/><path d="M36.5488,59.9473l-3.3847-1.4014c-.3194-.1318-.4903-.4805-.4004-.8135l.8672-3.2217c.0742-.2763-.0332-.5654-.2647-.7343-1.1885-.8682-2.2568-1.92-3.1504-3.1407-.1328-.1816-.3408-.288-.5586-.288-.0576,0-.1162.0078-.1748.0234l-3.2148.8652c-.0596.0166-.1201.0244-.1787.0244-.2715,0-.5254-.163-.6338-.4248l-1.4024-3.3847c-.1318-.3184-.0078-.6856.2911-.8574l2.8857-1.6622c.248-.1425.375-.4228.332-.706-.2314-1.4942-.2207-2.9932.0059-4.4483.0439-.2822-.083-.5634-.332-.706l-2.8916-1.665c-.2989-.1719-.4239-.5391-.2911-.8575l1.4014-3.3847c.1084-.2618.3623-.4239.6338-.4239.0596,0,.1201.0078.1797.0235l3.2217.8672c.0586.0156.1171.0234.1757.0234.2168,0,.4248-.1055.5586-.2881.8682-1.1885,1.92-2.2558,3.1407-3.1504.2304-.1689.3388-.457.2646-.7334l-.8652-3.2148c-.0899-.333.081-.6807.4004-.8125l3.3847-1.4024c.086-.0351.1748-.0527.2627-.0527.2393,0,.4698.126.5948.3447l1.6621,2.8848c.124.2158.3525.3398.5957.3398.0361,0,.0732-.0029.1103-.0078.7324-.1133,1.4668-.1689,2.1963-.1689.7578,0,1.5098.0595,2.252.1748.0361.0058.0732.0088.1103.0088.2432,0,.4717-.125.5957-.3408l1.6651-2.8916c.1259-.2188.3554-.3438.5947-.3438.0879,0,.1767.0166.2627.0527l2.5488,1.0557v-2.165l-1.7832-.7383c-.3272-.1358-.6738-.2051-1.0273-.2051h-.001c-.958,0-1.8496.5156-2.3281,1.3457l-1.2266,2.1309c-.5547-.0557-1.1113-.084-1.6631-.084-.5361,0-1.0732.0263-1.6074.0791l-1.2237-2.125c-.4775-.8301-1.3701-1.3467-2.3281-1.3467-.3545,0-.7002.0693-1.0283.2051l-3.3848,1.4023c-1.2421.5137-1.916,1.8819-1.5664,3.1797l.6377,2.3682c-.8418.6914-1.6142,1.4668-2.3086,2.3164l-2.374-.6397c-.2275-.0605-.4629-.0918-.6992-.0918-1.0899,0-2.0635.6504-2.4815,1.6582l-1.4013,3.3848c-.5147,1.2422-.0244,2.6856,1.1406,3.3564l2.1309,1.2266c-.1104,1.0918-.1114,2.1856-.0049,3.2705l-2.126,1.2237c-1.165.6709-1.6553,2.1132-1.1406,3.3564l1.4013,3.3848c.418,1.0078,1.3916,1.6591,2.4825,1.6591.2353,0,.4707-.0312.6992-.0927l2.3672-.6377c.6914.8418,1.4658,1.6142,2.3164,2.3086l-.6397,2.374c-.2822,1.0488.1104,2.1338.9229,2.7871h5.0556c-.0869,0-.1767-.0166-.2617-.0527Z" fill="#fff"/><path d="M47.1367,59.9863c-.2187-.0175-.4267-.1289-.5429-.33l-1.6622-2.8858c-.124-.2158-.3525-.3398-.5957-.3398-.0371,0-.0732.0029-.1103.0078-.7324.1133-1.4668.1689-2.1963.1689-.7578,0-1.5098-.0595-2.252-.1748-.0371-.0058-.0732-.0088-.1103-.0088-.2432,0-.4717.125-.5957.3408l-1.665,2.8917c-.126.2177-.3555.3437-.5958.3437h2.7051l.8506-1.4766c.5547.0557,1.1113.084,1.6631.084.5361,0,1.0732-.0263,1.6074-.0791l.8467,1.4717h2.5166c.0469,0,.0908-.0117.1367-.0137Z" fill="#fff"/><path d="M6,6h38v48H14l-8-8V6Z" fill="#fff"/><path d="M11,0v8c0,1.6572,1.3428,3,3,3h22c1.6572,0,3-1.3428,3-3V0H11ZM37,8c0,.5518-.4482,1-1,1H14c-.5518,0-1-.4482-1-1V2h24v6Z" fill="url(#uuid-e135331a-cf07-4762-876f-41f1fb879780)"/><polygon points="14 54 6 46 14 46 14 54" fill="url(#uuid-4db38108-ae26-44a1-be8a-ced8a397b5b7)"/><path d="M59.6563,46.5938l-2.8926-1.6651c-.2481-.1426-.375-.4238-.3311-.706.2256-1.4551.2373-2.9541.0059-4.4483-.043-.2832.084-.5635.332-.706l2.8858-1.6621c.2988-.1719.4228-.5391.291-.8575l-1.4024-3.3847c-.1084-.2618-.3623-.4239-.6338-.4239-.0595,0-.1191.0069-.1787.0235l-3.2148.8652c-.0586.0156-.1172.0234-.1748.0234-.2178,0-.4258-.1064-.5586-.288-.8946-1.2207-1.9619-2.2725-3.1504-3.1407-.2315-.1689-.3389-.458-.2647-.7343l.8672-3.2217c.0899-.334-.082-.6817-.4004-.8135l-3.3847-1.4014c-.086-.0361-.1748-.0527-.2627-.0527-.2393,0-.4688.125-.5947.3438l-1.6651,2.8916c-.124.2158-.3525.3408-.5957.3408-.0371,0-.0742-.003-.1103-.0088-.7422-.1153-1.4942-.1748-2.252-.1748-.7295,0-1.4639.0556-2.1963.1689-.0371.0049-.0742.0078-.1103.0078-.2432,0-.4717-.124-.5957-.3398l-1.6621-2.8848c-.125-.2187-.3555-.3447-.5948-.3447-.0879,0-.1767.0176-.2627.0527l-3.3847,1.4024c-.3194.1318-.4903.4795-.4004.8125l.8652,3.2148c.0742.2764-.0342.5645-.2646.7334-1.2207.8946-2.2725,1.9619-3.1407,3.1504-.1338.1826-.3418.2881-.5586.2881-.0586,0-.1171-.0078-.1757-.0234l-3.2217-.8672c-.0596-.0157-.1201-.0235-.1797-.0235-.2715,0-.5254.1621-.6338.4239l-1.4014,3.3847c-.1328.3184-.0078.6856.2911.8575l2.8916,1.665c.249.1426.3759.4238.332.706-.2266,1.4551-.2373,2.9541-.0059,4.4483.043.2832-.084.5635-.332.706l-2.8857,1.6622c-.2989.1718-.4229.539-.2911.8574l1.4024,3.3847c.1084.2618.3623.4248.6338.4248.0586,0,.1191-.0078.1787-.0244l3.2148-.8652c.0586-.0156.1172-.0234.1748-.0234.2178,0,.4258.1064.5586.288.8936,1.2207,1.9619,2.2725,3.1504,3.1407.2315.1689.3389.458.2647.7343l-.8672,3.2217c-.0899.333.081.6817.4004.8135l3.3847,1.4014c.085.0361.1748.0527.2617.0527.2403,0,.4698-.126.5958-.3437l1.665-2.8917c.124-.2158.3525-.3408.5957-.3408.0371,0,.0732.003.1103.0088.7422.1153,1.4942.1748,2.252.1748.7295,0,1.4639-.0556,2.1963-.1689.0371-.0049.0732-.0078.1103-.0078.2432,0,.4717.124.5957.3398l1.6622,2.8858c.125.2177.3554.3437.5947.3437.0879,0,.1767-.0166.2627-.0527l3.3847-1.4024c.3194-.1318.4903-.4795.4004-.8125l-.8652-3.2148c-.0742-.2764.0342-.5645.2646-.7334,1.2207-.8946,2.2725-1.9619,3.1407-3.1504.1338-.1826.3408-.2881.5586-.2881.0586,0,.1171.0078.1757.0234l3.2217.8672c.0596.0157.1201.0235.1787.0235.2725,0,.5264-.1621.6348-.4239l1.4014-3.3847c.1328-.3184.0078-.6856-.291-.8574ZM42,51c-4.9707,0-9-4.0293-9-9s4.0293-9,9-9,9,4.0293,9,9-4.0293,9-9,9Z" fill="url(#uuid-1cceab3c-57a5-414d-bb12-a39970c4b95d)"/><path d="M42,33c-4.9707,0-9,4.0293-9,9s4.0293,9,9,9,9-4.0293,9-9-4.0293-9-9-9ZM42,49c-3.8604,0-7-3.1406-7-7s3.1396-7,7-7,7,3.1406,7,7-3.1406,7-7,7Z" fill="#fff"/></g></svg>