<?xml version="1.0" encoding="UTF-8"?><svg id="uuid-0a038323-1a4b-4106-b820-cf106c189bd4" xmlns="http://www.w3.org/2000/svg" xmlns:xlink="http://www.w3.org/1999/xlink" viewBox="0 0 50 60"><defs><linearGradient id="uuid-ea8a9139-ce4b-438a-a709-f55867de1001" x1="15.6893" y1="13.932" x2="34.3107" y2="-4.6893" gradientUnits="userSpaceOnUse"><stop offset="0" stop-color="#a62b9f"/><stop offset="1" stop-color="#59c8fa"/></linearGradient><linearGradient id="uuid-12d5dc8f-c9dc-479c-bdfe-5b6c2c875610" x1="16.2002" y1="37.8321" x2="33.7998" y2="20.2324" xlink:href="#uuid-ea8a9139-ce4b-438a-a709-f55867de1001"/><linearGradient id="uuid-2d3302fd-5d91-4336-a2b9-eac81684c2e1" x1="34" y1="52" x2="42" y2="44" xlink:href="#uuid-ea8a9139-ce4b-438a-a709-f55867de1001"/></defs><g id="uuid-2b0b100f-9674-4a14-b643-d4d05675d65a"><path d="M47,0H3C1.3428,0,0,1.3433,0,3v54c0,1.6567,1.3428,3,3,3h44c1.6572,0,3-1.3433,3-3V3c0-1.6567-1.3428-3-3-3Z" fill="#203b72"/><path d="M44,6H6v48h30l8-8V6Z" fill="#fff"/><path d="M11,0v8c0,1.6567,1.3428,3,3,3h22c1.6572,0,3-1.3433,3-3V0H11ZM37,8c0,.5513-.4482,1-1,1H14c-.5518,0-1-.4487-1-1V2h24v6Z" fill="url(#uuid-ea8a9139-ce4b-438a-a709-f55867de1001)"/><path d="M21.9355,42.5322c-.6396,0-1.2792-.2441-1.7675-.7324l-7.9356-7.9355c-.9765-.9761-.9765-2.5591,0-3.5352.9766-.9766,2.5586-.9766,3.5352,0l6.1679,6.1675,12.2969-12.2964c.9766-.9766,2.5586-.9766,3.5352,0,.9765.9761.9765,2.5591,0,3.5352l-14.0645,14.0644c-.4883.4883-1.1279.7324-1.7676.7324Z" fill="url(#uuid-12d5dc8f-c9dc-479c-bdfe-5b6c2c875610)"/><polygon points="36 54 44 46 36 46 36 54" fill="url(#uuid-2d3302fd-5d91-4336-a2b9-eac81684c2e1)"/></g></svg>