<?xml version="1.0" encoding="UTF-8"?>
<svg id="Layer_1" xmlns="http://www.w3.org/2000/svg" xmlns:xlink="http://www.w3.org/1999/xlink" version="1.1" viewBox="0 0 1346.7 946.7">
  <!-- Generator: Adobe Illustrator 30.1.0, SVG Export Plug-In . SVG Version: 2.1.1 Build 136)  -->
  <defs>
    <style>
      .st0 {
        fill: #c031c4;
      }

      .st1 {
        fill: #022f5b;
      }

      .st2 {
        isolation: isolate;
      }

      .st3 {
        fill: #2d426f;
      }

      .st4 {
        fill: #fff;
      }

      .st5 {
        opacity: .6;
      }

      .st6 {
        fill: #d7e3fd;
      }
    </style>
  </defs>
  <g class="st5">
    <image class="st2" width="2227" height="554" transform="translate(208.7 624.5) scale(.5)" xlink:href="Compass Logo-1.png"/>
  </g>
  <g>
    <g>
      <path class="st6" d="M173.3,372.2C312.2,181.1,615.2,46.2,850.1,70.9c114.7,12.1,191.9,59.9,224.8,128,18.7,38.7,36.2,78,52.4,117.8,28.6,70,12.5,159.4-55.3,252.6-138.8,191.1-441.9,326-676.8,301.3-114.7-12-191.9-59.9-224.8-128-18.7-38.7-36.2-78-52.4-117.8-28.6-70-12.5-159.4,55.3-252.6h0Z"/>
      <path class="st3" d="M770.5,802.6c-122.9,54.7-257.8,82.4-375.4,70.1-111.4-11.7-191.9-57.6-226.4-129.1-18.6-38.6-36.3-78.2-52.5-117.9-30.1-73.6-10.3-164,55.5-254.7l1.7,1.2-1.7-1.2C310.6,179.6,615.1,44,850.3,68.8c111.4,11.7,191.8,57.6,226.4,129.1,18.6,38.6,36.3,78.2,52.5,117.9,30.1,73.6,10.3,164-55.5,254.7-69.5,95.7-180.4,177.4-303.3,232.1h.1ZM476.6,142.6c-122.2,54.4-232.4,135.7-301.6,230.8-65,89.4-84.5,178.4-55.1,250.6,16.2,39.6,33.8,79.2,52.4,117.7,33.9,70.2,113.2,115.2,223.1,126.8,116.9,12.3,251.1-15.3,373.3-69.7s232.4-135.7,301.6-230.8c65-89.4,84.5-178.4,55.1-250.6-16.2-39.6-33.8-79.1-52.4-117.6-33.9-70.2-113.2-115.2-223.1-126.8-117-12.3-251.1,15.3-373.3,69.7h0Z"/>
    </g>
    <g>
      <path class="st4" d="M173.3,372.2c-138.9,191.1-61,366.1,174,390.8,234.9,24.7,538-110.2,676.8-301.3,138.9-191.1,61-366.1-174-390.8-234.9-24.7-538,110.2-676.8,301.3h0Z"/>
      <path class="st3" d="M722.5,695c-122.9,54.7-257.8,82.4-375.4,70.1-114.4-12-195.7-59.7-228.9-134.2s-14.2-166.8,53.4-259.9h0C310.6,179.6,615.1,44,850.3,68.8c114.4,12,195.7,59.7,228.9,134.2s14.2,166.8-53.4,259.9c-69.5,95.7-180.4,177.4-303.3,232.1h0ZM173.3,372.2l1.7,1.2c-66.7,91.8-85.5,182.6-53,255.7,32.5,73.1,112.6,119.9,225.5,131.7,233.9,24.6,536.6-110.2,674.9-300.5,66.7-91.8,85.5-182.6,53-255.7s-112.6-119.9-225.5-131.7c-233.9-24.6-536.6,110.2-674.9,300.5l-1.7-1.2h0Z"/>
    </g>
    <g>
      <g>
        <g>
          <path class="st6" d="M833.1,107.6c-214.5-17-494.6,107.7-625.6,278.5-130.9,170.8-63.2,323,151.4,340,214.5,17,494.6-107.7,625.6-278.5,130.9-170.8,63.2-323-151.4-340h0Z"/>
          <path class="st3" d="M703.9,659.1c-113.6,50.6-237.7,77.7-345.1,69.2-104.6-8.3-178.1-48.6-207-113.6s-9.7-146.6,54.1-229.8C337,213.8,618.5,88.5,833.3,105.5h0c104.6,8.3,178.1,48.6,207,113.6s9.7,146.6-54.1,229.8c-65.6,85.5-168.7,159.6-282.3,210.2h0ZM489.9,178.5c-112.9,50.3-215.5,123.9-280.6,208.9-62.8,82-81.9,162.1-53.6,225.5,28.3,63.5,100.5,102.9,203.5,111.1,213.6,16.9,493.4-107.7,623.7-277.7,62.8-82,81.9-162.1,53.6-225.5s-100.5-102.9-203.5-111.1h0c-106.8-8.4-230.1,18.5-343.1,68.8h0Z"/>
        </g>
        <g>
          <path class="st4" d="M820.3,161.9c-193.4-15.3-445.8,97.1-563.8,251s-56.9,291.1,136.4,306.4c193.4,15.3,445.8-97.1,563.8-251,118-153.9,56.9-291.1-136.4-306.4h0Z"/>
          <path class="st3" d="M703.9,659.1c-102.4,45.6-214.3,70-311.1,62.3-94.3-7.5-160.7-43.9-186.8-102.5s-8.8-132.3,48.8-207.4c118.2-154.2,372-267.2,565.7-251.9,94.3,7.5,160.7,43.9,186.8,102.5,26.1,58.6,8.8,132.3-48.8,207.4-59.1,77.1-152.1,143.9-254.5,189.5h0ZM511,225.9c-101.8,45.3-194.1,111.7-252.9,188.3-56.6,73.8-73.8,145.9-48.3,203.1,25.4,57.1,90.5,92.7,183.2,100,192.4,15.2,444.5-97,562-250.2,56.6-73.8,73.7-145.9,48.3-203.1-25.4-57.1-90.5-92.6-183.2-100h0c-96.2-7.6-207.3,16.6-309.1,61.9h0Z"/>
        </g>
        <g>
          <polygon class="st3" points="616.7 413.2 777.6 191.7 783.7 192.3 622.8 413.8 617.9 416 616.7 413.2"/>
          <polygon class="st3" points="622.8 413.8 926.7 278.5 927.7 280.5 623.7 415.9 621.4 415.6 622.8 413.8"/>
          <polygon class="st3" points="613.1 414.8 534.9 239.2 538.5 237.7 616.7 413.2 615.3 415 613.1 414.8"/>
          <polygon class="st3" points="609.5 419.7 305.2 387.8 308.8 382.8 613.1 414.8 614.3 417.6 609.5 419.7"/>
          <polygon class="st3" points="620.1 420.9 698.2 596.4 694.6 598 616.5 422.4 617.8 420.6 620.1 420.9"/>
          <polygon class="st3" points="305.5 555.1 609.5 419.7 611.7 420 610.4 421.8 306.4 557.1 305.5 555.1"/>
          <polygon class="st3" points="616.5 422.4 455.6 643.9 449.5 643.3 610.4 421.8 615.2 419.6 616.5 422.4"/>
          <polygon class="st3" points="623.7 415.9 939.9 449 936.3 454 620.1 420.9 618.8 418 623.7 415.9"/>
        </g>
      </g>
      <g>
        <g>
          <path class="st3" d="M467,518.1l98.3-20.9c5.9-1.2,10.7-3.6,14.1-6.8l222.8-212.7c2.1-2-3.4-5.6-6.3-4.1l-304.1,160.3c-4.6,2.4-7.8,5.8-9.4,9.8l-26.2,67.3c-1.4,3.6,5.6,8.1,10.8,7h0Z"/>
          <path class="st1" d="M573.4,496.9c-2.3,1-4.8,1.8-7.6,2.4l-98.3,20.8c-4.5.9-9.5-1.4-11.9-4.1-1.5-1.8-2-3.8-1.3-5.7l26.2-67.3c1.8-4.5,5.3-8.3,10.4-10.9l304.1-160.3c3.2-1.7,7.3,0,9.1,2.5,1.2,1.7,1.1,3.6-.3,5l-222.8,212.7c-2,1.9-4.6,3.6-7.5,4.9h-.1ZM466.6,516l98.3-20.9c5.5-1.1,10-3.3,13.1-6.2l222.4-212.3c-.3-.3-.8-.7-1.5-.9-.8-.3-1.6-.4-1.9-.1l-304,160.3c-4.1,2.2-7,5.2-8.4,8.7l-26.2,67.3c-.2.5.4,1.2.6,1.4,1.5,1.8,5.1,3.3,7.8,2.7h-.2Z"/>
        </g>
        <g>
          <path class="st0" d="M651,422.2l151.2-144.4c2.1-2-3.4-5.6-6.3-4.1l-187.2,98.7-2.8,7.9c-7.6,21.4,9,43.7,31.6,42.5l13.5-.7h0Z"/>
          <path class="st3" d="M651.8,424.2l-14.3.7c-11.4.6-22.2-4.5-29-13.6s-8.6-21-4.7-31.7l3.1-8.7.7-.4,187.2-98.7c3.2-1.7,7.3,0,9.1,2.5,1.2,1.7,1.1,3.6-.3,5l-151.8,144.9h0ZM610.4,373.9l-2.5,7.1c-3.3,9.4-1.8,19.8,4.2,27.8s15.4,12.5,25.4,12l12.7-.7,150.3-143.5c-.3-.3-.8-.7-1.5-.9-.8-.3-1.6-.4-1.9-.1l-186.5,98.3h-.2Z"/>
        </g>
      </g>
    </g>
  </g>
</svg>