<?xml version="1.0" encoding="UTF-8"?><svg id="uuid-c2e7578d-9b34-4067-b543-37b5739f5fc4" xmlns="http://www.w3.org/2000/svg" xmlns:xlink="http://www.w3.org/1999/xlink" viewBox="0 0 146.959 146.959"><defs><linearGradient id="uuid-2ce83e1a-a2a8-4a16-ad68-d77d1220b116" x1="37.8877" y1="85.1851" x2="85.6572" y2="85.1851" gradientUnits="userSpaceOnUse"><stop offset="0" stop-color="#a62b9f"/><stop offset="1" stop-color="#59c8fa"/></linearGradient></defs><g id="uuid-e65ebc93-6776-46bf-be88-0c6605484d3f"><circle cx="73.4795" cy="73.4795" r="68.8872" fill="#fff"/><path d="M73.4795,0C32.8989,0,0,32.8975,0,73.4795s32.8989,73.4795,73.4795,73.4795,73.4795-32.9009,73.4795-73.4795S114.0625,0,73.4795,0ZM81.3545,134.9634l-3.4952-11.0747c-1.351-4.2783-7.4072-4.2783-8.7587,0l-3.4952,11.0747c-27.9389-3.5488-50.0644-25.6714-53.6074-53.6118l11.0689-3.4951c4.2783-1.3486,4.2783-7.4092,0-8.7573l-11.0689-3.4952c3.543-27.9409,25.6685-50.0659,53.6074-53.6118l3.4952,11.0747c1.3515,4.2784,7.4077,4.2784,8.7587,0l3.4952-11.0747c27.9394,3.5459,50.0659,25.6709,53.6088,53.6118l-11.0683,3.4952c-4.2803,1.3481-4.2803,7.4087,0,8.7573l11.0683,3.4951c-3.5429,27.9404-25.6694,50.063-53.6088,53.6118Z" fill="#002b49"/><polygon points="61.3032 61.2989 37.8877 109.0713 85.6572 85.6573 61.3032 61.2989" fill="url(#uuid-2ce83e1a-a2a8-4a16-ad68-d77d1220b116)"/><path d="M73.4804,67.7359c-3.1645,0-5.7402,2.5771-5.7402,5.7407,0,3.166,2.5757,5.7402,5.7402,5.7402s5.7408-2.5742,5.7408-5.7402c0-3.1636-2.5757-5.7407-5.7408-5.7407Z" fill="#d5d7fd"/><path d="M61.3032,61.2989l4.875,4.8759c-1.8716,1.8692-3.0308,4.4522-3.0308,7.3018,0,5.6982,4.6363,10.333,10.333,10.333,2.8482,0,5.4317-1.1572,7.3033-3.0293l4.8735,4.877,23.4141-47.7696-47.7681,23.4112ZM73.4804,79.2168c-3.1645,0-5.7402-2.5742-5.7402-5.7402,0-1.5786.644-3.0142,1.6836-4.0547,1.0386-1.0405,2.4741-1.686,4.0566-1.686,3.1651,0,5.7408,2.5771,5.7408,5.7407,0,1.5815-.6441,3.0166-1.6831,4.0571-1.0391,1.0401-2.4742,1.6831-4.0577,1.6831Z" fill="#002b49"/></g></svg>