<?xml version="1.0" encoding="UTF-8"?><svg id="uuid-b67a3765-7d16-4a42-9764-28e57204840b" xmlns="http://www.w3.org/2000/svg" xmlns:xlink="http://www.w3.org/1999/xlink" viewBox="0 0 60 60"><defs><linearGradient id="uuid-f3ea5029-be90-4c60-b13e-89fbcf3eb8f6" x1="20.8076" y1="39.1924" x2="39.1924" y2="20.8076" gradientUnits="userSpaceOnUse"><stop offset="0" stop-color="#a62b9f"/><stop offset="1" stop-color="#59c8fa"/></linearGradient></defs><g id="uuid-62a109f6-a318-407f-a3d7-e0935e2cb29e"><path d="M30,43h0c-7.1797,0-13-5.8203-13-13h0c0-7.1797,5.8203-13,13-13h0c7.1797,0,13,5.8203,13,13h0c0,7.1797-5.8203,13-13,13Z" fill="url(#uuid-f3ea5029-be90-4c60-b13e-89fbcf3eb8f6)"/><path d="M22,31.5c-.8281,0-1.5-.6714-1.5-1.5,0-5.2383,4.2617-9.5,9.5-9.5.8281,0,1.5.6714,1.5,1.5s-.6719,1.5-1.5,1.5c-3.584,0-6.5,2.916-6.5,6.5,0,.8286-.6719,1.5-1.5,1.5Z" fill="#fff"/><path d="M30,14.3794c-.8281,0-1.5-.6714-1.5-1.5V4.0103c0-.8287.6719-1.5,1.5-1.5s1.5.6713,1.5,1.5v8.8691c0,.8286-.6719,1.5-1.5,1.5Z" fill="#203b72"/><polygon points="30 0 24.9873 6.0156 35.0127 6.0156 30 0" fill="#203b72"/><path d="M30,57.4897c-.8281,0-1.5-.6713-1.5-1.5v-8.8691c0-.8286.6719-1.5,1.5-1.5s1.5.6714,1.5,1.5v8.8691c0,.8287-.6719,1.5-1.5,1.5Z" fill="#203b72"/><polygon points="30 60 35.0127 53.9844 24.9873 53.9844 30 60" fill="#203b72"/><path d="M12.8789,31.5H4.0107c-.8281,0-1.5-.6714-1.5-1.5s.6719-1.5,1.5-1.5h8.8682c.8281,0,1.5.6714,1.5,1.5s-.6719,1.5-1.5,1.5Z" fill="#203b72"/><polygon points="0 30 6.0156 35.0127 6.0156 24.9873 0 30" fill="#203b72"/><path d="M55.9893,31.5h-8.8682c-.8281,0-1.5-.6714-1.5-1.5s.6719-1.5,1.5-1.5h8.8682c.8281,0,1.5.6714,1.5,1.5s-.6719,1.5-1.5,1.5Z" fill="#203b72"/><polygon points="60 30 53.9844 24.9873 53.9844 35.0127 60 30" fill="#203b72"/><path d="M11.6221,49.8774c-.3838,0-.7676-.1464-1.0606-.4394-.5859-.5859-.5859-1.5357,0-2.1211l6.2715-6.271c.5859-.5859,1.5352-.5859,2.1211,0,.5859.5859.5859,1.5356,0,2.1211l-6.2715,6.271c-.293.293-.6767.4394-1.0605.4394Z" fill="#203b72"/><polygon points="8.7871 51.2134 16.585 50.5044 9.4961 43.415 8.7871 51.2134" fill="#203b72"/><path d="M42.1064,19.3936c-.3837,0-.7675-.1465-1.0605-.4395-.5859-.5859-.5859-1.5356,0-2.1211l6.2715-6.271c.5859-.5859,1.5351-.5859,2.1211,0,.5859.5859.5859,1.5357,0,2.1211l-6.2715,6.271c-.293.293-.6768.4395-1.0606.4395Z" fill="#203b72"/><polygon points="51.2129 8.7866 43.415 9.4956 50.5039 16.585 51.2129 8.7866" fill="#203b72"/><path d="M48.3779,49.8774c-.3838,0-.7675-.1464-1.0605-.4394l-6.2715-6.271c-.5859-.5855-.5859-1.5352,0-2.1211.5859-.5859,1.5352-.5859,2.1211,0l6.2715,6.271c.5859.5854.5859,1.5352,0,2.1211-.293.293-.6768.4394-1.0606.4394Z" fill="#203b72"/><polygon points="51.2129 51.2134 50.5039 43.415 43.415 50.5044 51.2129 51.2134" fill="#203b72"/><path d="M17.8936,19.3936c-.3838,0-.7676-.1465-1.0606-.4395l-6.2715-6.271c-.5859-.5854-.5859-1.5352,0-2.1211.586-.5859,1.5352-.5859,2.1211,0l6.2715,6.271c.5859.5855.5859,1.5352,0,2.1211-.293.293-.6768.4395-1.0605.4395Z" fill="#203b72"/><polygon points="8.7871 8.7866 9.4961 16.585 16.585 9.4956 8.7871 8.7866" fill="#203b72"/></g></svg>