<?xml version="1.0" encoding="utf-8"?>
<!-- Generator: Adobe Illustrator 24.0.3, SVG Export Plug-In . SVG Version: 6.00 Build 0)  -->
<svg version="1.1" id="Layer_1" xmlns="http://www.w3.org/2000/svg" xmlns:xlink="http://www.w3.org/1999/xlink" x="0px" y="0px"
	 viewBox="0 0 48 48" style="enable-background:new 0 0 48 48;" xml:space="preserve">
<style type="text/css">
	.st0{fill:none;}
	.st1{fill:#002B49;}
	.st2{fill:#CDDE00;}
</style>
<g>
	<path class="st0" d="M33.28,18.43L21.2,23.94l12.08,5.51c3.04,1.39,6.64,0.04,8.03-3c0.3-0.67,0.48-1.36,0.53-2.05c0,0,0,0,0,0
		c0.01-0.08,0.01-0.15,0.01-0.23c0-0.02,0-0.05,0-0.07c0-0.05,0-0.1,0-0.15c0-0.05,0-0.1,0-0.15c0-0.02,0-0.05,0-0.07
		c0-0.08-0.01-0.15-0.01-0.23c0,0,0,0,0,0c-0.05-0.69-0.23-1.38-0.53-2.05C39.92,18.39,36.32,17.05,33.28,18.43z"/>
	<path class="st1" d="M38.31,18.42l-8.8-4.01L14.9,21.07l6.3,2.87l12.08-5.51C36.1,16.96,38.31,18.42,38.31,18.42"/>
	<path class="st1" d="M31.11,34.2l-1.6-0.73l-14.34,6.54c-3.04,1.39-6.64,0.04-8.03-3c-1.39-3.04-0.04-6.64,3-8.03l4.76-2.17
		l-6.3-2.87l-0.63,0.29c-5.66,2.58-8.17,9.29-5.59,14.95c2.58,5.66,9.29,8.17,14.95,5.59l23.14-10.55"/>
	<path class="st2" d="M10.14,18.9c-3.04-1.39-4.39-4.98-3-8.03c1.39-3.04,4.98-4.39,8.03-3l14.34,6.54l1.6-0.73
		c5.48-2.5,11.93-0.23,14.69,5.04c-1.12-2.16-2.94-3.98-5.32-5.06L17.33,3.11C11.67,0.53,4.96,3.04,2.38,8.7
		c-2.58,5.66-0.07,12.37,5.59,14.95l0.63,0.29l6.3-2.87L10.14,18.9z"/>
	<path class="st2" d="M33.28,29.44L21.2,23.94l-6.3,2.87l14.61,6.66l8.8-4.01c2.08-0.95,3.37-2.93,3.53-5.06
		c-0.05,0.69-0.23,1.38-0.53,2.05C39.92,29.49,36.32,30.83,33.28,29.44z"/>
	<polygon class="st1" points="21.2,23.94 14.9,21.07 8.6,23.94 14.9,26.81 	"/>
	<path class="st2" d="M46.32,28c0.03-0.09,0.07-0.18,0.1-0.27c0.03-0.1,0.07-0.19,0.1-0.29c0.02-0.06,0.04-0.12,0.06-0.18
		c0.04-0.12,0.08-0.25,0.11-0.37c0.01-0.03,0.02-0.06,0.02-0.09c0.04-0.15,0.08-0.3,0.11-0.46c0-0.01,0-0.01,0-0.02
		c0.11-0.52,0.19-1.05,0.23-1.59c0-0.03,0-0.07,0.01-0.1c0.01-0.14,0.02-0.29,0.02-0.43c0-0.09,0-0.18,0-0.26c0-0.09,0-0.18,0-0.26
		c0-0.14-0.01-0.29-0.02-0.43c0-0.03,0-0.07-0.01-0.1c-0.04-0.54-0.11-1.07-0.23-1.59c0-0.01,0-0.01,0-0.02
		c-0.03-0.15-0.07-0.3-0.11-0.46c-0.01-0.03-0.01-0.06-0.02-0.09c-0.03-0.13-0.07-0.25-0.11-0.37c-0.02-0.06-0.04-0.12-0.06-0.18
		c-0.03-0.1-0.07-0.19-0.1-0.29c-0.03-0.09-0.06-0.18-0.1-0.27c-0.03-0.07-0.05-0.13-0.08-0.2c-0.05-0.12-0.1-0.24-0.15-0.36
		c-0.02-0.04-0.04-0.08-0.05-0.12c-0.07-0.15-0.14-0.29-0.21-0.43c-0.01-0.02-0.02-0.03-0.02-0.05c-2.75-5.28-9.21-7.54-14.69-5.04
		l-1.6,0.73l8.8,4.01c2.08,0.95,3.37,2.93,3.53,5.06c0,0,0,0,0,0c0.01,0.08,0.01,0.15,0.01,0.23c0,0.02,0,0.05,0,0.07
		c0,0.05,0,0.1,0,0.15c0,0.05,0,0.1,0,0.15c0,0.02,0,0.05,0,0.07c0,0.08-0.01,0.15-0.01,0.23c0,0,0,0,0,0
		c-0.16,2.13-1.45,4.11-3.53,5.06l-8.8,4.01l1.6,0.73c5.48,2.5,11.93,0.23,14.69-5.04c0.01-0.02,0.02-0.03,0.03-0.05
		c0.07-0.14,0.14-0.29,0.21-0.43c0.02-0.04,0.04-0.08,0.05-0.12c0.05-0.12,0.1-0.24,0.15-0.36C46.27,28.13,46.29,28.06,46.32,28z"/>
</g>
</svg>
