<?xml version="1.0" encoding="UTF-8"?><svg id="uuid-1a015e52-9285-46ba-81dc-d7805f8a98f2" xmlns="http://www.w3.org/2000/svg" xmlns:xlink="http://www.w3.org/1999/xlink" viewBox="0 0 60 60"><defs><linearGradient id="uuid-13fad157-ee72-4146-aa90-b6980899f7f3" x1="19" y1="16" x2="35" y2="0" gradientUnits="userSpaceOnUse"><stop offset="0" stop-color="#a62b9f"/><stop offset="1" stop-color="#59c8fa"/></linearGradient><linearGradient id="uuid-3c9917a2-7c06-4698-8d21-db8c595f8b9d" x1="34.3934" y1="55.6066" x2="55.6066" y2="34.3934" xlink:href="#uuid-13fad157-ee72-4146-aa90-b6980899f7f3"/></defs><g id="uuid-4fa38050-3889-4cf7-909a-5bfa1848ac85"><path d="M4,0h46c2.2077,0,4,1.7923,4,4v47c0,4.9672-4.0328,9-9,9H4c-2.2077,0-4-1.7923-4-4V4C0,1.7923,1.7923,0,4,0Z" fill="#203b72"/><polygon points="35 16 31 14 27 16 23 14 19 16 19 0 35 0 35 16" fill="url(#uuid-13fad157-ee72-4146-aa90-b6980899f7f3)"/><path d="M30,45c0-8.2842,6.7158-15,15-15,3.3818,0,6.4912,1.1328,9,3.0205v-2.416c-2.6138-1.6406-5.6929-2.6045-9-2.6045-9.374,0-17,7.626-17,17,0,6.4893,3.6577,12.1357,9.0171,15h7.9829c-8.2842,0-15-6.7158-15-15Z" fill="#fff"/><circle cx="45" cy="45" r="15" fill="url(#uuid-3c9917a2-7c06-4698-8d21-db8c595f8b9d)"/><path d="M42.353,53.9482c-.5117,0-1.0239-.1953-1.414-.5859l-5.2696-5.2695c-.7812-.7813-.7812-2.0469,0-2.8282.7803-.7812,2.0479-.7812,2.8282,0l3.8554,3.8555,9.1494-9.1494c.7803-.7812,2.0479-.7812,2.8282,0,.7812.7813.7812,2.0469,0,2.8281l-10.5635,10.5635c-.3901.3906-.9024.5859-1.4141.5859Z" fill="#fff"/></g></svg>