<?xml version="1.0" encoding="UTF-8"?><svg id="uuid-30734aa2-55e9-4c9a-a020-d052a3b33b69" xmlns="http://www.w3.org/2000/svg" xmlns:xlink="http://www.w3.org/1999/xlink" viewBox="0 0 60 60"><defs><linearGradient id="uuid-4e013c32-c2e6-44ff-9d2c-5598198c832a" x1="20" y1="13" x2="34" y2="-1" gradientUnits="userSpaceOnUse"><stop offset="0" stop-color="#a62b9f"/><stop offset="1" stop-color="#59c8fa"/></linearGradient><linearGradient id="uuid-3ce3885f-0801-42f9-96e8-58e45dee8a79" x1="38" y1="54" x2="54" y2="38" xlink:href="#uuid-4e013c32-c2e6-44ff-9d2c-5598198c832a"/><linearGradient id="uuid-6c98cbea-518f-4ee1-a54f-5102c4bfa37b" x1="36.1004" y1="38.8996" x2="55.8996" y2="19.1004" xlink:href="#uuid-4e013c32-c2e6-44ff-9d2c-5598198c832a"/></defs><g id="uuid-efb91df5-dda8-4de6-849c-ace4c89e4d7c"><rect width="54" height="60" rx="4.0762" ry="4.0762" fill="#203b72"/><polygon points="35 12 31 10 27 12 23 10 19 12 19 0 35 0 35 12" fill="url(#uuid-4e013c32-c2e6-44ff-9d2c-5598198c832a)"/><polygon points="54 54 50 52 46 54 42 52 38 54 38 38 54 38 54 54" fill="url(#uuid-3ce3885f-0801-42f9-96e8-58e45dee8a79)"/><path d="M46,43c-7.7324,0-14-6.2681-14-14s6.2676-14,14-14c2.9766,0,5.7314.936,8,2.52v-2.063c-2.3486-1.3925-5.0781-2.207-8-2.207-8.6846,0-15.75,7.0654-15.75,15.75s7.0654,15.75,15.75,15.75c2.9219,0,5.6514-.8145,8-2.207v-2.063c-2.2686,1.584-5.0234,2.52-8,2.52Z" fill="#fff"/><circle cx="46" cy="29" r="14" fill="url(#uuid-6c98cbea-518f-4ee1-a54f-5102c4bfa37b)"/><path d="M47.1396,20.8408l1.6514,3.3462c.1856.375.543.6353.957.6953l3.6924.5366c1.043.1514,1.459,1.4327.7051,2.1675l-2.6728,2.605c-.2989.292-.4356.7124-.3653,1.125l.6309,3.6777c.1777,1.0386-.9112,1.8301-1.8438,1.3399l-3.3027-1.7363c-.3711-.1949-.8125-.1949-1.1836,0l-3.3027,1.7363c-.9326.4902-2.0215-.3013-1.8438-1.3399l.6309-3.6777c.0703-.4126-.0664-.833-.3653-1.125l-2.6728-2.605c-.7539-.7348-.3379-2.0161.7041-2.1675l3.6934-.5366c.414-.06.7714-.3203.957-.6953l1.6514-3.3462c.4658-.9448,1.8134-.9448,2.2792,0Z" fill="#fff"/></g></svg>