<?xml version="1.0" encoding="UTF-8"?><svg id="uuid-aa7af801-61db-4616-a33a-e138e0f281fb" xmlns="http://www.w3.org/2000/svg" xmlns:xlink="http://www.w3.org/1999/xlink" viewBox="0 0 48 60"><defs><linearGradient id="uuid-c659afe4-a8d6-4664-8377-2e11754c09c0" x1="38.5858" y1="9.4142" x2="43" y2="5" gradientUnits="userSpaceOnUse"><stop offset="0" stop-color="#a62b9f"/><stop offset="1" stop-color="#59c8fa"/></linearGradient><linearGradient id="uuid-fcb4e50e-cbed-43f4-a804-0f4f17d7a264" x1="26.3432" y1="49.6568" x2="37.6568" y2="38.3432" xlink:href="#uuid-c659afe4-a8d6-4664-8377-2e11754c09c0"/></defs><g id="uuid-155ddc38-ccb4-485d-9491-791ac058a7bc"><path d="M2,60h44c1.1045,0,2-.8955,2-2V10c-3.9053-3.9053-6.0947-6.0947-10-10H2C.8955,0,0,.8955,0,2v56c0,1.1045.8955,2,2,2Z" fill="#203b72"/><path d="M40,10h8c-3.9053-3.9053-6.0947-6.0947-10-10h0v8c0,1.1045.8955,2,2,2Z" fill="url(#uuid-c659afe4-a8d6-4664-8377-2e11754c09c0)"/><path d="M39,31H9c-.5522,0-1-.4473-1-1s.4478-1,1-1h30c.5522,0,1,.4473,1,1s-.4478,1-1,1Z" fill="#fff"/><path d="M22,38h-13c-.5522,0-1-.4473-1-1s.4478-1,1-1h13c.5522,0,1,.4473,1,1s-.4478,1-1,1Z" fill="#fff"/><path d="M13,45h-4c-.5522,0-1-.4473-1-1s.4478-1,1-1h4c.5522,0,1,.4473,1,1s-.4478,1-1,1Z" fill="#fff"/><path d="M18,52h-9c-.5522,0-1-.4473-1-1s.4478-1,1-1h9c.5522,0,1,.4473,1,1s-.4478,1-1,1Z" fill="#fff"/><path d="M39,24h-14.9995c-.5523,0-1-.4473-1-1s.4477-1,1-1h14.9995c.5522,0,1,.4473,1,1s-.4478,1-1,1Z" fill="#fff"/><path d="M18.0005,24h-9.0005c-.5522,0-1-.4473-1-1s.4478-1,1-1h9.0005c.5522,0,1,.4473,1,1s-.4478,1-1,1Z" fill="#fff"/><path d="M39,17H9c-.5522,0-1-.4473-1-1s.4478-1,1-1h30c.5522,0,1,.4473,1,1s-.4478,1-1,1Z" fill="#fff"/><path d="M25,10H9c-.5522,0-1-.4473-1-1s.4478-1,1-1h16c.5522,0,1,.4473,1,1s-.4478,1-1,1Z" fill="#fff"/><circle cx="32" cy="44" r="8" fill="url(#uuid-fcb4e50e-cbed-43f4-a804-0f4f17d7a264)"/><path d="M30.9336,48.5332c-.2559,0-.5117-.0977-.707-.293l-2.9336-2.9336c-.3907-.3906-.3907-1.0234,0-1.414.3906-.3906,1.0234-.3906,1.414,0l2.2266,2.2265,4.3594-4.3593c.3906-.3907,1.0234-.3907,1.414,0,.3907.3906.3907,1.0234,0,1.414l-5.0664,5.0664c-.1953.1953-.4511.293-.707.293Z" fill="#fff"/></g></svg>