<?xml version="1.0" encoding="UTF-8"?><svg id="uuid-07657032-acaa-4d49-b361-65101202dc1d" xmlns="http://www.w3.org/2000/svg" xmlns:xlink="http://www.w3.org/1999/xlink" viewBox="0 0 35 60"><defs><linearGradient id="uuid-23d8a3f8-7cd3-4d2b-b8e7-db8de9cd7245" x1="20" y1="48" x2="33" y2="35" gradientUnits="userSpaceOnUse"><stop offset="0" stop-color="#a62b9f"/><stop offset="1" stop-color="#59c8fa"/></linearGradient><linearGradient id="uuid-19687159-94dc-41b0-95e4-082c146edfdb" x1="20" y1="62" x2="33" y2="49" xlink:href="#uuid-23d8a3f8-7cd3-4d2b-b8e7-db8de9cd7245"/><linearGradient id="uuid-81130d91-ee25-4b60-9380-12795e478888" x1="4.636" y1="52.364" x2="12.364" y2="44.636" xlink:href="#uuid-23d8a3f8-7cd3-4d2b-b8e7-db8de9cd7245"/><linearGradient id="uuid-859d6075-4aa7-4f69-b3c3-5f32abc8e217" x1="4.636" y1="38.364" x2="12.364" y2="30.636" xlink:href="#uuid-23d8a3f8-7cd3-4d2b-b8e7-db8de9cd7245"/><linearGradient id="uuid-604321d3-57df-4112-9d93-bcd2cfaae975" x1="7.6004" y1="23.8996" x2="27.3996" y2="4.1004" xlink:href="#uuid-23d8a3f8-7cd3-4d2b-b8e7-db8de9cd7245"/></defs><g id="uuid-e30d7777-7bc9-47a4-a171-8e7a1bb9d593"><path d="M26,46h-8c0-4.9707,4.0293-9,9-9h8c0,4.9707-4.0293,9-9,9Z" fill="url(#uuid-23d8a3f8-7cd3-4d2b-b8e7-db8de9cd7245)"/><path d="M26,60h-8c0-4.9707,4.0293-9,9-9h8c0,4.9707-4.0293,9-9,9Z" fill="url(#uuid-19687159-94dc-41b0-95e4-082c146edfdb)"/><path d="M9,53h8c0-4.9707-4.0293-9-9-9H0c0,4.9707,4.0293,9,9,9Z" fill="url(#uuid-81130d91-ee25-4b60-9380-12795e478888)"/><path d="M9,39h8c0-4.9707-4.0293-9-9-9H0c0,4.9707,4.0293,9,9,9Z" fill="url(#uuid-859d6075-4aa7-4f69-b3c3-5f32abc8e217)"/><rect x="16" y="12" width="3" height="48" fill="#203b72"/><circle cx="17.5" cy="14" r="14" fill="url(#uuid-604321d3-57df-4112-9d93-bcd2cfaae975)"/><path d="M19.521,20.7939h-4.042c-1.4307,0-2.5977-1.1513-2.6221-2.5771-.0005-.0098-.0005-.0186-.0005-.0283v-.0176c0-.5527.4478-1,1-1s1,.4473,1,1c0,.3437.2793.623.6226.623h4.042c.3433,0,.6226-.2793.6226-.623v-2.5479c0-.3437-.2793-.623-.6226-.623h-4.042c-1.4463,0-2.6226-1.1768-2.6226-2.623v-2.5479c0-1.4463,1.1763-2.623,2.6226-2.623h4.042c1.4307,0,2.5977,1.1513,2.6221,2.5771.0005.0098.0005.0186.0005.0283v.0176c0,.5527-.4478,1-1,1s-1-.4473-1-1c0-.3437-.2793-.623-.6226-.623h-4.042c-.3433,0-.6226.2793-.6226.623v2.5479c0,.3437.2793.623.6226.623h4.042c1.4463,0,2.6226,1.1768,2.6226,2.623v2.5479c0,1.4463-1.1763,2.623-2.6226,2.623Z" fill="#fff"/><path d="M17.5,9.2061c-.5522,0-1-.4473-1-1v-2.2061c0-.5527.4478-1,1-1s1,.4473,1,1v2.2061c0,.5527-.4478,1-1,1Z" fill="#fff"/><path d="M17.5,23c-.5522,0-1-.4473-1-1v-2.2061c0-.5527.4478-1,1-1s1,.4473,1,1v2.2061c0,.5527-.4478,1-1,1Z" fill="#fff"/></g></svg>