<?xml version="1.0" encoding="UTF-8"?><svg id="uuid-4e7d7569-0f32-4ee7-b8fd-71676cd43c47" xmlns="http://www.w3.org/2000/svg" xmlns:xlink="http://www.w3.org/1999/xlink" viewBox="0 0 60 60"><defs><linearGradient id="uuid-6e0df021-fb51-444b-9440-687f77368517" x1="13" y1="45" x2="47" y2="11" gradientUnits="userSpaceOnUse"><stop offset="0" stop-color="#a62b9f"/><stop offset="1" stop-color="#59c8fa"/></linearGradient><linearGradient id="uuid-0c66a088-1f08-48cf-9572-dfa732b99838" x1="1" y1="53" x2="29" y2="25" xlink:href="#uuid-6e0df021-fb51-444b-9440-687f77368517"/><linearGradient id="uuid-fc331150-29be-4721-8371-3043e994f1f5" x1="35" y1="53" x2="63" y2="25" xlink:href="#uuid-6e0df021-fb51-444b-9440-687f77368517"/></defs><g id="uuid-e51fb7df-334d-43c5-adad-d37148bc5d44"><path d="M60,60H0v-2c0-1.1045.8955-2,2-2h56c1.1045,0,2,.8955,2,2v2Z" fill="#203b72"/><rect x="24" width="12" height="56" fill="url(#uuid-6e0df021-fb51-444b-9440-687f77368517)"/><rect x="23" y="4" width="14" height="2" fill="#203b72"/><polygon points="22 16 4 24 4 26 22 18 22 16" fill="#203b72"/><polygon points="22 18 4 26 4 56 22 56 22 18" fill="url(#uuid-0c66a088-1f08-48cf-9572-dfa732b99838)"/><rect x="15" y="29" width="3" height="14" fill="#fff"/><rect x="8" y="29" width="3" height="14" fill="#fff"/><polygon points="56 16 38 24 38 26 56 18 56 16" fill="#203b72"/><polygon points="56 18 38 26 38 56 56 56 56 18" fill="url(#uuid-fc331150-29be-4721-8371-3043e994f1f5)"/><rect x="49" y="29" width="3" height="14" fill="#fff"/><rect x="42" y="29" width="3" height="14" fill="#fff"/></g></svg>