<?xml version="1.0" encoding="UTF-8"?><svg id="uuid-aa05feef-b0eb-4114-825a-e7e0709a3a53" xmlns="http://www.w3.org/2000/svg" xmlns:xlink="http://www.w3.org/1999/xlink" viewBox="0 0 60.0005 60.0005"><defs><linearGradient id="uuid-048052e4-cd4e-4fa4-a420-a4c4b1e21102" x1="16.5653" y1="43.4352" x2="43.4352" y2="16.5653" gradientUnits="userSpaceOnUse"><stop offset="0" stop-color="#a62b9f"/><stop offset="1" stop-color="#59c8fa"/></linearGradient></defs><g id="uuid-d9bcd126-28e1-47a4-8a01-f52423b22dc9"><path d="M59.427,37.6565l-4.8194-2.7754c-.414-.2373-.6269-.7051-.5537-1.1768.3779-2.4248.3955-4.9228.0108-7.4141-.0723-.4707.1396-.9384.5527-1.1767l4.8086-2.7686c.499-.2871.707-.8994.4863-1.4297l-2.3369-5.6416c-.2197-.5312-.7998-.8173-1.3545-.6679l-5.3584,1.4424c-.46.124-.9414-.0567-1.2227-.4415-1.4892-2.0332-3.2685-3.7861-5.25-5.2343-.3847-.2813-.5654-.7627-.4414-1.2237l1.4454-5.3701c.1494-.5547-.1358-1.1347-.667-1.3545L39.0861.0871c-.5312-.2197-1.1425-.0117-1.4296.4863l-2.7754,4.8204c-.2383.413-.7061.6259-1.1768.5527-2.4248-.377-4.9228-.3955-7.4141-.0108-.4707.0723-.9384-.1396-1.1767-.5527l-2.7686-4.8086c-.2871-.498-.8984-.706-1.4297-.4863l-5.6425,2.3369c-.5303.2197-.8164.7998-.667,1.3545l1.4433,5.3584c.1231.46-.0576.9414-.4424,1.2227-2.0332,1.4892-3.7861,3.2685-5.2343,5.25-.2813.3847-.7627.5654-1.2237.4414l-5.3701-1.4454c-.5547-.1494-1.1347.1358-1.3545.667L.0871,20.9143c-.2197.5312-.0117,1.1425.4863,1.4297l4.8194,2.7753c.414.2383.6269.7061.5537,1.1768-.3779,2.4258-.3955,4.9229-.0108,7.4141.0723.4707-.1396.9384-.5527,1.1767l-4.8096,2.7696c-.498.2861-.706.8984-.4853,1.4287l2.3369,5.6425c.2197.5303.7998.8164,1.3545.667l5.3584-1.4424c.46-.124.9414.0567,1.2227.4415,1.4892,2.0332,3.2685,3.7861,5.25,5.2343.3847.2813.5654.7627.4414,1.2237l-1.4454,5.3701c-.1503.5547.1358,1.1347.667,1.3545l5.6407,2.3369c.5312.2197,1.1425.0117,1.4297-.4863l2.7753-4.8194c.2373-.414.7061-.6269,1.1768-.5527,2.4248.3769,4.9229.3955,7.4141.0098.4707-.0723.9384.1396,1.1767.5527l2.7686,4.8096c.2871.498.8984.706,1.4297.4863l5.6425-2.3369c.5303-.2207.8164-.7998.667-1.3555l-1.4433-5.3584c-.1231-.46.0576-.9414.4424-1.2227,2.0332-1.4892,3.7861-3.2685,5.2343-5.25.2813-.3847.7627-.5654,1.2237-.4414l5.3701,1.4463c.5547.1485,1.1347-.1367,1.3545-.6679l2.3369-5.6407c.2197-.5312.0117-1.1425-.4863-1.4296Z" fill="#203b72"/><circle cx="30.0002" cy="30.0002" r="19" fill="url(#uuid-048052e4-cd4e-4fa4-a420-a4c4b1e21102)"/><path d="M20.2268,39.4523c-.4356,0-.8672-.1884-1.1631-.5517-4.586-5.6221-4.1699-13.7344.9668-18.8701,2.6621-2.6631,6.2031-4.1299,9.9697-4.1299.8281,0,1.5.6719,1.5,1.5s-.6719,1.5-1.5,1.5c-2.9658,0-5.7529,1.1543-7.8486,3.251-4.044,4.0429-4.3721,10.4287-.7637,14.8525.5234.6426.4277,1.5869-.2139,2.1104-.2783.2275-.6142.3378-.9472.3378Z" fill="#fff"/><path d="M39.7512,39.4797c-.335,0-.6709-.1113-.9502-.3399-.6406-.5253-.7344-1.4707-.209-2.1113,3.6318-4.4267,3.3115-10.8222-.7432-14.8769-2.0957-2.0967-4.8828-3.251-7.8486-3.251-.8281,0-1.5-.6719-1.5-1.5s.6719-1.5,1.5-1.5c3.7666,0,7.3076,1.4668,9.9697,4.1299,5.1514,5.1494,5.5557,13.2754.9424,18.9004-.2969.3613-.7275.5488-1.1611.5488Z" fill="#fff"/><circle cx="30.0002" cy="30.0002" r="3" fill="#203b72"/><path d="M43.094,36.7063c-.1846,0-.3721-.0342-.5538-.1065l-13.0937-5.206c-.7705-.3057-1.1465-1.1778-.8399-1.9473.3057-.7715,1.1788-1.1465,1.9473-.8399l13.0938,5.2061c.7705.3057,1.1464,1.1777.8398,1.9482-.2334.5879-.7978.9454-1.3935.9454Z" fill="#203b72"/><rect x="25.0002" y="39.4006" width="10" height="4" rx="1" ry="1" fill="#203b72"/></g></svg>