<?xml version="1.0" encoding="UTF-8"?><svg id="uuid-1315c2ab-e03d-47a5-bb3a-a7e7668a06e1" xmlns="http://www.w3.org/2000/svg" xmlns:xlink="http://www.w3.org/1999/xlink" viewBox="0 0 59.9999 60.0003"><defs><linearGradient id="uuid-94510b17-0bc7-4756-b2cd-09aac522c177" x1="24.4999" y1="68.5003" x2="51.4999" y2="41.5003" gradientUnits="userSpaceOnUse"><stop offset="0" stop-color="#a62b9f"/><stop offset="1" stop-color="#59c8fa"/></linearGradient></defs><g id="uuid-7a2d3ef8-5bef-4a80-a09b-0dab63765bc3"><path d="M37.9999,24.47l1.6479,2.3975,6.275,9.1269c.0522-.0654.104-.1318.1376-.2128l1.8697-4.5127c.1758-.4248.0093-.9151-.3892-1.1446l-3.8472-2.2148c-.3305-.1904-.5-.5645-.4418-.9414.3076-1.9932.2929-3.9912-.0088-5.9307-.0586-.3769.1118-.7519.4423-.9424l3.8555-2.2197c.3985-.2295.565-.7187.3892-1.1436l-1.8692-4.5126c-.1762-.4249-.6401-.6534-1.0839-.5342l-4.2964,1.1562c-.3682.0996-.7535-.0449-.9786-.3525-1.1582-1.585-2.5605-3.0088-4.1875-4.2002-.3076-.2246-.4521-.6094-.3535-.9776l1.1543-4.2871c.1197-.4443-.1089-.9082-.5337-1.0839L31.268.0706c-.4248-.1767-.9141-.0098-1.1436.3887l-2.2153,3.8476c-.19.3301-.5645.5-.9414.4414-1.9932-.3076-3.9907-.2929-5.9307.0088-.3774.0586-.7515-.1113-.9419-.4423l-2.2202-3.8555c-.2295-.3985-.7187-.5654-1.1436-.3897l-4.5126,1.8702c-.4249.1757-.6534.6396-.5342,1.083l1.1567,4.2968c.0991.3682-.0449.753-.353.9786-1.585,1.1582-3.0083,2.5605-4.2002,4.1875-.2251.3076-.6099.4521-.978.3535l-4.2867-1.1543c-.4443-.1192-.9082.1093-1.0839.5342L.0697,16.7317c-.1758.4249-.0093.9151.3892,1.1436l3.8472,2.2158c.3305.1905.5.5645.4418.9414-.3076,1.9932-.2929,3.9912.0088,5.9307.0586.3769-.1118.751-.4423.9414l-3.8555,2.2207c-.3985.2295-.565.7188-.3892,1.1436l1.8692,4.5127c.1762.4248.6401.6533,1.0839.5341l4.2959-1.1572c.3687-.0986.754.0459.9791.3535,1.1582,1.585,2.5605,3.0078,4.1875,4.2002.3076.2246.4521.6094.353.9776l-1.1538,4.2871c-.1197.4443.1089.9082.5337,1.0839l4.5136,1.8692c.4248.1758.9141.0098,1.1436-.3887l2.2153-3.8476c.1905-.3301.5645-.5.9414-.4414,1.3135.2031,2.628.2529,3.9278.1855l11.3921-16.5703,1.6479-2.3975ZM23.9999,32.5003c-4.6943,0-8.5-3.8057-8.5-8.5s3.8057-8.5,8.5-8.5,8.5,3.8057,8.5,8.5-3.8057,8.5-8.5,8.5Z" fill="#203b72"/><polygon points="37.9999 28.0003 15.9999 60.0003 59.9999 60.0003 37.9999 28.0003" fill="url(#uuid-94510b17-0bc7-4756-b2cd-09aac522c177)"/><circle cx="37.9999" cy="54.0003" r="2" fill="#fff"/><rect x="36.4999" y="37.0003" width="3" height="13" fill="#fff"/></g></svg>