<?xml version="1.0" encoding="UTF-8"?><svg id="uuid-16a1a3c9-fac2-44c8-9280-449f94c16906" xmlns="http://www.w3.org/2000/svg" xmlns:xlink="http://www.w3.org/1999/xlink" viewBox="0 0 60 60"><defs><linearGradient id="uuid-2fae7deb-6f9f-495b-be87-3258b6345047" x1="9.4938" y1="50.5062" x2="50.5062" y2="9.4938" gradientUnits="userSpaceOnUse"><stop offset="0" stop-color="#a62b9f"/><stop offset="1" stop-color="#59c8fa"/></linearGradient></defs><g id="uuid-58549870-376d-4cee-975f-1b50d222f40d"><circle cx="30" cy="30" r="29" fill="url(#uuid-2fae7deb-6f9f-495b-be87-3258b6345047)"/><path d="M6.25,48.3184c5.4863,7.1025,14.0811,11.6816,23.75,11.6816,1.6084,0,3.1855-.1299,4.7246-.373l-17.6377-29.3252-10.8369,18.0166Z" fill="#203b72"/><path d="M55.1572,46.3359l-15.1679-25.2158-13.0459,21.6895,9.8642,16.3984c7.6543-1.7793,14.1885-6.4775,18.3496-12.8721Z" fill="#203b72"/><rect x="26.4355" y="10.6455" width="13.5538" height="7.6123" fill="#203b72"/><path d="M39.9893,25.8711c-.4141,0-.75-.3359-.75-.75v-14.4756c0-.4141.3359-.75.75-.75s.75.3359.75.75v14.4756c0,.4141-.336.75-.75.75Z" fill="#fff"/><polygon points="39.9893 21.1201 47.0889 32.9238 32.8896 32.9238 39.9893 21.1201" fill="#fff"/><path d="M53.6191,18.7402c-1.5878,0-2.915,1.0508-3.3662,2.4893-.208-.0742-.4297-.1221-.664-.1221-1.1006,0-1.9922.8916-1.9922,1.9912h9.5967c-.251-1.0664-.5567-2.1113-.918-3.1308-.6465-.7471-1.5899-1.2276-2.6563-1.2276Z" fill="#fff"/><path d="M19.5088,17.1113c-.3486,0-.6777.0713-.9854.1875-.6181-1.0371-1.7392-1.7383-3.0332-1.7383-1.5879,0-2.915,1.0508-3.3662,2.4893-.209-.0742-.4297-.1221-.664-.1221-1.1006,0-1.9922.8916-1.9922,1.9922h12.8486c0-1.5517-1.2568-2.8086-2.8076-2.8086Z" fill="#fff"/><path d="M28.6533,26.8711c-.2812,0-.5469.0586-.7949.1514-.499-.836-1.4033-1.4024-2.4473-1.4024-1.2812,0-2.3525.8477-2.7158,2.0088-.1689-.0605-.3476-.0986-.5371-.0986-.8877,0-1.6074.7197-1.6074,1.6074h10.3681c0-1.252-1.0146-2.2666-2.2656-2.2666Z" fill="#fff"/><path d="M30,0C13.4316,0,0,13.4316,0,30s13.4316,30,30,30,30-13.4316,30-30S46.5684,0,30,0ZM30,57c-14.8877,0-27-12.1123-27-27S15.1123,3,30,3s27,12.1123,27,27-12.1123,27-27,27Z" fill="#203b72"/><polygon points="17.0869 30.3018 22.6865 39.6133 11.4863 39.6133 17.0869 30.3018" fill="#fff"/></g></svg>