<?xml version="1.0" encoding="UTF-8"?><svg id="uuid-8c1d61d8-2e14-4a66-976c-e3ff28ed0b49" xmlns="http://www.w3.org/2000/svg" xmlns:xlink="http://www.w3.org/1999/xlink" viewBox="0 0 46 60"><defs><linearGradient id="uuid-a4ef2134-1911-4f9e-9e1f-60cc9f301d53" x1="6.7367" y1="39.2633" x2="39.2633" y2="6.7367" gradientUnits="userSpaceOnUse"><stop offset="0" stop-color="#a62b9f"/><stop offset="1" stop-color="#59c8fa"/></linearGradient><linearGradient id="uuid-d5ab8e32-cfbd-482f-bbc8-51b5908450ba" x1="9.9226" y1="36.0774" x2="36.0774" y2="9.9226" xlink:href="#uuid-a4ef2134-1911-4f9e-9e1f-60cc9f301d53"/><linearGradient id="uuid-5fe1c405-c423-4890-b5c5-c9844db4ea1b" x1="11.706" y1="34.2939" x2="34.2939" y2="11.7061" xlink:href="#uuid-a4ef2134-1911-4f9e-9e1f-60cc9f301d53"/><linearGradient id="uuid-97b5b0df-4499-498e-8062-45388390141f" x1="11.7061" y1="34.294" x2="34.294" y2="11.7061" xlink:href="#uuid-a4ef2134-1911-4f9e-9e1f-60cc9f301d53"/><linearGradient id="uuid-7d30c91c-0fcd-4292-86ff-799d658a1848" x1="12.4854" y1="23.5146" x2="33.5147" y2="2.4853" xlink:href="#uuid-a4ef2134-1911-4f9e-9e1f-60cc9f301d53"/><linearGradient id="uuid-b38b2ee7-8022-4bbb-bdfd-2795ca8afbbc" x1="12.4853" y1="43.5146" x2="33.5146" y2="22.4853" xlink:href="#uuid-a4ef2134-1911-4f9e-9e1f-60cc9f301d53"/></defs><g id="uuid-1ebd457d-a78f-4a73-a86c-6bb7c95a4578"><polygon points="35 60 23 53 23 36 35 36 35 60" fill="#203b72"/><polygon points="11 60 23 53 23 36 11 36 11 60" fill="#203b72"/><circle cx="23" cy="23" r="23" fill="url(#uuid-a4ef2134-1911-4f9e-9e1f-60cc9f301d53)"/><circle cx="23" cy="23" r="20" fill="#fff"/><path d="M23,45.5537c-7.3203,0-13.0537-9.9062-13.0537-22.5537S15.6797.4463,23,.4463s13.0537,9.9062,13.0537,22.5537-5.7334,22.5537-13.0537,22.5537ZM23,3.5537c-5.3916,0-9.9463,8.9053-9.9463,19.4463s4.5547,19.4463,9.9463,19.4463,9.9463-8.9053,9.9463-19.4463S28.3916,3.5537,23,3.5537Z" fill="url(#uuid-d5ab8e32-cfbd-482f-bbc8-51b5908450ba)"/><rect x="21.4121" y="2" width="3.1758" height="42" fill="url(#uuid-5fe1c405-c423-4890-b5c5-c9844db4ea1b)"/><rect x="2" y="21.4121" width="42" height="3.1758" fill="url(#uuid-97b5b0df-4499-498e-8062-45388390141f)"/><rect x="3.5" y="11.4707" width="39" height="3.0586" fill="url(#uuid-7d30c91c-0fcd-4292-86ff-799d658a1848)"/><rect x="3.5" y="31.4707" width="39" height="3.0586" fill="url(#uuid-b38b2ee7-8022-4bbb-bdfd-2795ca8afbbc)"/></g></svg>