<?xml version="1.0" encoding="UTF-8"?><svg id="uuid-31fe4a41-24de-49b1-a15d-dcdc04ffc036" xmlns="http://www.w3.org/2000/svg" xmlns:xlink="http://www.w3.org/1999/xlink" viewBox="0 0 272.8571 278.5714"><defs><linearGradient id="uuid-682c2d96-5a53-404b-91ce-291c70223ca3" x1="9.9368" y1="141.0885" x2="265.8717" y2="141.0885" gradientUnits="userSpaceOnUse"><stop offset="0" stop-color="#a62b9f"/><stop offset="1" stop-color="#092b49"/></linearGradient><linearGradient id="uuid-be3d5e22-98f5-4413-b9f8-304d90a37896" x1="43.8349" y1="140.8577" x2="232.1207" y2="140.8577" xlink:href="#uuid-682c2d96-5a53-404b-91ce-291c70223ca3"/><linearGradient id="uuid-d3bf6ac4-7df3-4525-ae15-bd65ceaf3269" x1="206.7772" y1="68.0435" x2="216.382" y2="68.0435" xlink:href="#uuid-682c2d96-5a53-404b-91ce-291c70223ca3"/><linearGradient id="uuid-5358c059-e83d-4f72-b4d9-4a98ea96c366" x1="59.0484" y1="69.0604" x2="68.3372" y2="69.0604" xlink:href="#uuid-682c2d96-5a53-404b-91ce-291c70223ca3"/><linearGradient id="uuid-197c5809-0888-49cf-8ff8-6401cac0d39d" x1="145.6672" y1="119.2146" x2="200.6572" y2="119.2146" xlink:href="#uuid-682c2d96-5a53-404b-91ce-291c70223ca3"/><linearGradient id="uuid-28fe68f3-be6e-4a0c-bc64-267e5449e448" x1="124.6872" y1="109.0096" x2="194.9472" y2="109.0096" xlink:href="#uuid-682c2d96-5a53-404b-91ce-291c70223ca3"/><linearGradient id="uuid-8f48742d-3ba1-4e84-b8fb-a7559207e392" x1="94.6153" y1="129.7752" x2="161.3072" y2="129.7752" xlink:href="#uuid-682c2d96-5a53-404b-91ce-291c70223ca3"/><linearGradient id="uuid-5ae0e296-163f-4df0-ac42-f7413d3703b0" x1="113.7772" y1="151.48" x2="181.6155" y2="151.48" xlink:href="#uuid-682c2d96-5a53-404b-91ce-291c70223ca3"/><linearGradient id="uuid-48ec1d1d-9816-41b5-a784-0818b9292eaf" x1="76.7472" y1="159.2646" x2="131.2072" y2="159.2646" xlink:href="#uuid-682c2d96-5a53-404b-91ce-291c70223ca3"/><linearGradient id="uuid-783c3688-8dd0-4890-8cfa-cb231f467612" x1="125.9572" y1="140.4029" x2="149.1158" y2="140.4029" xlink:href="#uuid-682c2d96-5a53-404b-91ce-291c70223ca3"/><linearGradient id="uuid-da86a118-3dea-4ab1-b17d-467f66a284dc" x1="74.5472" y1="172.6446" x2="151.5672" y2="172.6446" xlink:href="#uuid-682c2d96-5a53-404b-91ce-291c70223ca3"/><linearGradient id="uuid-b5dbb7e6-95a0-464f-ac2a-a990a5dbf40e" x1="208.0272" y1="212.7655" x2="218.2672" y2="212.7655" xlink:href="#uuid-682c2d96-5a53-404b-91ce-291c70223ca3"/><linearGradient id="uuid-b0f6ae5c-8ec4-493a-8a9a-1f262cba9652" x1="60.0226" y1="214.0443" x2="69.3772" y2="214.0443" xlink:href="#uuid-682c2d96-5a53-404b-91ce-291c70223ca3"/></defs><path d="M123.1772,13.8796c20.02-2.06,40.59-.07,59.45,7.18,30.6,11.32,56.7,34.67,70.73,64.19,18.33,37.69,16.41,84.46-5.01,120.5-17.58,30.41-48.29,52.84-82.62,60.29-35.43,8.06-74-.25-103.19-21.79-23.23-16.77-40.51-41.59-48-69.26-6.74-24.43-6.08-50.87,2.02-74.89,9.69-29.29,30.62-54.53,57.36-69.86,15.07-8.77,31.98-14.22,49.26-16.36ZM124.2372,28.0096c-32.24,3.89-62.47,22.14-80.67,49.06-13.52,19.8-20.52,43.97-19.55,67.93,1.04,27.44,12.21,54.57,31.47,74.26,14.02,15.16,32.5,25.99,52.35,31.55,21.13,5.8,43.92,5.41,64.83-1.16,17.9-6.04,34.66-16.02,47.57-29.92,11.42-11.81,20.06-26.2,25.46-41.7,12.34-35.44,5.96-77-17.34-106.57-10.84-13.94-24.92-25.3-40.82-32.97-19.48-9.59-41.8-13-63.3-10.48Z" fill="url(#uuid-682c2d96-5a53-404b-91ce-291c70223ca3)"/><path d="M125.2072,47.8596c16.88-2.45,34.36.05,50.04,6.7,20.25,8.93,37.55,24.82,47.26,44.81,14.62,29.02,12.43,65.8-5.65,92.83-10.5,16.18-26.16,29.03-44.11,36.11-17.37,6.92-36.86,8.25-55.08,4.17-18.75-4.12-36.14-14.15-49.24-28.17-16.03-17.57-25.3-41.4-24.55-65.24.09-18.29,5.93-36.47,16.4-51.47,14.74-21.63,39.08-36.18,64.93-39.74ZM123.7772,53.2596c-19.72,3.45-38.39,13.2-51.87,28.09-15.85,16.94-24.21,40.59-22.91,63.72.72,18.6,7.9,36.74,19.48,51.25,20.78,26.15,57.15,39.01,89.68,31,19.01-4.18,36.34-15.07,48.66-30.1,11.39-13.47,18.16-30.62,19.89-48.12,2-20.79-3.58-42.29-15.81-59.26-10.53-14.83-25.68-26.33-42.81-32.47-14.06-5.29-29.52-6.46-44.31-4.11Z" fill="url(#uuid-be3d5e22-98f5-4413-b9f8-304d90a37896)"/><path d="M206.7772,70.9196c1.94-2.8,4.28-5.36,6.98-7.44,1.18-1.07,3.29.85,2.42,2.16-2.24,2.68-4.72,5.21-7.54,7.28-.47-.5-1.4-1.5-1.86-2Z" fill="url(#uuid-d3bf6ac4-7df3-4525-ae15-bd65ceaf3269)"/><path d="M59.6172,66.9596c-1.58-1.02.48-3.76,1.95-2.56,2.49,1.92,4.67,4.24,6.77,6.58l-1.6,3.04c-2.42-2.3-4.92-4.54-7.12-7.06Z" fill="url(#uuid-5358c059-e83d-4f72-b4d9-4a98ea96c366)"/><path d="M195.0972,85.4296c1.81-.88,3.66-1.68,5.56-2.36-7.65,12.41-16.57,24-24.64,36.14-1.08,1.48-2.14,2.98-3.16,4.51-7.21,10.47-14.28,21.04-21.29,31.64-1.96-2.1-3.93-4.2-5.9-6.28,4.32-4.69,4.68-12.03.52-16.94,4.49-4,9.2-7.76,13.28-12.19,7.35-7.72,16.87-13.14,23.49-21.58,3.63-4.58,10.91-6.01,11.99-12.49l.15-.45Z" fill="url(#uuid-197c5809-0888-49cf-8ff8-6401cac0d39d)"/><path d="M161.3072,104.8096c11.13-6.44,22.21-13.02,33.64-18.93-1.08,6.48-8.36,7.91-11.99,12.49-6.62,8.44-16.14,13.86-23.49,21.58-4.08,4.43-8.79,8.19-13.28,12.19-4.22-3.31-10.26-4.33-14.98-1.44-2.22-1.81-4.38-3.7-6.52-5.59,10.64-5.83,21.25-11.72,31.84-17.63,1.62-.83,3.22-1.73,4.78-2.67Z" fill="url(#uuid-28fe68f3-be6e-4a0c-bc64-267e5449e448)"/><path d="M118.6472,102.9296c13.28-6.91,29.97-5.92,42.66,1.88-1.56.94-3.16,1.84-4.78,2.67l-.8-.14c-6.81-3.44-14.59-5.22-22.2-4.04-13.5,1.56-25.81,10.77-31.17,23.25-2.86,6.79-3.92,14.4-2.54,21.66.54,3.22,1.68,6.3,2.23,9.51-.95,1.2-1.93,2.36-2.9,3.53-3.51-6.8-4.82-14.6-4.48-22.2.85-15.16,10.19-29.6,23.98-36.12Z" fill="url(#uuid-8f48742d-3ba1-4e84-b8fb-a7559207e392)"/><path d="M102.3572,126.5496c5.36-12.48,17.67-21.69,31.17-23.25,7.61-1.18,15.39.6,22.2,4.04l.8.14c-10.59,5.91-21.2,11.8-31.84,17.63-7.88,10.61-15.83,21.27-22.64,32.61-.55-3.21-1.69-6.29-2.23-9.51-1.38-7.26-.32-14.87,2.54-21.66Z" fill="none"/><path d="M172.8572,123.7196c1.02-1.53,2.08-3.03,3.16-4.51,5.34,9.63,6.98,21.2,4.4,31.91-3.04,12.05-11.33,22.86-22.65,28.19-13.83,6.85-31.16,5.68-43.99-2.85,1.51-1.02,3.1-1.91,4.75-2.7,8.69,5.18,19.39,6.49,29.2,4.22,10.91-2.66,20.56-10.3,25.4-20.47,5.21-10.48,5.2-23.41-.27-33.79Z" fill="url(#uuid-5ae0e296-163f-4df0-ac42-f7413d3703b0)"/><path d="M102.0472,157.7196c6.81-11.34,14.76-22,22.64-32.61,2.14,1.89,4.3,3.78,6.52,5.59-2.76,2.37-5.27,5.56-5.24,9.38-.15,2.97,1.41,5.65,3.01,8.04-5.32,5.45-10.66,10.9-16.56,15.74-4.03,3.27-7.97,6.66-11.49,10.48-4.37,4.68-9.87,8.08-14.39,12.58-2.46,2.38-4.92,4.83-7.95,6.49-.46,0-1.38,0-1.84.01,7.18-10.92,14.82-21.53,22.4-32.17.97-1.17,1.95-2.33,2.9-3.53Z" fill="url(#uuid-48ec1d1d-9816-41b5-a784-0818b9292eaf)"/><path d="M131.2072,130.6996c4.72-2.89,10.76-1.87,14.98,1.44,4.16,4.91,3.8,12.25-.52,16.94-2.46,1.38-5.08,2.78-7.98,2.71-3.32.18-6.18-1.77-8.71-3.67-1.6-2.39-3.16-5.07-3.01-8.04-.03-3.82,2.48-7.01,5.24-9.38ZM134.0472,132.5696c-5.04,2.06-6.85,9.21-2.89,13.14,4.35,5.53,14.62,2.43,15.02-4.64.76-6.22-6.58-11.35-12.13-8.5Z" fill="url(#uuid-783c3688-8dd0-4890-8cfa-cb231f467612)"/><path d="M128.9772,148.1196c2.53,1.9,5.39,3.85,8.71,3.67,2.9.07,5.52-1.33,7.98-2.71,1.97,2.08,3.94,4.18,5.9,6.28-4.35,3.07-9.29,5.16-13.87,7.84-6.45,3.42-12.7,7.2-19.17,10.56-1.65.79-3.24,1.68-4.75,2.7-11.01,6.31-22.27,12.21-33.48,18.17-1.85.99-3.78,1.83-5.75,2.54.64-1.27,1.32-2.51,2.01-3.75h.19c.46-.01,1.38-.01,1.84-.01,3.03-1.66,5.49-4.11,7.95-6.49,4.52-4.5,10.02-7.9,14.39-12.58,3.52-3.82,7.46-7.21,11.49-10.48,5.9-4.84,11.24-10.29,16.56-15.74Z" fill="url(#uuid-da86a118-3dea-4ab1-b17d-467f66a284dc)"/><path d="M208.0272,209.8696c.8-.9,1.93-3.08,3.25-1.4,2.47,2.08,4.7,4.43,6.99,6.72-.81.83-1.63,1.66-2.45,2.49-2.56-2.65-5.15-5.26-7.79-7.81Z" fill="url(#uuid-b5dbb7e6-95a0-464f-ac2a-a990a5dbf40e)"/><path d="M60.5472,216.1396c2-2.78,4.7-4.95,7.33-7.1.61.81,1.11,1.68,1.5,2.62-2.11,2.47-4.35,4.86-6.72,7.07-1.45,1.24-3.65-1.45-2.11-2.59Z" fill="url(#uuid-b0f6ae5c-8ec4-493a-8a9a-1f262cba9652)"/></svg>