<?xml version="1.0" encoding="UTF-8"?><svg id="uuid-8c755870-7891-48f8-851f-54ad41b6cadb" xmlns="http://www.w3.org/2000/svg" xmlns:xlink="http://www.w3.org/1999/xlink" viewBox="0 0 55.0001 60.0003"><defs><linearGradient id="uuid-9f212155-d390-4950-85aa-a1ea95c7091a" x1="23.5" y1="51.0003" x2="43.5" y2="31.0003" gradientTransform="translate(67 82.0006) rotate(-180)" gradientUnits="userSpaceOnUse"><stop offset="0" stop-color="#a62b9f"/><stop offset="1" stop-color="#59c8fa"/></linearGradient><linearGradient id="uuid-4f10f478-318c-4106-a250-76564899cc24" x1="22.7084" y1="19.7919" x2="30.2916" y2="12.2087" gradientTransform="translate(53 32.0006) rotate(-180)" xlink:href="#uuid-9f212155-d390-4950-85aa-a1ea95c7091a"/><linearGradient id="uuid-c21d422d-5d08-41c1-8000-3033a78c6b4d" x1="20.7084" y1="41.7919" x2="28.2916" y2="34.2087" gradientTransform="translate(49 76.0006) rotate(-180)" xlink:href="#uuid-9f212155-d390-4950-85aa-a1ea95c7091a"/><linearGradient id="uuid-44f0dd5d-ba8e-4a82-8403-65d2eee9279e" x1="35.5" y1="34.0003" x2="49.5" y2="20.0003" gradientTransform="translate(85 54.0006) rotate(-180)" xlink:href="#uuid-9f212155-d390-4950-85aa-a1ea95c7091a"/></defs><g id="uuid-46ce9897-622d-455e-8a9e-690e2aff598d"><path d="M49.1836,7.8714c-3.3731-3.8262-7.8682-6.377-12.8701-7.3809C22.0498-2.3708,9.4297,7.6526,7.9941,21.0237c-.1933,1.793-.6816,3.545-1.5449,5.128L0,37.9759l5.7236,2.289c.4981.2002.8243.6807.8243,1.2168v7.0899c0,1.3808,1.1191,2.5,2.5,2.5h6.7851c1.3809,0,2.5,1.1191,2.5,2.5v3.9287c0,1.3809,1.1191,2.5,2.5,2.5h25.1191c1.3809,0,2.5-1.1191,2.5-2.5v-4.7461c0-6.1484,1.2042-12.2969,3.9874-17.7803,1.7402-3.4248,2.5683-7.3662,2.5605-11.4023-.0107-5.4004-1.6445-10.9697-5.8164-15.7002Z" fill="#203b72"/><rect x="32.5" y="22.0003" width="2" height="38" transform="translate(67 82.0006) rotate(180)" fill="url(#uuid-9f212155-d390-4950-85aa-a1ea95c7091a)"/><path d="M18.5,10.0003h5.0459c6.0457,0,10.9541,4.9084,10.9541,10.9541v1.0459h-5.0459c-6.0457,0-10.9541-4.9084-10.9541-10.9541v-1.0459h0Z" transform="translate(53 32.0006) rotate(180)" fill="url(#uuid-4f10f478-318c-4106-a250-76564899cc24)"/><path d="M16.5,32.0003h5.0459c6.0457,0,10.9541,4.9084,10.9541,10.9541v1.0459h-5.0459c-6.0457,0-10.9541-4.9084-10.9541-10.9541v-1.0459h0Z" transform="translate(49 76.0006) rotate(180)" fill="url(#uuid-c21d422d-5d08-41c1-8000-3033a78c6b4d)"/><path d="M45.4541,21.0003h5.0459v1.0459c0,6.0457-4.9084,10.9541-10.9541,10.9541h-5.0459v-1.0459c0-6.0457,4.9084-10.9541,10.9541-10.9541Z" transform="translate(85 54.0006) rotate(180)" fill="url(#uuid-44f0dd5d-ba8e-4a82-8403-65d2eee9279e)"/></g></svg>