<?xml version="1.0" encoding="UTF-8"?><svg id="uuid-2c4570fb-85d4-43db-8de4-40c31905d9d2" xmlns="http://www.w3.org/2000/svg" xmlns:xlink="http://www.w3.org/1999/xlink" viewBox="0 0 60 60"><defs><linearGradient id="uuid-94101575-b022-42ed-a1e7-4d7300a1af96" x1=".6465" y1="60.0606" x2="7.3535" y2="53.3535" gradientUnits="userSpaceOnUse"><stop offset="0" stop-color="#a62b9f"/><stop offset="1" stop-color="#59c8fa"/></linearGradient><linearGradient id="uuid-d7a7eeb7-4000-4f35-91be-93427289f097" x1="10.6465" y1="58.0606" x2="21.3535" y2="47.3535" xlink:href="#uuid-94101575-b022-42ed-a1e7-4d7300a1af96"/><linearGradient id="uuid-b0c2a28e-b3db-4fe3-8208-58d021ac575b" x1="20.6465" y1="56.0606" x2="35.3535" y2="41.3535" xlink:href="#uuid-94101575-b022-42ed-a1e7-4d7300a1af96"/><linearGradient id="uuid-33c6616f-41a7-4f1e-991e-b86be3ac64bb" x1="30.6465" y1="54.0606" x2="49.3535" y2="35.3535" xlink:href="#uuid-94101575-b022-42ed-a1e7-4d7300a1af96"/><linearGradient id="uuid-86a17104-259f-48ec-9b9b-8519120a5113" x1="41.6465" y1="53.0606" x2="62.3535" y2="32.3535" xlink:href="#uuid-94101575-b022-42ed-a1e7-4d7300a1af96"/></defs><g id="uuid-e948b1d2-de33-462f-8a9b-ec36960154f7"><path d="M7,48H1c-.5522,0-1,.4478-1,1v5h8v-5c0-.5522-.4478-1-1-1Z" fill="#203b72"/><path d="M19,38h-6c-.5522,0-1,.4478-1,1v7h8v-7c0-.5522-.4478-1-1-1Z" fill="#203b72"/><path d="M31,28h-6c-.5522,0-1,.4478-1,1v9h8v-9c0-.5522-.4478-1-1-1Z" fill="#203b72"/><path d="M43,18h-6c-.5522,0-1,.4478-1,1v11h8v-11c0-.5522-.4478-1-1-1Z" fill="#203b72"/><rect x="48" y="12" width="8" height="14" fill="#203b72"/><path d="M0,54h8v5c0,.5519-.4481,1-1,1H1c-.5519,0-1-.4481-1-1v-5h0Z" fill="url(#uuid-94101575-b022-42ed-a1e7-4d7300a1af96)"/><path d="M12,46h8v13c0,.5519-.4481,1-1,1h-6c-.5519,0-1-.4481-1-1v-13h0Z" fill="url(#uuid-d7a7eeb7-4000-4f35-91be-93427289f097)"/><path d="M24,38h8v21c0,.5519-.4481,1-1,1h-6c-.5519,0-1-.4481-1-1v-21h0Z" fill="url(#uuid-b0c2a28e-b3db-4fe3-8208-58d021ac575b)"/><path d="M36,30h8v29c0,.5519-.4481,1-1,1h-6c-.5519,0-1-.4481-1-1v-29h0Z" fill="url(#uuid-33c6616f-41a7-4f1e-991e-b86be3ac64bb)"/><path d="M48,26h8v33c0,.5519-.4481,1-1,1h-6c-.5519,0-1-.4481-1-1V26h0Z" fill="url(#uuid-86a17104-259f-48ec-9b9b-8519120a5113)"/><polygon points="52 0 44 12 60 12 52 0" fill="#203b72"/></g></svg>