<?xml version="1.0" encoding="UTF-8"?><svg id="uuid-5805ece7-1a59-4417-b394-93a3743ee080" xmlns="http://www.w3.org/2000/svg" xmlns:xlink="http://www.w3.org/1999/xlink" viewBox="0 0 60 60"><defs><linearGradient id="uuid-c4a47fd1-6fad-4bf9-8667-6a5ad55bcb67" x1="32.6863" y1="55.3137" x2="55.3137" y2="32.6863" gradientUnits="userSpaceOnUse"><stop offset="0" stop-color="#a62b9f"/><stop offset="1" stop-color="#59c8fa"/></linearGradient></defs><g id="uuid-fd851c51-6db8-48e6-bc12-e2cfb5d7bac2"><path d="M7,46H1c-.5527,0-1,.4478-1,1v7h8v-7c0-.5522-.4473-1-1-1Z" fill="#203b72"/><path d="M19,36h-6c-.5527,0-1,.4478-1,1v9h8v-9c0-.5522-.4473-1-1-1Z" fill="#203b72"/><path d="M31,26h-6c-.5527,0-1,.4478-1,1v11h8v-11c0-.5522-.4473-1-1-1Z" fill="#203b72"/><path d="M43,16h-6c-.5527,0-1,.4478-1,1v13h8v-13c0-.5522-.4473-1-1-1Z" fill="#203b72"/><rect x="48" y="10" width="8" height="16" fill="#203b72"/><path d="M8,54H0v5c0,.5522.4473,1,1,1h6c.5527,0,1-.4478,1-1v-5Z" fill="#203b72"/><path d="M20,46h-8v13c0,.5522.4473,1,1,1h6c.5527,0,1-.4478,1-1v-13Z" fill="#203b72"/><path d="M32,38h-8v21c0,.5522.4473,1,1,1h6c.5527,0,1-.4478,1-1v-21Z" fill="#203b72"/><rect x="36" y="30" width="8" height="24" fill="#203b72"/><rect x="48" y="26" width="8" height="28" fill="#203b72"/><polygon points="52 0 44 10 60 10 52 0" fill="#203b72"/><circle cx="44" cy="44" r="16" fill="url(#uuid-c4a47fd1-6fad-4bf9-8667-6a5ad55bcb67)"/><path d="M44,55.5c-.8281,0-1.5-.6714-1.5-1.5s.6719-1.5,1.5-1.5c4.6865,0,8.5-3.813,8.5-8.5,0-2.1226-.7871-4.1548-2.2148-5.7227-.5586-.6123-.5147-1.561.0976-2.1191.6123-.5571,1.5606-.5146,2.1192.0986,1.9335,2.1216,2.998,4.8711,2.998,7.7432,0,6.3413-5.1592,11.5-11.5,11.5Z" fill="#fff"/><polygon points="49.6094 40.1953 48.2041 33.7661 54.4746 35.7627 49.6094 40.1953" fill="#fff"/><path d="M36.6064,52.2329c-.4072,0-.8125-.165-1.1084-.4897-1.9335-2.1216-2.998-4.8711-2.998-7.7432,0-6.3413,5.1592-11.5,11.5-11.5.8281,0,1.5.6714,1.5,1.5s-.6719,1.5-1.5,1.5c-4.6865,0-8.5,3.813-8.5,8.5,0,2.1226.7871,4.1548,2.2148,5.7227.5586.6123.5147,1.561-.0976,2.1191-.2881.2617-.6494.3911-1.0108.3911Z" fill="#fff"/><polygon points="38.3906 47.8047 39.7959 54.2339 33.5254 52.2373 38.3906 47.8047" fill="#fff"/></g></svg>