<?xml version="1.0" encoding="UTF-8"?><svg id="uuid-02c064af-e6ed-4549-bb92-8f094ffe2fe0" xmlns="http://www.w3.org/2000/svg" xmlns:xlink="http://www.w3.org/1999/xlink" viewBox="0 0 60 60"><defs><linearGradient id="uuid-9f1a8d12-6ed3-4e0c-957b-c52505a52dcb" x1="1.222" y1="35.5355" x2="14.2929" y2="22.4645" gradientUnits="userSpaceOnUse"><stop offset="0" stop-color="#a62b9f"/><stop offset="1" stop-color="#59c8fa"/></linearGradient><linearGradient id="uuid-3c3146d8-1d76-4dab-a157-0b3886fd9111" x1="45.7071" y1="35.5355" x2="58.778" y2="22.4645" xlink:href="#uuid-9f1a8d12-6ed3-4e0c-957b-c52505a52dcb"/><linearGradient id="uuid-fec82ebc-1666-4189-9938-d645ed0d60e0" x1="25.1716" y1="60.8284" x2="34.8284" y2="51.1716" xlink:href="#uuid-9f1a8d12-6ed3-4e0c-957b-c52505a52dcb"/></defs><g id="uuid-47c631b1-2b82-43af-9e2a-b7e3261587f6"><path d="M34,58h-4c-1.1045,0-2-.8955-2-2s.8955-2,2-2h4c8.8223,0,16-7.1777,16-16v-18c0-8.8223-7.1777-16-16-16h-8c-8.8223,0-16,7.1777-16,16v9c0,1.1045-.8955,2-2,2s-2-.8955-2-2v-9C6,8.9717,14.9717,0,26,0h8c11.0283,0,20,8.9717,20,20v18c0,11.0283-8.9717,20-20,20Z" fill="#203b72"/><path d="M8,19h2c1.1038,0,2,.8962,2,2v16c0,1.1038-.8962,2-2,2h-2c-4.4153,0-8-3.5847-8-8v-4c0-4.4153,3.5847-8,8-8Z" fill="url(#uuid-9f1a8d12-6ed3-4e0c-957b-c52505a52dcb)"/><path d="M50,19h2c4.4153,0,8,3.5847,8,8v4c0,4.4153-3.5847,8-8,8h-2c-1.1038,0-2-.8962-2-2v-16c0-1.1038.8962-2,2-2Z" fill="url(#uuid-3c3146d8-1d76-4dab-a157-0b3886fd9111)"/><path d="M34,60h-8c-2.209,0-4-1.791-4-4h0c0-2.209,1.791-4,4-4h8c2.209,0,4,1.791,4,4h0c0,2.209-1.791,4-4,4Z" fill="url(#uuid-fec82ebc-1666-4189-9938-d645ed0d60e0)"/><path d="M32.0322,35.3975h-4.0644v-1.7452c0-2.4599,1.5342-4.7089,3.8183-5.5966,1.9131-.7432,3.1494-2.5498,3.1494-4.6026h4.0645c0,3.7422-2.2539,7.0362-5.7422,8.3916-.7334.2842-1.2256,1.0108-1.2256,1.8076v1.7452Z" fill="#203b72"/><path d="M39,23.4531h-4.0645c0-2.7217-2.2138-4.9355-4.9355-4.9355s-4.9355,2.2138-4.9355,4.9355h-4.0645c0-4.9629,4.0371-9,9-9s9,4.0371,9,9Z" fill="#203b72"/><path d="M32.0322,35.3975c0,1.122-.9101,2.0322-2.0322,2.0322s-2.0322-.9102-2.0322-2.0322.9101-2.0323,2.0322-2.0323,2.0322.9102,2.0322,2.0323Z" fill="#203b72"/><path d="M32.0322,42.5146c0,1.1231-.9101,2.0323-2.0322,2.0323s-2.0322-.9092-2.0322-2.0323c0-1.122.9101-2.0322,2.0322-2.0322s2.0322.9102,2.0322,2.0322Z" fill="#203b72"/><path d="M25.0645,23.4531c0,1.1221-.9102,2.0323-2.0323,2.0323s-2.0322-.9102-2.0322-2.0323c0-1.123.9102-2.0322,2.0322-2.0322s2.0323.9092,2.0323,2.0322Z" fill="#203b72"/></g></svg>