<?xml version="1.0" encoding="UTF-8"?><svg id="uuid-aef7f892-a729-48af-8168-1b87c0c01f62" xmlns="http://www.w3.org/2000/svg" xmlns:xlink="http://www.w3.org/1999/xlink" viewBox="0 0 46 60"><defs><linearGradient id="uuid-7bc2fc36-095e-479b-a85b-7d291691a0d6" x1="16.0858" y1="64.9142" x2="29.9142" y2="51.0858" gradientUnits="userSpaceOnUse"><stop offset="0" stop-color="#a62b9f"/><stop offset="1" stop-color="#59c8fa"/></linearGradient><linearGradient id="uuid-18a97203-c895-4d9e-8d62-ab0e18b88635" x1="16.0858" y1="58.9142" x2="29.9142" y2="45.0858" xlink:href="#uuid-7bc2fc36-095e-479b-a85b-7d291691a0d6"/><linearGradient id="uuid-d49db3ae-7932-44d1-9f13-0b6e80f5210f" x1="8.8926" y1="37.7041" x2="36.7207" y2="9.876" xlink:href="#uuid-7bc2fc36-095e-479b-a85b-7d291691a0d6"/><linearGradient id="uuid-008b005f-480c-49c7-9f6f-dd8df7a77396" x1="39.8164" y1="17.7813" x2="45.6782" y2="11.9194" xlink:href="#uuid-7bc2fc36-095e-479b-a85b-7d291691a0d6"/><linearGradient id="uuid-0f79bc89-80eb-498d-a20e-325ebd56f02d" x1="23.271" y1="34.3258" x2="30.3422" y2="27.2546" xlink:href="#uuid-7bc2fc36-095e-479b-a85b-7d291691a0d6"/><linearGradient id="uuid-afb5f845-a5ba-4f3f-84fb-1cdaa8184aee" x1="12.271" y1="23.3258" x2="19.3422" y2="16.2546" xlink:href="#uuid-7bc2fc36-095e-479b-a85b-7d291691a0d6"/></defs><g id="uuid-4f0311b7-afba-4e0b-bd10-a72d11e4f679"><circle cx="23" cy="23" r="23" fill="#203b72"/><path d="M34,60H12c-1.1045,0-2-.8955-2-2h0c0-1.1045.8955-2,2-2h22c1.1045,0,2,.8955,2,2h0c0,1.1045-.8955,2-2,2Z" fill="url(#uuid-7bc2fc36-095e-479b-a85b-7d291691a0d6)"/><path d="M34,54H12c-1.1045,0-2-.8955-2-2h0c0-1.1045.8955-2,2-2h22c1.1045,0,2,.8955,2,2h0c0,1.1045-.8955,2-2,2Z" fill="url(#uuid-18a97203-c895-4d9e-8d62-ab0e18b88635)"/><rect x="10" y="26.2578" width="26" height="21.7422" rx="2" ry="2" fill="#203b72"/><circle cx="23" cy="23" r="19" fill="#fff"/><path d="M23,0v5.75c9.5273,0,17.25,7.7227,17.25,17.25s-7.7227,17.25-17.25,17.25v5.75c12.7021,0,23-10.2979,23-23S35.7021,0,23,0Z" fill="#203b72"/><path d="M26.8066,32.79c-.5117,0-1.0234-.1953-1.414-.5859l-9.586-9.5859-9.5859,9.5859c-.7812.7813-2.0469.7813-2.8281,0-.7813-.7812-.7813-2.0469,0-2.8281l11-11c.7812-.7813,2.0469-.7813,2.8281,0l9.5859,9.5859,12.586-12.5859c.7812-.7813,2.0469-.7813,2.8281,0,.7813.7812.7813,2.0469,0,2.8281l-14,14c-.3906.3906-.9023.5859-1.4141.5859Z" fill="url(#uuid-d49db3ae-7932-44d1-9f13-0b6e80f5210f)"/><polygon points="43.2012 21.166 45.6777 11.9189 36.4316 14.3965 43.2012 21.166" fill="url(#uuid-008b005f-480c-49c7-9f6f-dd8df7a77396)"/><circle cx="26.8066" cy="30.79" r="5" fill="url(#uuid-0f79bc89-80eb-498d-a20e-325ebd56f02d)"/><circle cx="26.8066" cy="30.79" r="2" fill="#fff"/><circle cx="15.8066" cy="19.79" r="5" fill="url(#uuid-afb5f845-a5ba-4f3f-84fb-1cdaa8184aee)"/><circle cx="15.8066" cy="19.79" r="2" fill="#fff"/><path d="M5.75,23c0-9.5273,7.7227-17.25,17.25-17.25V0C10.2979,0,0,10.2979,0,23s10.2979,23,23,23v-5.75c-9.5273,0-17.25-7.7227-17.25-17.25Z" fill="#203b72"/></g></svg>