<?xml version="1.0" encoding="UTF-8"?><svg id="uuid-72250fdd-4aca-434f-a56d-2ce6ae04978e" xmlns="http://www.w3.org/2000/svg" xmlns:xlink="http://www.w3.org/1999/xlink" viewBox="0 0 60 60"><defs><linearGradient id="uuid-61a8f139-9387-4a37-bc16-e7b24f7a515a" x1="49" y1="45" x2="67" y2="27" gradientUnits="userSpaceOnUse"><stop offset="0" stop-color="#a62b9f"/><stop offset="1" stop-color="#59c8fa"/></linearGradient><linearGradient id="uuid-11db2ed5-6265-4b43-bda3-674b41d512bb" x1="42.5002" y1="46.5003" x2="57.4997" y2="31.5008" xlink:href="#uuid-61a8f139-9387-4a37-bc16-e7b24f7a515a"/><linearGradient id="uuid-35d08161-5497-4fd7-ae73-514b326404af" x1="36.2505" y1="48.2505" x2="47.7495" y2="36.7515" xlink:href="#uuid-61a8f139-9387-4a37-bc16-e7b24f7a515a"/><linearGradient id="uuid-de9aa37b-9fe0-4486-978b-893df9fd33a9" x1="26.5002" y1="46.5002" x2="41.4997" y2="31.5007" xlink:href="#uuid-61a8f139-9387-4a37-bc16-e7b24f7a515a"/><linearGradient id="uuid-9b45c662-ddbb-4979-9ef4-ae4a316629d2" x1="21.0005" y1="49.0005" x2="30.9995" y2="39.0015" xlink:href="#uuid-61a8f139-9387-4a37-bc16-e7b24f7a515a"/><linearGradient id="uuid-a5e2cb85-8d45-43b9-a29b-f0972825600b" x1="11.7507" y1="47.7507" x2="24.2493" y2="35.2522" xlink:href="#uuid-61a8f139-9387-4a37-bc16-e7b24f7a515a"/><linearGradient id="uuid-e81b13d7-0dcf-4ec2-b829-4e1351d1f54b" x1="6.0005" y1="50.0005" x2="13.9995" y2="42.0015" xlink:href="#uuid-61a8f139-9387-4a37-bc16-e7b24f7a515a"/></defs><g id="uuid-1e065c2c-c99a-4cfe-b002-6d9b95406883"><path d="M58.2861,56.5713H6c-1.418,0-2.5713-1.1533-2.5713-2.5713V1.7139c0-.9463-.7676-1.7139-1.7148-1.7139C.7676,0,0,.7676,0,1.7139v52.2861c0,3.3086,2.6914,6,6,6h52.2861c.9463,0,1.7139-.7676,1.7139-1.7139,0-.9472-.7676-1.7148-1.7139-1.7148Z" fill="#203b72"/><path d="M22.7617,27.9834c-.4951,0-.9902-.1836-1.375-.5479l-5.9961-5.6748-6.0156,5.6914-2.749-2.9062,7.3896-6.9922c.7725-.7295,1.9795-.7285,2.75.001l6.0537,5.7295,12.4883-10.8574c.7764-.6739,1.9375-.6504,2.6865.0556l6.0284,5.6973,8.6308-8.7568,2.8496,2.8085-10.0058,10.1514c-.7647.7754-2.0069.7959-2.7989.0498l-6.1337-5.7969-12.4903,10.8575c-.3769.3271-.8447.4902-1.3125.4902Z" fill="#203b72"/><polygon points="56.9092 15.9111 59.7197 5.1025 48.9541 8.0703 56.9092 15.9111" fill="#203b72"/><rect x="56" y="20" width="4" height="32" fill="url(#uuid-61a8f139-9387-4a37-bc16-e7b24f7a515a)"/><rect x="48" y="26.001" width="4" height="25.999" fill="url(#uuid-11db2ed5-6265-4b43-bda3-674b41d512bb)"/><rect x="40" y="33.002" width="4" height="18.998" fill="url(#uuid-35d08161-5497-4fd7-ae73-514b326404af)"/><rect x="32" y="26.001" width="4" height="25.999" fill="url(#uuid-de9aa37b-9fe0-4486-978b-893df9fd33a9)"/><rect x="24" y="36.002" width="4" height="15.998" fill="url(#uuid-9b45c662-ddbb-4979-9ef4-ae4a316629d2)"/><rect x="16" y="31.0029" width="4" height="20.9971" fill="url(#uuid-a5e2cb85-8d45-43b9-a29b-f0972825600b)"/><rect x="8" y="40.002" width="4" height="11.998" fill="url(#uuid-e81b13d7-0dcf-4ec2-b829-4e1351d1f54b)"/></g></svg>