<?xml version="1.0" encoding="UTF-8"?><svg id="uuid-f0226a19-38a8-4847-a26e-1b1d03f5f939" xmlns="http://www.w3.org/2000/svg" xmlns:xlink="http://www.w3.org/1999/xlink" viewBox="0 0 55.9999 59.9997"><defs><linearGradient id="uuid-b780bbf2-3840-4f2b-94fa-907e918f91b4" x1="12.0415" y1="24.042" x2="31.9585" y2="4.125" gradientUnits="userSpaceOnUse"><stop offset="0" stop-color="#a62b9f"/><stop offset="1" stop-color="#59c8fa"/></linearGradient></defs><g id="uuid-583b4382-efba-43ad-ab58-4bf2a2dca3e5"><circle cx="22" cy="26" r="22" fill="#fff"/><path d="M54.4116,50.7754l-12.0771-12.0332c-1.9268,3.0693-4.5279,5.6689-7.5967,7.5957l12.0039,12.0791c2.1177,2.1103,5.5518,2.1103,7.6699,0,2.1177-2.1104,2.1177-5.5313,0-7.6416Z" fill="#203b72"/><path d="M31.9585,4.125h0c-5.5-5.5-14.417-5.5-19.917,0h0c-5.4995,5.5-5.4995,14.417,0,19.917l9.9585,9.958,9.9585-9.958c5.4995-5.5,5.4995-14.417,0-19.917Z" fill="url(#uuid-b780bbf2-3840-4f2b-94fa-907e918f91b4)"/><path d="M37.6738,10.5674c.7095,3.1855.4566,6.5449-.7866,9.5986.7095,1.8096,1.1128,3.7735,1.1128,5.834,0,8.8369-7.1636,16-16,16S6,34.8369,6,26c0-2.0605.4033-4.0244,1.1128-5.834-1.2432-3.0537-1.4961-6.4131-.7866-9.5986C2.4155,14.5381,0,19.9863,0,26c0,12.1504,9.8496,22,22,22s22-9.8496,22-22c0-6.0137-2.4155-11.4619-6.3262-15.4326Z" fill="#203b72"/><circle cx="22" cy="14.083" r="8" fill="#fff"/></g></svg>