<?xml version="1.0" encoding="UTF-8"?><svg id="uuid-9c692c36-537d-4b25-a8f0-8a3a618763d8" xmlns="http://www.w3.org/2000/svg" xmlns:xlink="http://www.w3.org/1999/xlink" viewBox="0 0 60 60"><defs><linearGradient id="uuid-6bb87574-209c-4feb-9a4c-f2652f06a112" x1="5.6464" y1="59.6464" x2="8.3536" y2="56.9392" gradientUnits="userSpaceOnUse"><stop offset="0" stop-color="#a62b9f"/><stop offset="1" stop-color="#59c8fa"/></linearGradient><linearGradient id="uuid-7c282657-bef8-4446-b051-35012a640988" x1="13.6464" y1="59.6464" x2="16.3536" y2="56.9392" xlink:href="#uuid-6bb87574-209c-4feb-9a4c-f2652f06a112"/><linearGradient id="uuid-ccf0d640-4d83-4da1-9551-da33b7b5c02d" x1="21.6464" y1="59.6464" x2="24.3536" y2="56.9392" xlink:href="#uuid-6bb87574-209c-4feb-9a4c-f2652f06a112"/><linearGradient id="uuid-8be5c87c-ad67-44df-9f5c-2090d02c673c" x1="29.6464" y1="59.6464" x2="32.3536" y2="56.9392" xlink:href="#uuid-6bb87574-209c-4feb-9a4c-f2652f06a112"/><linearGradient id="uuid-6b284f7b-9897-41d1-b581-f344db3afefd" x1="37.6464" y1="59.6464" x2="40.3536" y2="56.9392" xlink:href="#uuid-6bb87574-209c-4feb-9a4c-f2652f06a112"/><linearGradient id="uuid-f559d3bd-bfe0-4165-ac95-29c172d4f60e" x1="45.6464" y1="59.6464" x2="48.3536" y2="56.9392" xlink:href="#uuid-6bb87574-209c-4feb-9a4c-f2652f06a112"/></defs><g id="uuid-f48ab72d-6ae3-4395-92a0-fbdeb6d7fc13"><path d="M0,0v60h60L0,0ZM10,24.1426l25.8579,25.8574H10v-25.8574Z" fill="#203b72"/><path d="M8,60h-2v-3c0-.5527.4478-1,1-1h0c.5522,0,1,.4473,1,1v3Z" fill="url(#uuid-6bb87574-209c-4feb-9a4c-f2652f06a112)"/><path d="M16,60h-2v-3c0-.5527.4478-1,1-1h0c.5522,0,1,.4473,1,1v3Z" fill="url(#uuid-7c282657-bef8-4446-b051-35012a640988)"/><path d="M24,60h-2v-3c0-.5527.4478-1,1-1h0c.5522,0,1,.4473,1,1v3Z" fill="url(#uuid-ccf0d640-4d83-4da1-9551-da33b7b5c02d)"/><path d="M32,60h-2v-3c0-.5527.4478-1,1-1h0c.5522,0,1,.4473,1,1v3Z" fill="url(#uuid-8be5c87c-ad67-44df-9f5c-2090d02c673c)"/><path d="M40,60h-2v-3c0-.5527.4478-1,1-1h0c.5522,0,1,.4473,1,1v3Z" fill="url(#uuid-6b284f7b-9897-41d1-b581-f344db3afefd)"/><path d="M48,60h-2v-3c0-.5527.4478-1,1-1h0c.5522,0,1,.4473,1,1v3Z" fill="url(#uuid-f559d3bd-bfe0-4165-ac95-29c172d4f60e)"/></g></svg>