<?xml version="1.0" encoding="UTF-8"?><svg id="uuid-abac2b34-7be0-4cac-85ea-60b820abef3d" xmlns="http://www.w3.org/2000/svg" xmlns:xlink="http://www.w3.org/1999/xlink" viewBox="0 0 60 55.6344"><defs><linearGradient id="uuid-d3c5e59a-23ba-4da5-b744-82a9ecaa03cf" x1="41.1347" y1="37.6785" x2="60.8574" y2="17.9559" gradientUnits="userSpaceOnUse"><stop offset="0" stop-color="#a62b9f"/><stop offset="1" stop-color="#59c8fa"/></linearGradient><linearGradient id="uuid-93fff3f1-3262-484b-b875-58e39fe0bacd" x1="37.8858" y1="34.4295" x2="51.1103" y2="21.2049" xlink:href="#uuid-d3c5e59a-23ba-4da5-b744-82a9ecaa03cf"/></defs><g id="uuid-8f9023e4-f55c-47dd-b14f-bc505d9d6575"><path d="M2,18.8172h8v18H3c-1.6557,0-3-1.3443-3-3v-13c0-1.1038.8962-2,2-2Z" fill="#203b72"/><path d="M12,18.8172L34.7432.4481c1.3076-1.0567,3.2568-.126,3.2568,1.5556v51.627c0,1.6816-1.9492,2.6123-3.2568,1.5556l-22.7432-18.3691v-18Z" fill="#203b72"/><path d="M50.9961,46.7117c-.5117,0-1.0234-.1953-1.4141-.5859-.7812-.7813-.7812-2.0469,0-2.8281,4.1387-4.1387,6.418-9.6367,6.418-15.4805s-2.2793-11.3418-6.418-15.4805c-.7812-.7812-.7812-2.0468,0-2.8281.7813-.7812,2.0469-.7812,2.8282,0,4.8945,4.8936,7.5898,11.3955,7.5898,18.3086s-2.6953,13.415-7.5898,18.3086c-.3907.3906-.9024.5859-1.4141.5859Z" fill="url(#uuid-d3c5e59a-23ba-4da5-b744-82a9ecaa03cf)"/><path d="M44.498,40.2137c-.5117,0-1.0234-.1953-1.414-.586-.7813-.7812-.7813-2.0478,0-2.8281,2.4014-2.4013,3.7246-5.5918,3.7246-8.9824s-1.3232-6.5811-3.7246-8.9824c-.7813-.7803-.7813-2.0469,0-2.8281.7812-.7813,2.0469-.7813,2.8281,0,3.1572,3.1562,4.8965,7.3505,4.8965,11.8105s-1.7393,8.6543-4.8965,11.8105c-.3906.3907-.9023.586-1.4141.586Z" fill="url(#uuid-93fff3f1-3262-484b-b875-58e39fe0bacd)"/></g></svg>