<?xml version="1.0" encoding="UTF-8"?><svg id="uuid-5a70f15c-b47b-45b5-b14c-e131db124aa6" xmlns="http://www.w3.org/2000/svg" xmlns:xlink="http://www.w3.org/1999/xlink" viewBox="0 0 60 60"><defs><linearGradient id="uuid-1489fcb6-fb35-4fbe-82f8-86a0cf424f9c" x1="34.5" y1="25.5" x2="47.5" y2="12.5" gradientUnits="userSpaceOnUse"><stop offset="0" stop-color="#a62b9f"/><stop offset="1" stop-color="#59c8fa"/></linearGradient><linearGradient id="uuid-157a8455-ba1f-4274-bc69-48dcfb902a91" x1="35" y1="18" x2="47" y2="6" xlink:href="#uuid-1489fcb6-fb35-4fbe-82f8-86a0cf424f9c"/><linearGradient id="uuid-55311dda-123b-4396-8d69-07075b631f2c" x1="14.5" y1="27.5" x2="23.5" y2="18.5" xlink:href="#uuid-1489fcb6-fb35-4fbe-82f8-86a0cf424f9c"/><linearGradient id="uuid-06192cde-287f-44fd-b53e-964d5b9ac518" x1="13" y1="26" x2="25" y2="14" xlink:href="#uuid-1489fcb6-fb35-4fbe-82f8-86a0cf424f9c"/><linearGradient id="uuid-51f79d47-1617-4317-bb53-1e344b6ca8d5" x1="44.8785" y1="46.1214" x2="49.1214" y2="41.8786" xlink:href="#uuid-1489fcb6-fb35-4fbe-82f8-86a0cf424f9c"/><linearGradient id="uuid-a415b654-6f0a-4f8e-a3c2-3929a022786c" x1="23.636" y1="50.364" x2="36.364" y2="37.636" xlink:href="#uuid-1489fcb6-fb35-4fbe-82f8-86a0cf424f9c"/><linearGradient id="uuid-21370388-21ab-4c16-97a5-64b60474adab" x1="10.8785" y1="46.1214" x2="15.1214" y2="41.8786" xlink:href="#uuid-1489fcb6-fb35-4fbe-82f8-86a0cf424f9c"/></defs><g id="uuid-4ce10e1e-f72b-42ec-b20e-992f8eef9c78"><rect y="28" width="60" height="32" rx="2" ry="2" fill="#203b72"/><path d="M52,32H8c0,2.209-1.791,4-4,4v16c2.209,0,4,1.791,4,4h44c0-2.209,1.791-4,4-4v-16c-2.209,0-4-1.791-4-4Z" fill="#fff"/><rect x="35" y="12" width="12" height="14" fill="url(#uuid-1489fcb6-fb35-4fbe-82f8-86a0cf424f9c)"/><polygon points="41 0 29 12 53 12 41 0" fill="url(#uuid-157a8455-ba1f-4274-bc69-48dcfb902a91)"/><rect x="13" y="20" width="12" height="6" fill="url(#uuid-55311dda-123b-4396-8d69-07075b631f2c)"/><polygon points="19 8 7 20 31 20 19 8" fill="url(#uuid-06192cde-287f-44fd-b53e-964d5b9ac518)"/><circle cx="47" cy="44" r="3" fill="url(#uuid-51f79d47-1617-4317-bb53-1e344b6ca8d5)"/><circle cx="30" cy="44" r="9" fill="url(#uuid-a415b654-6f0a-4f8e-a3c2-3929a022786c)"/><circle cx="13" cy="44" r="3" fill="url(#uuid-21370388-21ab-4c16-97a5-64b60474adab)"/></g></svg>