<?xml version="1.0" encoding="UTF-8"?><svg id="uuid-9bbfa2c6-e269-4c49-b1e6-045e274b5941" xmlns="http://www.w3.org/2000/svg" xmlns:xlink="http://www.w3.org/1999/xlink" viewBox="0 0 60 60"><defs><linearGradient id="uuid-8309b305-a707-4a7b-918a-7daeb205beab" x1="2.3785" y1="54.6214" x2="57.6214" y2="-.6214" gradientUnits="userSpaceOnUse"><stop offset="0" stop-color="#a62b9f"/><stop offset="1" stop-color="#59c8fa"/></linearGradient><linearGradient id="uuid-6fc85b60-8a8c-4a13-b63f-7fb7138b42aa" x1="36.4644" y1="46.5356" x2="43.5356" y2="39.4644" xlink:href="#uuid-8309b305-a707-4a7b-918a-7daeb205beab"/></defs><g id="uuid-8a294815-df75-4561-89b4-08165a75a78c"><rect width="60" height="54" rx="3" ry="3" fill="url(#uuid-8309b305-a707-4a7b-918a-7daeb205beab)"/><rect x="4" y="4" width="52" height="46" rx="1" ry="1" fill="#203b72"/><polygon points="34 49 34 60 40 56.7275 46 60 46 49 34 49" fill="#203b72"/><circle cx="40" cy="43" r="9" fill="#fff"/><circle cx="40" cy="43" r="5" fill="url(#uuid-6fc85b60-8a8c-4a13-b63f-7fb7138b42aa)"/><path d="M38.4004,12h-16.8008c-.5527,0-1-.4473-1-1s.4473-1,1-1h16.8008c.5527,0,1,.4473,1,1s-.4473,1-1,1Z" fill="#fff"/><path d="M48,18h-18c-.5527,0-1-.4473-1-1s.4473-1,1-1h18c.5527,0,1,.4473,1,1s-.4473,1-1,1Z" fill="#fff"/><path d="M24.2002,18h-12.2002c-.5527,0-1-.4473-1-1s.4473-1,1-1h12.2002c.5527,0,1,.4473,1,1s-.4473,1-1,1Z" fill="#fff"/><path d="M48,24h-9.5996c-.5527,0-1-.4473-1-1s.4473-1,1-1h9.5996c.5527,0,1,.4473,1,1s-.4473,1-1,1Z" fill="#fff"/><path d="M32.5996,24H12c-.5527,0-1-.4473-1-1s.4473-1,1-1h20.5996c.5527,0,1,.4473,1,1s-.4473,1-1,1Z" fill="#fff"/><path d="M48,30h-21.5996c-.5527,0-1-.4473-1-1s.4473-1,1-1h21.5996c.5527,0,1,.4473,1,1s-.4473,1-1,1Z" fill="#fff"/><path d="M20.5996,30h-8.5996c-.5527,0-1-.4473-1-1s.4473-1,1-1h8.5996c.5527,0,1,.4473,1,1s-.4473,1-1,1Z" fill="#fff"/><path d="M28,36H12c-.5527,0-1-.4473-1-1s.4473-1,1-1h16c.5527,0,1,.4473,1,1s-.4473,1-1,1Z" fill="#fff"/><path d="M26,44c-1.5371,0-2.3408-.6875-2.9854-1.2412-.5341-.457-.8867-.7588-1.6835-.7588-.7979,0-1.1504.3018-1.6846.7598-.6445.5527-1.4473,1.2402-2.9844,1.2402-1.5361,0-2.3379-.6885-2.9824-1.2412-.5322-.457-.8848-.7588-1.6797-.7588-.5527,0-1-.4473-1-1s.4473-1,1-1c1.5361,0,2.3379.6885,2.9824,1.2412.5322.457.8848.7588,1.6797.7588.7969,0,1.1494-.3018,1.6836-.7588.6445-.5537,1.4482-1.2412,2.9854-1.2412s2.3398.6875,2.9843,1.2402c.5342.458.8867.7598,1.6846.7598.5527,0,1,.4473,1,1s-.4473,1-1,1Z" fill="#fff"/></g></svg>