<?xml version="1.0" encoding="UTF-8"?><svg id="uuid-fea4f955-dac3-4064-a010-6f602ad0b431" xmlns="http://www.w3.org/2000/svg" xmlns:xlink="http://www.w3.org/1999/xlink" viewBox="0 0 60 60"><defs><linearGradient id="uuid-aad688f8-ecf5-4c07-897f-b36850f6f196" x1="14" y1="58" x2="46" y2="26" gradientUnits="userSpaceOnUse"><stop offset="0" stop-color="#a62b9f"/><stop offset="1" stop-color="#59c8fa"/></linearGradient><linearGradient id="uuid-eabc70ea-86af-415d-89a9-0bc66d1a1a81" x1="19.1465" y1="29.3535" x2="19.8535" y2="28.6465" xlink:href="#uuid-aad688f8-ecf5-4c07-897f-b36850f6f196"/><linearGradient id="uuid-d2bc19d5-b4e6-4c2a-aa9f-0cb5bdd096f2" x1="17.6465" y1="30.8535" x2="21.3535" y2="27.1465" xlink:href="#uuid-aad688f8-ecf5-4c07-897f-b36850f6f196"/><linearGradient id="uuid-f1f3d26b-f5d2-4495-aade-4b8083d8c7c2" x1="39.1465" y1="29.3535" x2="39.8535" y2="28.6465" xlink:href="#uuid-aad688f8-ecf5-4c07-897f-b36850f6f196"/><linearGradient id="uuid-327bff7d-d285-432e-abd0-7493970fc74c" x1="37.6465" y1="30.8535" x2="41.3535" y2="27.1465" xlink:href="#uuid-aad688f8-ecf5-4c07-897f-b36850f6f196"/><linearGradient id="uuid-5a3a7fe3-b288-49a2-968c-be9cef228a5e" x1="29.1465" y1="19.3535" x2="29.8535" y2="18.6465" xlink:href="#uuid-aad688f8-ecf5-4c07-897f-b36850f6f196"/><linearGradient id="uuid-a9a2cfc3-5890-4c42-85c4-fcdce858f8c4" x1="27.6465" y1="20.8535" x2="31.3535" y2="17.1465" xlink:href="#uuid-aad688f8-ecf5-4c07-897f-b36850f6f196"/><linearGradient id="uuid-c40c2950-0d47-4ada-bf7a-eafaa14361f4" x1="19.1465" y1="9.3535" x2="19.8535" y2="8.6465" xlink:href="#uuid-aad688f8-ecf5-4c07-897f-b36850f6f196"/><linearGradient id="uuid-396a7992-451a-46e1-8cb2-f8db291fb559" x1="17.6465" y1="10.8535" x2="21.3535" y2="7.1465" xlink:href="#uuid-aad688f8-ecf5-4c07-897f-b36850f6f196"/></defs><g id="uuid-4150cd91-2dca-4fb6-9306-de3208e3427a"><path d="M5,0h50c1.1038,0,2,.8962,2,2v38H3V2c0-1.1038.8962-2,2-2Z" fill="#203b72"/><rect y="40" width="60" height="4" fill="url(#uuid-aad688f8-ecf5-4c07-897f-b36850f6f196)"/><rect x="43" y="44" width="4" height="16" fill="#203b72"/><rect x="13" y="44" width="4" height="16" fill="#203b72"/><path d="M42.5,35h-17.5c-.5527,0-1-.4473-1-1s.4473-1,1-1h17.5c2.2061,0,4-1.7939,4-4s-1.7939-4-4-4h-16c-3.3086,0-6-2.6914-6-6s2.6914-6,6-6h8.5146c1.336,0,2.5918-.5205,3.5362-1.4648l5.1972-5.1983c.3907-.3906,1.0235-.3906,1.4141,0s.3906,1.0235,0,1.4141l-5.1973,5.1982c-1.3222,1.3223-3.08,2.0508-4.9502,2.0508h-8.5146c-2.2061,0-4,1.7939-4,4s1.7939,4,4,4h16c3.3086,0,6,2.6914,6,6s-2.6914,6-6,6Z" fill="#fff"/><polygon points="45.9521 9.7793 47.5 4 41.7217 5.5479 45.9521 9.7793" fill="#fff"/><path d="M21,31c-.1279,0-.2559-.0488-.3535-.1465l-3-3c-.1953-.1953-.1953-.5117,0-.707s.5117-.1953.707,0l3,3c.1953.1953.1953.5117,0,.707-.0976.0977-.2256.1465-.3535.1465Z" fill="url(#uuid-eabc70ea-86af-415d-89a9-0bc66d1a1a81)"/><path d="M18,31c-.1279,0-.2559-.0488-.3535-.1465-.1953-.1953-.1953-.5117,0-.707l3-3c.1953-.1953.5117-.1953.707,0s.1953.5117,0,.707l-3,3c-.0976.0977-.2256.1465-.3535.1465Z" fill="url(#uuid-d2bc19d5-b4e6-4c2a-aa9f-0cb5bdd096f2)"/><path d="M41,31c-.1279,0-.2559-.0488-.3535-.1465l-3-3c-.1953-.1953-.1953-.5117,0-.707s.5117-.1953.707,0l3,3c.1953.1953.1953.5117,0,.707-.0976.0977-.2256.1465-.3535.1465Z" fill="url(#uuid-f1f3d26b-f5d2-4495-aade-4b8083d8c7c2)"/><path d="M38,31c-.1279,0-.2559-.0488-.3535-.1465-.1953-.1953-.1953-.5117,0-.707l3-3c.1953-.1953.5117-.1953.707,0s.1953.5117,0,.707l-3,3c-.0976.0977-.2256.1465-.3535.1465Z" fill="url(#uuid-327bff7d-d285-432e-abd0-7493970fc74c)"/><path d="M31,21c-.1279,0-.2559-.0488-.3535-.1465l-3-3c-.1953-.1953-.1953-.5117,0-.707s.5117-.1953.707,0l3,3c.1953.1953.1953.5117,0,.707-.0976.0977-.2256.1465-.3535.1465Z" fill="url(#uuid-5a3a7fe3-b288-49a2-968c-be9cef228a5e)"/><path d="M28,21c-.1279,0-.2559-.0488-.3535-.1465-.1953-.1953-.1953-.5117,0-.707l3-3c.1953-.1953.5117-.1953.707,0s.1953.5117,0,.707l-3,3c-.0976.0977-.2256.1465-.3535.1465Z" fill="url(#uuid-a9a2cfc3-5890-4c42-85c4-fcdce858f8c4)"/><path d="M21,11c-.1279,0-.2559-.0488-.3535-.1465l-3-3c-.1953-.1953-.1953-.5117,0-.707s.5117-.1953.707,0l3,3c.1953.1953.1953.5117,0,.707-.0976.0977-.2256.1465-.3535.1465Z" fill="url(#uuid-c40c2950-0d47-4ada-bf7a-eafaa14361f4)"/><path d="M18,11c-.1279,0-.2559-.0488-.3535-.1465-.1953-.1953-.1953-.5117,0-.707l3-3c.1953-.1953.5117-.1953.707,0s.1953.5117,0,.707l-3,3c-.0976.0977-.2256.1465-.3535.1465Z" fill="url(#uuid-396a7992-451a-46e1-8cb2-f8db291fb559)"/><circle cx="10" cy="34" r="1" fill="#fff"/><circle cx="14" cy="34" r="1" fill="#fff"/><path d="M21,35h-3c-.5527,0-1-.4473-1-1h0c0-.5527.4473-1,1-1h3c.5527,0,1,.4473,1,1h0c0,.5527-.4473,1-1,1Z" fill="#fff"/></g></svg>