<?xml version="1.0" encoding="UTF-8"?><svg id="uuid-413b5d07-ad58-498c-88b4-3d5d27d82f17" xmlns="http://www.w3.org/2000/svg" xmlns:xlink="http://www.w3.org/1999/xlink" viewBox="0 0 60 60"><defs><linearGradient id="uuid-3a0eeb44-7816-48de-a8cb-2de98407cd18" x1="14" y1="58" x2="46" y2="26" gradientUnits="userSpaceOnUse"><stop offset="0" stop-color="#a62b9f"/><stop offset="1" stop-color="#59c8fa"/></linearGradient></defs><g id="uuid-e3d99911-abc6-4f24-b2e4-3bcec83f1282"><path d="M5,0h50c1.1038,0,2,.8962,2,2v38H3V2c0-1.1038.8962-2,2-2Z" fill="#203b72"/><rect y="40" width="60" height="4" fill="url(#uuid-3a0eeb44-7816-48de-a8cb-2de98407cd18)"/><polygon points="51 60 47 60 40 44 44 44 51 60" fill="#203b72"/><polygon points="13 60 9 60 15 44 19 44 13 60" fill="#203b72"/><polygon points="10 27.5313 20.1572 17.375 24.5195 21.7373 34.1035 12.1543 38.9746 17.0254 50 6 50 34 10 34 10 27.5313" fill="#fff"/></g></svg>