<?xml version="1.0" encoding="UTF-8"?><svg id="uuid-5d3e0552-4313-44ca-ae3c-89b7ae9dcf5c" xmlns="http://www.w3.org/2000/svg" xmlns:xlink="http://www.w3.org/1999/xlink" viewBox="0 0 60 60"><defs><linearGradient id="uuid-c363b0f6-0e10-403c-aeb0-bf18e0e9e246" x1="1.7593" y1="58.2407" x2="31.2122" y2="28.7878" gradientUnits="userSpaceOnUse"><stop offset="0" stop-color="#a62b9f"/><stop offset="1" stop-color="#59c8fa"/></linearGradient><linearGradient id="uuid-458f1acf-3e17-412e-9150-4b27d142261a" x1="20.5" y1="52.5" x2="45.5" y2="27.5" xlink:href="#uuid-c363b0f6-0e10-403c-aeb0-bf18e0e9e246"/></defs><g id="uuid-12b67aea-1059-41ec-bbdc-0209b89d5be5"><path d="M58.2861,56.5713H6c-1.418,0-2.5713-1.1533-2.5713-2.5713V1.7144c0-.9468-.7676-1.7144-1.7148-1.7144C.7676,0,0,.7676,0,1.7144v52.2856c0,3.3086,2.6914,6,6,6h52.2861c.9463,0,1.7139-.7676,1.7139-1.7144s-.7676-1.7143-1.7139-1.7143Z" fill="url(#uuid-c363b0f6-0e10-403c-aeb0-bf18e0e9e246)"/><polygon points="29 51 9 51 19 11 29 51" fill="#203b72"/><polygon points="47 51 19 51 33 15 47 51" fill="url(#uuid-458f1acf-3e17-412e-9150-4b27d142261a)"/><polygon points="60 51 38 51 49 0 60 51" fill="#203b72"/></g></svg>