<?xml version="1.0" encoding="UTF-8"?><svg id="uuid-27df000a-a31f-4a51-97d7-986e7fadad0f" xmlns="http://www.w3.org/2000/svg" xmlns:xlink="http://www.w3.org/1999/xlink" viewBox="0 0 60 60.0002"><defs><linearGradient id="uuid-2e91dfb0-1347-4341-81f9-b6626f573a92" x1="22.2232" y1="37.0787" x2="46.6494" y2="12.6525" gradientUnits="userSpaceOnUse"><stop offset="0" stop-color="#a62b9f"/><stop offset="1" stop-color="#59c8fa"/></linearGradient><linearGradient id="uuid-1c8999cb-fec6-4130-b429-a9082cfaccb5" x1="15.7034" y1="22.5206" x2="26.107" y2="12.117" xlink:href="#uuid-2e91dfb0-1347-4341-81f9-b6626f573a92"/><linearGradient id="uuid-a02f4e50-eb8a-4c4b-968e-96b741cce3eb" x1="41.9839" y1="11.1115" x2="45.5953" y2="7.5001" xlink:href="#uuid-2e91dfb0-1347-4341-81f9-b6626f573a92"/><linearGradient id="uuid-36ca36c4-d774-4159-aa1d-7fb03804896d" x1="38.6574" y1="36.6075" x2="50.7147" y2="24.5503" xlink:href="#uuid-2e91dfb0-1347-4341-81f9-b6626f573a92"/><linearGradient id="uuid-50eecd99-66cb-452c-bea2-77fb844f01be" x1="15.3166" y1="47.9637" x2="28.1247" y2="35.1557" xlink:href="#uuid-2e91dfb0-1347-4341-81f9-b6626f573a92"/><linearGradient id="uuid-bbdd2eed-8dc8-4750-a0fa-c3e2a0de70ac" x1="27.8338" y1="6.7354" x2="33.4134" y2="1.1558" xlink:href="#uuid-2e91dfb0-1347-4341-81f9-b6626f573a92"/></defs><g id="uuid-af108766-923a-4e9d-a0b0-ae8fc92d77b5"><path d="M45.1719,12.1291c-.5073,0-1.043.1768-1.5528.5938l-5.2675,4.5205-6.8423-7.0303c-.4883-.5029-1.1275-.8672-1.8667-1.0147-.2393-.0498-.4737-.0732-.7022-.0732-1.8056,0-3.2329,1.4727-3.604,3.332q-2.7549,13.7959-2.7549,13.7959c-.3911,1.3672.0381,2.8926,1.3164,3.711l9.1241,5.9004-1.8487,8.6054c-.3388,1.8028,1.0337,2.8838,2.396,2.8838.9966,0,1.9878-.5781,2.2998-1.875l2.1934-10.209c.1523-.7343-.043-1.542-.5991-2.1259l-6.9614-7.3116,1.2934-6.4765,5.1924,3.2099c.3794.2344.8125.3526,1.2476.3526.5478,0,1.0981-.1875,1.5463-.5723l6.9654-5.9785c1.8647-1.6856.3501-4.2383-1.5752-4.2383Z" fill="url(#uuid-2e91dfb0-1347-4341-81f9-b6626f573a92)"/><path d="M21.4546,24.2346l2.4106-12.0713c.1221-.6104.3335-1.1709.6036-1.6846l-.2413-.0381c-3.6684-.5791-7.1118,1.9248-7.6904,5.5938l-.8452,5.3554c-.1655,1.0479.5498,2.0323,1.5981,2.1973l4.1626.6572c.001-.0039.0015-.0058.002-.0097Z" fill="url(#uuid-1c8999cb-fec6-4130-b429-a9082cfaccb5)"/><path d="M45.1719,10.6291c.125,0,.2475.0176.3706.0293v-2.5898c0-.8282-.6714-1.5-1.5-1.5s-1.5.6718-1.5,1.5v3.6015l.1274-.1094c.7466-.6093,1.6114-.9316,2.502-.9316Z" fill="url(#uuid-a02f4e50-eb8a-4c4b-968e-96b741cce3eb)"/><path d="M42.5425,39.8713c0,.8281.6714,1.5,1.5,1.5s1.5-.6719,1.5-1.5v-20.4932l-3,2.5742v17.919Z" fill="url(#uuid-36ca36c4-d774-4159-aa1d-7fb03804896d)"/><path d="M22.1431,30.4035c-1.0108,4.9619-3.4532,16.9649-3.8487,19.0322-.5962,3.1172,4.191,4.0235,4.7168.9063.0098-.0596,2.2017-11.7119,3.2129-17.0869l-3.1352-2.0274c-.3614-.2314-.67-.5156-.9458-.8242Z" fill="url(#uuid-50eecd99-66cb-452c-bea2-77fb844f01be)"/><path d="M30.9282,7.8791c2.1724-.168,3.7974-2.0654,3.6289-4.2383-.1679-2.1718-2.0654-3.7968-4.2378-3.6289-2.1728.168-3.7973,2.0654-3.6294,4.2383.1685,2.1729,2.066,3.7969,4.2383,3.6289Z" fill="url(#uuid-bbdd2eed-8dc8-4750-a0fa-c3e2a0de70ac)"/><path d="M0,60.0002l7.7793-4.2979c.9624-.5312,1.9976-.9189,3.0728-1.1494l9.767-2.0986c.8565-.1846,1.6519-.585,2.3096-1.1641l3.4131-3.0019c.6846-.6026,1.5649-.9346,2.4766-.9346h7.6269c.8721,0,1.7144-.3183,2.3687-.8945l6.5869-5.8037c.8144-.7178,1.7768-1.2481,2.8188-1.5528l3.9991-1.1699c.9238-.2695,1.748-.8056,2.3701-1.54l5.4111-6.3926v30H0Z" fill="#203b72"/></g></svg>