<?xml version="1.0" encoding="UTF-8"?><svg id="uuid-7e623777-ce87-475b-8d1d-846620dbe0f9" xmlns="http://www.w3.org/2000/svg" xmlns:xlink="http://www.w3.org/1999/xlink" viewBox="0 0 60 60.0001"><defs><linearGradient id="uuid-e1394960-fe45-4d06-9a9b-d31b88598c3e" x1=".5858" y1="59.4142" x2="11.4142" y2="48.5859" gradientUnits="userSpaceOnUse"><stop offset="0" stop-color="#a62b9f"/><stop offset="1" stop-color="#59c8fa"/></linearGradient><linearGradient id="uuid-bcb78cb5-acd6-4d0d-9383-661f7cd68d15" x1="15.5858" y1="58.4142" x2="28.4142" y2="45.5859" xlink:href="#uuid-e1394960-fe45-4d06-9a9b-d31b88598c3e"/><linearGradient id="uuid-4b6ee406-6045-427c-9201-7531846cb3d1" x1="29.8358" y1="56.6642" x2="46.1642" y2="40.3359" xlink:href="#uuid-e1394960-fe45-4d06-9a9b-d31b88598c3e"/><linearGradient id="uuid-08084864-e4ff-4038-a5dc-f851ede57f42" x1="44.0858" y1="54.9142" x2="63.9142" y2="35.0859" xlink:href="#uuid-e1394960-fe45-4d06-9a9b-d31b88598c3e"/></defs><g id="uuid-e0362a66-883e-4b1e-bcf3-4b1ee01cf0e9"><rect y="48.0001" width="12" height="12" rx="2" ry="2" fill="url(#uuid-e1394960-fe45-4d06-9a9b-d31b88598c3e)"/><rect x="16" y="44.0001" width="12" height="16" rx="2" ry="2" fill="url(#uuid-bcb78cb5-acd6-4d0d-9383-661f7cd68d15)"/><rect x="32" y="37.0001" width="12" height="23" rx="2" ry="2" fill="url(#uuid-4b6ee406-6045-427c-9201-7531846cb3d1)"/><rect x="48" y="30.0001" width="12" height="30" rx="2" ry="2" fill="url(#uuid-08084864-e4ff-4038-a5dc-f851ede57f42)"/><path d="M24.9131,7.3263c2.0088.3384,3.9111-1.0152,4.25-3.0244.3389-2.0083-1.0156-3.9112-3.0235-4.25-2.0087-.3384-3.9121,1.0151-4.2509,3.0239-.3389,2.0088,1.0156,3.9116,3.0244,4.2505Z" fill="#203b72"/><path d="M39.4209,14.3121c-.4023-1.0166-1.5762-1.5005-2.627-1.2012l-2.8642.6851c-.6777.1929-1.4063.0449-1.9561-.3965l-3.6259-2.9165c-2.462-1.98-5.7217-3.0308-8.7735-2.209-1.3027.3506-4.4033,1.5059-6.0088,2.1143-.6543.248-1.2158.6811-1.624,1.25l-2.6133,3.9878c-.5771.8867-.4902,2.1025.3047,2.8008.3096.2719.6699.4345,1.0361.4961.7959.1342,1.6319-.2017,2.1006-.9209l2.0909-3.2867c.2187-.3061.5283-.5346.8847-.6538l3.3535-1.1201-1.7978,9.7656c-.1113.6563-.4629,1.2476-.9863,1.6577l-3.7676,2.9512-6.627-2.3052c-1.4228-.4946-2.9922.4058-3.2197,1.9761-.1689,1.167.5918,2.2744,1.7061,2.6611l6.9951,2.4273c1.1113.3857,2.3408.1977,3.2861-.5024l6.1309-4.5415,4.1357,6.3608-4.0811,6.8213c-.6191,1.0342-.4794,2.4077.4366,3.1909.3593.3076.7724.4912,1.1924.562.9619.1621,1.9677-.2656,2.499-1.1533l4.499-7.5542c.6865-1.1524.667-2.5923-.0498-3.7251l-3.5283-5.5752c-.3516-.5562-.4854-1.2227-.376-1.8716l1.6914-9.1328,3.3867,2.6196c.8946.6919,2.0645.918,3.1514.6089l4.2773-1.083c1.1787-.3359,1.8311-1.6186,1.3682-2.7876Z" fill="#203b72"/></g></svg>