<?xml version="1.0" encoding="UTF-8"?><svg id="uuid-e60db9d5-aedd-4c70-9321-7737e6bd7648" xmlns="http://www.w3.org/2000/svg" xmlns:xlink="http://www.w3.org/1999/xlink" viewBox="0 0 60 60"><defs><linearGradient id="uuid-a5cb40d3-2538-4939-bddc-041fc815233a" x1="13.7574" y1="70.2426" x2="46.2426" y2="37.7574" gradientUnits="userSpaceOnUse"><stop offset="0" stop-color="#a62b9f"/><stop offset="1" stop-color="#59c8fa"/></linearGradient><linearGradient id="uuid-6633fd4f-2c23-4a56-9c71-47d0292396c4" x1="23.2928" y1="13.7072" x2="36.7072" y2=".2928" xlink:href="#uuid-a5cb40d3-2538-4939-bddc-041fc815233a"/><linearGradient id="uuid-bcf0a5ea-1987-492f-8c92-741e0e9d088b" x1="27.6464" y1="25.0608" x2="32.3536" y2="20.3536" xlink:href="#uuid-a5cb40d3-2538-4939-bddc-041fc815233a"/></defs><g id="uuid-e9168ba2-b1eb-42b1-824b-ce01726eb1a7"><path d="M54,60H6c-3.3135,0-6-2.6865-6-6h0c0-3.3135,2.6865-6,6-6h48c3.3135,0,6,2.6865,6,6h0c0,3.3135-2.6865,6-6,6Z" fill="url(#uuid-a5cb40d3-2538-4939-bddc-041fc815233a)"/><rect y="6" width="60" height="2" fill="#203b72"/><path d="M47,55h-10c-.5527,0-1-.4478-1-1h0c0-.5522.4473-1,1-1h10c.5527,0,1,.4478,1,1h0c0,.5522-.4473,1-1,1Z" fill="#203b72"/><path d="M23,55h-10c-.5527,0-1-.4478-1-1h0c0-.5522.4473-1,1-1h10c.5527,0,1,.4478,1,1h0c0,.5522-.4473,1-1,1Z" fill="#203b72"/><rect x="23" width="14" height="14" rx="1" ry="1" fill="url(#uuid-6633fd4f-2c23-4a56-9c71-47d0292396c4)"/><path d="M26,14h8v5c0,.5519-.4481,1-1,1h-6c-.5519,0-1-.4481-1-1v-5h0Z" fill="#203b72"/><path d="M35.5,48h-13.5v-2h13.5c.2754,0,.5-.2241.5-.5s-.2246-.5-.5-.5h-11c-1.3789,0-2.5-1.1216-2.5-2.5s1.1211-2.5,2.5-2.5h11c.2754,0,.5-.2241.5-.5s-.2246-.5-.5-.5h-11c-1.3789,0-2.5-1.1216-2.5-2.5s1.1211-2.5,2.5-2.5h11c.2754,0,.5-.2241.5-.5s-.2246-.5-.5-.5h-11c-1.3789,0-2.5-1.1216-2.5-2.5s1.1211-2.5,2.5-2.5h4c.2754,0,.5-.2241.5-.5v-4.5h2v4.5c0,1.3784-1.1211,2.5-2.5,2.5h-4c-.2754,0-.5.2241-.5.5s.2246.5.5.5h11c1.3789,0,2.5,1.1216,2.5,2.5s-1.1211,2.5-2.5,2.5h-11c-.2754,0-.5.2241-.5.5s.2246.5.5.5h11c1.3789,0,2.5,1.1216,2.5,2.5s-1.1211,2.5-2.5,2.5h-11c-.2754,0-.5.2241-.5.5s.2246.5.5.5h11c1.3789,0,2.5,1.1216,2.5,2.5s-1.1211,2.5-2.5,2.5Z" fill="#203b72"/><circle cx="6" cy="54" r="4" fill="#203b72"/><path d="M31,26h-2c-.5527,0-1-.4478-1-1v-5h4v5c0,.5522-.4473,1-1,1Z" fill="url(#uuid-bcf0a5ea-1987-492f-8c92-741e0e9d088b)"/><circle cx="54" cy="54" r="4" fill="#203b72"/><circle cx="30" cy="54" r="4" fill="#203b72"/><circle cx="30" cy="7" r="3" fill="#fff"/></g></svg>