<?xml version="1.0" encoding="UTF-8"?><svg id="uuid-a4f7df63-2653-4829-94ac-dc5984ba2035" xmlns="http://www.w3.org/2000/svg" xmlns:xlink="http://www.w3.org/1999/xlink" viewBox="0 0 60.0001 57"><defs><linearGradient id="uuid-b36b3f3e-71e4-4d20-a732-9fde375231f7" x1="10.0754" y1="62.9749" x2="36.0252" y2="37.0251" gradientUnits="userSpaceOnUse"><stop offset="0" stop-color="#a62b9f"/><stop offset="1" stop-color="#59c8fa"/></linearGradient><linearGradient id="uuid-d710a2fb-7ca2-48cd-90f1-953f42fb6ac0" x1="42.0756" y1="27.4246" x2="56.9247" y2="12.5755" xlink:href="#uuid-b36b3f3e-71e4-4d20-a732-9fde375231f7"/></defs><g id="uuid-554adecb-1cde-49cc-b9a4-1a00382f5031"><path d="M53.0001,43H7.0001C3.1339,43,.0001,46.1338.0001,50H.0001C.0001,53.8662,3.1339,57,7.0001,57h46c3.8662,0,7-3.1338,7-7h0c0-3.8662-3.1338-7-7-7Z" fill="#fff"/><path d="M42.0001,43H7.0001C3.1339,43,.0001,46.1338.0001,50H.0001C.0001,53.8662,3.1339,57,7.0001,57h35v-14Z" fill="url(#uuid-b36b3f3e-71e4-4d20-a732-9fde375231f7)"/><path d="M53.0001,43H7.0001C3.1339,43,.0001,46.1338.0001,50s3.1338,7,7,7h46c3.8662,0,7-3.1338,7-7s-3.1338-7-7-7ZM53.0001,54H7.0001c-2.2061,0-4-1.7944-4-4s1.7939-4,4-4h46c2.2051,0,4,1.7944,4,4s-1.7949,4-4,4Z" fill="#203b72"/><path d="M60.0001,18.9697c0-.1938-.1436-.3579-.3359-.3828l-1.8614-.2427c-.1601-.021-.2871-.1396-.3242-.2959-.1963-.8046-.5127-1.5859-.9541-2.3129-.084-.1373-.0781-.3106.0205-.438l1.1416-1.4849c.1182-.1533.1035-.3711-.0332-.5083l-1.458-1.4575c-.1367-.1372-.3545-.1509-.5078-.0327l-1.4844,1.1416c-.1279.0981-.3008.104-.4385.0205-.7275-.4419-1.5078-.7588-2.3134-.9541-.1563-.0381-.2744-.1651-.2949-.3247l-.2432-1.8609c-.0254-.1924-.1885-.3364-.3828-.3364h-2.0606c-.1943,0-.3584.144-.3828.3364l-.2431,1.8609c-.0206.1596-.1387.2866-.2959.3247-.8047.1953-1.585.5122-2.3125.9541-.1377.0835-.3106.0776-.4385-.0205l-1.4844-1.1416c-.1533-.1182-.3711-.1045-.5088.0327l-1.457,1.4575c-.1367.1372-.1514.355-.0332.5083l1.1416,1.4849c.0986.1274.1045.3007.0205.438-.4414.727-.7578,1.5083-.9541,2.3129-.0381.1563-.1641.2749-.3242.2955l-1.8614.2431c-.1923.0249-.3359.189-.3359.3828v2.0606c0,.1938.1436.3579.3359.3828l1.8614.2432c.1601.0205.2861.1391.3242.2954.1963.8046.5127,1.5859.9541,2.3129.084.1377.0781.3106-.0205.4385l-1.1416,1.4844c-.1182.1538-.1035.3711.0332.5083l1.458,1.4575c.1367.1372.3545.1514.5078.0327l1.4844-1.1416c.1279-.0981.3008-.1035.4385-.0205.7275.4419,1.5078.7588,2.3125.9541.1572.0381.2753.1651.2959.3247l.2431,1.8609c.0244.1924.1885.3364.3828.3364h2.0606c.1943,0,.3584-.144.3828-.3364l.2432-1.8609c.0205-.1596.1386-.2866.2949-.3247.8056-.1953,1.5859-.5122,2.3134-.9536.1377-.084.3106-.0781.4385.02l1.4844,1.1421c.1533.1182.3711.104.5088-.0332l1.457-1.4575c.1367-.1372.1514-.3545.0332-.5083l-1.1416-1.4844c-.0986-.1279-.1045-.3008-.0205-.4385.4414-.727.7578-1.5083.9541-2.3129.0371-.1563.1641-.2749.3242-.2954l1.8614-.2432c.1923-.0249.3359-.189.3359-.3828v-2.0606ZM52.7325,21.3389c-.7392,1.7856-2.7861,2.6333-4.5713,1.894-1.7851-.7397-2.6338-2.7866-1.8935-4.5718.7392-1.7856,2.7861-2.6333,4.5713-1.894,1.7851.7397,2.6338,2.7866,1.8935,4.5718Z" fill="url(#uuid-d710a2fb-7ca2-48cd-90f1-953f42fb6ac0)"/><path d="M39.6173,25.104l-3.2129-1.8501c-.2754-.1587-.417-.4702-.3682-.7847.251-1.6167.2637-3.2812.0069-4.9423-.0479-.314.0927-.626.3681-.7847l3.2061-1.8457c.332-.1914.4707-.5991.3242-.9536l-1.5576-3.7608c-.1465-.354-.5332-.5444-.9033-.4448l-3.5723.9614c-.3066.0826-.6269-.0381-.8154-.2939-.9932-1.356-2.1787-2.5244-3.5-3.4898-.2569-.1875-.377-.5087-.294-.8159l.9639-3.5801c.0996-.3701-.0908-.7563-.4443-.9033L26.0577.0581c-.3545-.1465-.7627-.0078-.9531.3242l-1.8506,3.2129c-.1592.2759-.4707.4175-.7851.3687-1.6163-.2515-3.2813-.2637-4.9415-.0074-.3144.0489-.6269-.0927-.7851-.3681l-1.8457-3.2061c-.1914-.332-.5996-.4707-.9531-.3237l-3.7618,1.5576c-.3535.147-.5439.5332-.4443.9033l.9619,3.5723c.0821.3066-.0381.6274-.2949.8149-1.3555.9932-2.5244,2.1792-3.4893,3.5-.1875.2569-.5087.377-.8154.2945l-3.5801-.9639c-.3701-.0996-.7568.0908-.9033.4448L.0587,13.9429c-.1475.354-.0088.7617.3232.9531l3.2139,1.8501c.2754.1587.417.4707.3682.7847-.251,1.6167-.2637,3.2817-.0069,4.9423.0479.314-.0937.626-.3681.7847l-3.2061,1.8462c-.332.1909-.4707.5991-.3242.9531l1.5576,3.7608c.1465.354.5332.5444.9033.4448l3.5723-.9614c.3066-.0825.627.0381.8154.2944.9932,1.3555,2.1787,2.5244,3.4991,3.4893.2578.1879.3769.5088.2949.8159l-.9639,3.5801c-.0996.3701.0908.7563.4443.9033l3.7608,1.5576c.3545.1465.7627.0078.9531-.3242l1.8506-3.2129c.1582-.2759.4707-.4175.7852-.3687,1.6162.2515,3.2812.2637,4.9414.0069.3144-.0484.6259.0932.7851.3686l1.8457,3.2061c.1914.332.5996.4707.9531.3242l3.7618-1.5581c.3535-.1465.5439-.5332.4443-.9033l-.9619-3.5723c-.082-.3066.0381-.6274.2949-.8149,1.3555-.9932,2.5244-2.1792,3.4893-3.5.1875-.2569.5088-.377.8154-.2945l3.581.9639c.3702.0996.7559-.0908.9024-.4448l1.5576-3.7608c.1465-.354.0088-.7617-.3242-.9531ZM20.0001,28c-4.418,0-8-3.5815-8-8s3.582-8,8-8,8,3.5815,8,8-3.582,8-8,8Z" fill="#203b72"/></g></svg>