<?xml version="1.0" encoding="UTF-8"?><svg id="uuid-959c311e-57d1-4dab-9b60-469089d2c9e3" xmlns="http://www.w3.org/2000/svg" xmlns:xlink="http://www.w3.org/1999/xlink" viewBox="0 0 60 60"><defs><linearGradient id="uuid-06020655-6862-4ade-8c33-3c7e61e7e90a" x1="17.2722" y1="42.7278" x2="42.7278" y2="17.2722" gradientUnits="userSpaceOnUse"><stop offset="0" stop-color="#a62b9f"/><stop offset="1" stop-color="#59c8fa"/></linearGradient></defs><g id="uuid-72c21cb3-2d3b-4b9c-ba6b-1e50b90c3acd"><path d="M60,30c0,2.5396-3.5508,4.5786-4.1772,6.9209-.6475,2.4238,1.3886,5.9614.1611,8.083-1.2451,2.1524-5.3384,2.1489-7.0855,3.8955-1.7465,1.7466-1.7431,5.8399-3.895,7.085-2.1221,1.2275-5.6592-.8091-8.0825-.1612-2.3423.626-4.3813,4.1768-6.9209,4.1768s-4.5786-3.5508-6.9209-4.1772c-2.4238-.6475-5.9614,1.3886-8.083.1611-2.1523-1.2451-2.1489-5.3384-3.8955-7.0855-1.7466-1.7465-5.8399-1.7431-7.085-3.895-1.2275-2.1221.8091-5.6592.1616-8.0825-.6264-2.3423-4.1772-4.3813-4.1772-6.9209s3.5508-4.5786,4.1772-6.9209c.6475-2.4238-1.3886-5.9614-.1611-8.083,1.2451-2.1523,5.3384-2.1489,7.0855-3.8955,1.7465-1.7466,1.7431-5.8399,3.895-7.085,2.1221-1.2275,5.6597.8091,8.0825.1612,2.3423-.626,4.3813-4.1768,6.9209-4.1768s4.5786,3.5508,6.9209,4.1772c2.4238.6475,5.9609-1.3886,8.083-.1611,2.1524,1.2451,2.1489,5.3384,3.8955,7.0855,1.7466,1.7465,5.8399,1.7431,7.085,3.895,1.2275,2.1221-.8091,5.6597-.1612,8.0825.626,2.3423,4.1768,4.3813,4.1768,6.9209Z" fill="#203b72"/><circle cx="30" cy="30" r="21.5" fill="#fff"/><circle cx="30" cy="30" r="18" fill="url(#uuid-06020655-6862-4ade-8c33-3c7e61e7e90a)"/><path d="M26.8237,40.8384c-.6631,0-1.2988-.2632-1.7675-.7324l-6.3238-6.3238c-.9765-.976-.9765-2.5591,0-3.5351.9756-.9766,2.5596-.9766,3.5352,0l4.5561,4.5556,10.9087-10.9087c.9756-.9765,2.5596-.9765,3.5352,0,.9765.9761.9765,2.5591,0,3.5352l-12.6763,12.6768c-.4687.4692-1.1045.7324-1.7676.7324Z" fill="#fff"/></g></svg>