<?xml version="1.0" encoding="UTF-8"?><svg id="uuid-331e4311-1a49-4a39-a999-d0025bb64d72" xmlns="http://www.w3.org/2000/svg" xmlns:xlink="http://www.w3.org/1999/xlink" viewBox="0 0 60 60"><defs><linearGradient id="uuid-3bee23b9-91b3-4aa4-87af-e68b06ad5a51" x1="26.5177" y1="39.7604" x2="52.2306" y2="14.0474" gradientUnits="userSpaceOnUse"><stop offset="0" stop-color="#a62b9f"/><stop offset="1" stop-color="#59c8fa"/></linearGradient><linearGradient id="uuid-f470198b-8e5f-4a99-8957-b2e5030b1773" x1="38.0465" y1="13.7716" x2="47.1664" y2="4.6517" xlink:href="#uuid-3bee23b9-91b3-4aa4-87af-e68b06ad5a51"/><linearGradient id="uuid-5a2bce08-838b-4655-a7ac-044754bc4b8e" x1="7.7694" y1="27.9526" x2="33.4823" y2="2.2396" xlink:href="#uuid-3bee23b9-91b3-4aa4-87af-e68b06ad5a51"/><linearGradient id="uuid-72e2390f-f705-47a8-9b0f-58e063c941ad" x1="12.8336" y1="37.3483" x2="21.9535" y2="28.2284" xlink:href="#uuid-3bee23b9-91b3-4aa4-87af-e68b06ad5a51"/><linearGradient id="uuid-58ae9447-7664-47b7-a6f9-94795db5eb4d" x1="10.0753" y1="65.9749" x2="36.0251" y2="40.0251" xlink:href="#uuid-3bee23b9-91b3-4aa4-87af-e68b06ad5a51"/></defs><g id="uuid-8a34e5bc-2d89-4c9a-b400-b9c79f70689f"><path d="M30,42c-1.6572,0-3-1.3433-3-3s1.3428-3,3-3c8.2715,0,15-6.729,15-15,0-2.9521-.8564-5.8076-2.4756-8.2578-.9131-1.3823-.5332-3.2437.8486-4.1572,1.3848-.9126,3.2442-.5328,4.1573.8486,2.2695,3.4346,3.4697,7.4341,3.4697,11.5664,0,11.5796-9.4209,21-21,21Z" fill="url(#uuid-3bee23b9-91b3-4aa4-87af-e68b06ad5a51)"/><polygon points="40.5986 16.3237 39.8047 3.186 51.5801 9.0654 40.5986 16.3237" fill="url(#uuid-f470198b-8e5f-4a99-8957-b2e5030b1773)"/><path d="M14.9756,33.9126c-.9736,0-1.9287-.4731-2.5059-1.3462-2.2695-3.4346-3.4697-7.4341-3.4697-11.5664C9,9.4204,18.4209,0,30,0c1.6572,0,3,1.3433,3,3s-1.3428,3-3,3c-8.2715,0-15,6.729-15,15,0,2.9521.8564,5.8076,2.4756,8.2578.9131,1.3823.5332,3.2437-.8486,4.1572-.5098.3365-1.084.4976-1.6514.4976Z" fill="url(#uuid-5a2bce08-838b-4655-a7ac-044754bc4b8e)"/><polygon points="19.4014 25.6763 20.1953 38.814 8.4199 32.9346 19.4014 25.6763" fill="url(#uuid-72e2390f-f705-47a8-9b0f-58e063c941ad)"/><path d="M53,46H7c-3.8662,0-7,3.1338-7,7h0c0,3.8662,3.1338,7,7,7h46c3.8662,0,7-3.1338,7-7h0c0-3.8662-3.1338-7-7-7Z" fill="#fff"/><path d="M42,46H7c-3.8662,0-7,3.1338-7,7h0c0,3.8662,3.1338,7,7,7h35v-14Z" fill="url(#uuid-58ae9447-7664-47b7-a6f9-94795db5eb4d)"/><path d="M53,46H7c-3.8662,0-7,3.1338-7,7s3.1338,7,7,7h46c3.8662,0,7-3.1338,7-7s-3.1338-7-7-7ZM53,57H7c-2.2061,0-4-1.7944-4-4s1.7939-4,4-4h46c2.2051,0,4,1.7944,4,4s-1.7949,4-4,4Z" fill="#203b72"/></g></svg>