<?xml version="1.0" encoding="UTF-8"?><svg id="uuid-f8265a5a-92cf-47cd-a0a8-7fbddf7d5e89" xmlns="http://www.w3.org/2000/svg" xmlns:xlink="http://www.w3.org/1999/xlink" viewBox="0 0 60 60"><defs><linearGradient id="uuid-c2b842c5-268a-46d3-9530-da6d0b440d23" x1="12.9417" y1="35.054" x2="50.1873" y2="-2.1917" gradientUnits="userSpaceOnUse"><stop offset="0" stop-color="#a62b9f"/><stop offset="1" stop-color="#59c8fa"/></linearGradient><linearGradient id="uuid-ebf68bc7-743f-4afa-bfb1-973470a304c3" x1="54.1386" y1="5.8614" x2="60" y2="0" xlink:href="#uuid-c2b842c5-268a-46d3-9530-da6d0b440d23"/></defs><g id="uuid-7026172e-0250-41dc-937d-7d12e0116951"><polygon points="8 27.9912 17.2041 18.7871 22.8755 24.459 34.3345 13 40.667 19.333 60 0 60 52 8 52 8 27.9912" fill="#203b72"/><path d="M8,29.4912c-.3838,0-.7676-.1465-1.0605-.4394-.586-.586-.586-1.5352,0-2.1211l9.2041-9.2041c.2812-.2813.6626-.4395,1.0605-.4395h0c.398,0,.7793.1582,1.0605.4395l4.6109,4.6113,10.3984-10.3984c.2813-.2813.6626-.4395,1.0606-.4395h0c.3979,0,.7793.1582,1.0605.4395l5.272,5.2724,13.4014-13.4014c.5859-.5859,1.5351-.5859,2.1211,0,.5859.586.5859,1.5352,0,2.1211l-14.462,14.462c-.5625.5625-1.5586.5625-2.1211,0l-5.2719-5.2725-10.3985,10.3984c-.2812.2813-.6626.4395-1.0605.4395h0c-.398,0-.7793-.1582-1.0606-.4395l-4.6108-4.6113-8.1436,8.1436c-.2929.2929-.6767.4394-1.0605.4394Z" fill="url(#uuid-c2b842c5-268a-46d3-9530-da6d0b440d23)"/><polygon points="57.5234 9.2461 60 0 50.7539 2.4766 57.5234 9.2461" fill="url(#uuid-ebf68bc7-743f-4afa-bfb1-973470a304c3)"/><path d="M58.2856,56.5713H6c-1.418,0-2.5713-1.1533-2.5713-2.5713V1.7139c0-.9463-.7676-1.7139-1.7143-1.7139S0,.7676,0,1.7139v52.2861c0,3.3086,2.6914,6,6,6h52.2856c.9468,0,1.7144-.7676,1.7144-1.7139,0-.9472-.7676-1.7148-1.7144-1.7148Z" fill="#203b72"/><path d="M36.7783,44.9668h-5.5566c-1.8994,0-3.4488-1.5283-3.4815-3.4199-.0005-.0127-.0005-.0244-.0005-.0371v-.0244c0-.6905.5596-1.25,1.25-1.25s1.25.5595,1.25,1.25c0,.541.4405.9814.982.9814h5.5566c.5415,0,.982-.4404.982-.9814v-3.504c0-.541-.4405-.9814-.982-.9814h-5.5566c-1.9199,0-3.482-1.5615-3.482-3.4814v-3.504c0-1.9199,1.5621-3.4814,3.482-3.4814h5.5566c1.8994,0,3.4488,1.5293,3.4815,3.4199.0005.0127.0005.0244.0005.0371v.0244c0,.6905-.5596,1.25-1.25,1.25s-1.25-.5595-1.25-1.25c0-.541-.4405-.9814-.982-.9814h-5.5566c-.5415,0-.982.4404-.982.9814v3.504c0,.541.4405.9814.982.9814h5.5566c1.9199,0,3.482,1.5625,3.482,3.4814v3.504c0,1.9199-1.5621,3.4814-3.482,3.4814Z" fill="#fff"/><path d="M34,29.0332c-.6904,0-1.25-.5596-1.25-1.25v-3.0332c0-.6904.5596-1.25,1.25-1.25s1.25.5596,1.25,1.25v3.0332c0,.6904-.5596,1.25-1.25,1.25Z" fill="#fff"/><path d="M34,48c-.6904,0-1.25-.5596-1.25-1.25v-3.0332c0-.6904.5596-1.25,1.25-1.25s1.25.5596,1.25,1.25v3.0332c0,.6904-.5596,1.25-1.25,1.25Z" fill="#fff"/></g></svg>