<?xml version="1.0" encoding="UTF-8"?><svg id="uuid-e3fe5577-5375-41c4-b09a-b6b92fbb1959" xmlns="http://www.w3.org/2000/svg" xmlns:xlink="http://www.w3.org/1999/xlink" viewBox="0 0 60 60"><defs><linearGradient id="uuid-18a6fc89-441f-4031-82b1-c7df34c280ca" x1="19.3934" y1="40.6066" x2="40.6066" y2="19.3934" gradientUnits="userSpaceOnUse"><stop offset="0" stop-color="#a62b9f"/><stop offset="1" stop-color="#59c8fa"/></linearGradient></defs><g id="uuid-35be01c3-60d8-4a84-a6e9-c3a0b0d75f74"><path d="M29,56.5H10.5c-3.8594,0-7-3.1406-7-7v-7.5h6v7.5c0,.5518.4482,1,1,1h18.5v6Z" fill="#203b72"/><path d="M56.5,18h-6v-7.5c0-.5518-.4482-1-1-1h-18.5V3.5h18.5c3.8594,0,7,3.1406,7,7v7.5Z" fill="#203b72"/><polygon points="13 42 0 42 6.5 33 13 42" fill="#203b72"/><polygon points="47 18 60 18 53.5 27 47 18" fill="#203b72"/><path d="M9.5,29H3.5V10.5c0-3.8594,3.1406-7,7-7h7.5v6h-7.5c-.5518,0-1,.4482-1,1v18.5Z" fill="#203b72"/><path d="M49.5,56.5h-7.5v-6h7.5c.5518,0,1-.4482,1-1v-18.5h6v18.5c0,3.8594-3.1406,7-7,7Z" fill="#203b72"/><polygon points="18 13 18 0 27 6.5 18 13" fill="#203b72"/><polygon points="42 47 42 60 33 53.5 42 47" fill="#203b72"/><circle cx="30" cy="30" r="15" fill="url(#uuid-18a6fc89-441f-4031-82b1-c7df34c280ca)"/><path d="M27.3535,38.9482c-.5117,0-1.0234-.1953-1.414-.5859l-5.2706-5.2695c-.7812-.7803-.7812-2.0469,0-2.8282.7813-.7812,2.0469-.7812,2.8282,0l3.8564,3.8555,9.1494-9.1494c.7813-.7812,2.0469-.7812,2.8282,0,.7812.7813.7812,2.0469,0,2.8281l-10.5635,10.5635c-.3906.3906-.9024.5859-1.4141.5859Z" fill="#fff"/></g></svg>