<?xml version="1.0" encoding="UTF-8"?><svg id="uuid-36079c68-4c4e-495a-bc07-5c5da897e934" xmlns="http://www.w3.org/2000/svg" xmlns:xlink="http://www.w3.org/1999/xlink" viewBox="0 0 59.9997 59.9997"><defs><linearGradient id="uuid-a408dbf5-6c8d-450e-a114-8fce7d4fc335" x1="17.0427" y1="30.9573" x2="30.9573" y2="17.0427" gradientUnits="userSpaceOnUse"><stop offset="0" stop-color="#a62b9f"/><stop offset="1" stop-color="#59c8fa"/></linearGradient><linearGradient id="uuid-6594e73a-1aa0-4578-a00e-2bcaf52e3834" x1="17.0427" y1="30.9573" x2="30.9573" y2="17.0427" xlink:href="#uuid-a408dbf5-6c8d-450e-a114-8fce7d4fc335"/></defs><g id="uuid-63566e3b-fce5-4cc4-94b2-06a7ca698817"><circle cx="24" cy="24" r="18" fill="#fff"/><path d="M58.4111,50.7754l-12.6298-12.584c-1.9766,3.0274-4.5665,5.6162-7.5938,7.5928l12.5537,12.6328c2.1182,2.1103,5.5518,2.1103,7.6699,0,2.1182-2.1104,2.1182-5.5313,0-7.6416Z" fill="#203b72"/><path d="M24,0C10.7451,0,0,10.7451,0,24s10.7451,24,24,24,24-10.7451,24-24S37.2549,0,24,0ZM24,42c-9.9414,0-18-8.0586-18-18S14.0586,6,24,6s18,8.0586,18,18-8.0586,18-18,18Z" fill="#203b72"/><rect x="13" y="20.5" width="22" height="7" rx="1" ry="1" fill="url(#uuid-a408dbf5-6c8d-450e-a114-8fce7d4fc335)"/><rect x="20.5" y="13" width="7" height="22" rx="1" ry="1" fill="url(#uuid-6594e73a-1aa0-4578-a00e-2bcaf52e3834)"/></g></svg>