<?xml version="1.0" encoding="UTF-8"?><svg id="uuid-9ab014fd-6604-4a57-a46e-168073fa777b" xmlns="http://www.w3.org/2000/svg" xmlns:xlink="http://www.w3.org/1999/xlink" viewBox="0 0 59.9999 59.9998"><defs><linearGradient id="uuid-d018bc6d-bc1e-407c-916a-f91f207d14b0" x1="15.492" y1="30.702" x2="32.5087" y2="13.6854" gradientUnits="userSpaceOnUse"><stop offset="0" stop-color="#a62b9f"/><stop offset="1" stop-color="#59c8fa"/></linearGradient></defs><g id="uuid-2ce72aa1-0541-4177-b2cb-e4d48e75bcdb"><circle cx="24" cy="24" r="18" fill="#fff"/><path d="M58.4116,50.7754l-12.6303-12.584c-1.9771,3.0274-4.566,5.6162-7.5943,7.5923l12.5547,12.6338c2.1177,2.1098,5.5518,2.1098,7.6699,0,2.1177-2.1104,2.1177-5.5318,0-7.6421Z" fill="#203b72"/><path d="M24,0C10.7451,0,0,10.7451,0,24s10.7451,24,24,24,24-10.7451,24-24S37.2549,0,24,0ZM24,42c-9.9409,0-18-8.0591-18-18S14.0591,6,24,6s18,8.0591,18,18-8.0591,18-18,18Z" fill="#203b72"/><path d="M21.4194,35.3872c-.7954,0-1.5586-.3159-2.1211-.8789l-7.6128-7.6128c-1.1718-1.1714-1.1718-3.0708,0-4.2422,1.1709-1.1719,3.0713-1.1719,4.2422,0l5.4917,5.4912,10.6524-10.6528c1.1719-1.1719,3.0718-1.1714,4.2427-.0005,1.1718,1.1719,1.1718,3.0713.0004,4.2427l-12.7739,12.7744c-.563.563-1.3257.8789-2.1216.8789Z" fill="url(#uuid-d018bc6d-bc1e-407c-916a-f91f207d14b0)"/></g></svg>