<?xml version="1.0" encoding="UTF-8"?><svg id="uuid-e929b28c-2f19-46d2-b95a-2a54885bd727" xmlns="http://www.w3.org/2000/svg" xmlns:xlink="http://www.w3.org/1999/xlink" viewBox="0 0 60 60"><defs><linearGradient id="uuid-cb41bed7-9729-4166-ab25-b6350303b15e" x1="8.7868" y1="51.2131" x2="51.2131" y2="8.7869" gradientUnits="userSpaceOnUse"><stop offset="0" stop-color="#a62b9f"/><stop offset="1" stop-color="#59c8fa"/></linearGradient></defs><g id="uuid-0ee8efbc-636e-416e-a503-cc957888c820"><circle cx="30" cy="30" r="30" fill="url(#uuid-cb41bed7-9729-4166-ab25-b6350303b15e)"/><path d="M13.7104,45.7544c-.7255,0-1.4448-.314-1.9389-.9199-7.6416-9.3701-6.9487-22.8911,1.6118-31.4512,4.4385-4.439,10.3398-6.8833,16.6167-6.8833,1.3809,0,2.5,1.1191,2.5,2.5s-1.1191,2.5-2.5,2.5c-4.9414,0-9.5869,1.9243-13.0815,5.4185-6.7388,6.7392-7.2857,17.3818-1.272,24.7558.8725,1.0698.7124,2.645-.3574,3.5176-.4639.3784-1.023.5625-1.5787.5625Z" fill="#fff"/><path d="M46.2524,45.7993c-.5576,0-1.1191-.1855-1.5839-.5669-1.0674-.876-1.2232-2.4511-.3477-3.5185,6.0518-7.378,5.5186-18.0376-1.2393-24.795-3.4946-3.4946-8.1401-5.4189-13.0815-5.4189-1.3809,0-2.5-1.1191-2.5-2.5s1.1191-2.5,2.5-2.5c6.2769,0,12.1782,2.4443,16.6167,6.8833,8.585,8.584,9.2598,22.1265,1.5703,31.5015-.4946.6025-1.2114.9145-1.9346.9145Z" fill="#fff"/><circle cx="30" cy="30" r="5" fill="#203b72"/><path d="M51.8218,41.1777c-.3072,0-.6197-.0571-.9229-.1772l-21.8227-8.6773c-1.2827-.5102-1.9092-1.9638-1.3994-3.247.5102-1.2827,1.9628-1.9073,3.247-1.3994l21.8228,8.6772c1.2827.5103,1.9092,1.9639,1.3994,3.2471-.3897.98-1.3301,1.5766-2.3242,1.5766Z" fill="#203b72"/><rect x="20" y="45" width="20" height="8" rx="2" ry="2" fill="#203b72"/></g></svg>