<?xml version="1.0" encoding="UTF-8"?><svg id="uuid-0e99cc87-db12-496f-883d-7ee3079ffeb1" xmlns="http://www.w3.org/2000/svg" xmlns:xlink="http://www.w3.org/1999/xlink" viewBox="0 0 60 60"><defs><linearGradient id="uuid-6197da44-0ff6-4302-8f20-21c4f22874a7" x1="25.1044" y1="16.968" x2="34.8956" y2="7.1768" gradientUnits="userSpaceOnUse"><stop offset="0" stop-color="#a62b9f"/><stop offset="1" stop-color="#59c8fa"/></linearGradient><linearGradient id="uuid-3675447f-f6c6-43fa-a67e-085558c24768" x1="44.1044" y1="16.968" x2="53.8956" y2="7.1768" xlink:href="#uuid-6197da44-0ff6-4302-8f20-21c4f22874a7"/><linearGradient id="uuid-e69365bd-1249-4b21-ae43-023095351e32" x1="6.1044" y1="16.968" x2="15.8956" y2="7.1768" xlink:href="#uuid-6197da44-0ff6-4302-8f20-21c4f22874a7"/></defs><g id="uuid-16e75beb-3942-4b27-b34f-34c386e013a7"><path d="M57,48h-27l-17,12,3-12H3c-1.6572,0-3-1.3428-3-3V3C0,1.3428,1.3428,0,3,0h54c1.6572,0,3,1.3428,3,3v42c0,1.6572-1.3428,3-3,3Z" fill="#203b72"/><path d="M30.6855,4.7314l1.5713,3.1827c.1114.2255.3262.3818.5752.4179l3.5127.5108c.627.0908.877.8613.4239,1.3037l-2.542,2.4775c-.1807.1758-.2627.4287-.2198.6768l.5996,3.499c.1075.624-.5478,1.1006-1.1084.8057l-3.1425-1.6524c-.2227-.1162-.4883-.1162-.711,0l-3.1425,1.6524c-.5606.2949-1.2159-.1817-1.1084-.8057l.5996-3.499c.0429-.2481-.0391-.501-.2198-.6768l-2.542-2.4775c-.4531-.4424-.2031-1.2129.4239-1.3037l3.5127-.5108c.249-.0361.4638-.1924.5752-.4179l1.5713-3.1827c.2802-.5683,1.0908-.5683,1.371,0Z" fill="url(#uuid-6197da44-0ff6-4302-8f20-21c4f22874a7)"/><path d="M49.6855,4.7314l1.5713,3.1827c.1114.2255.3262.3818.5752.4179l3.5127.5108c.627.0908.877.8613.4239,1.3037l-2.542,2.4775c-.1807.1758-.2627.4287-.2198.6768l.5996,3.499c.1075.624-.5478,1.1006-1.1084.8057l-3.1425-1.6524c-.2227-.1162-.4883-.1162-.711,0l-3.1425,1.6524c-.5606.2949-1.2159-.1817-1.1084-.8057l.5996-3.499c.0429-.2481-.0391-.501-.2198-.6768l-2.542-2.4775c-.4531-.4424-.2031-1.2129.4239-1.3037l3.5127-.5108c.249-.0361.4638-.1924.5752-.4179l1.5713-3.1827c.2802-.5683,1.0908-.5683,1.371,0Z" fill="url(#uuid-3675447f-f6c6-43fa-a67e-085558c24768)"/><path d="M11.6855,4.7314l1.5713,3.1827c.1114.2255.3262.3818.5752.4179l3.5127.5108c.627.0908.877.8613.4239,1.3037l-2.542,2.4775c-.1807.1758-.2627.4287-.2198.6768l.5996,3.499c.1075.624-.5478,1.1006-1.1084.8057l-3.1425-1.6524c-.2227-.1162-.4883-.1162-.711,0l-3.1425,1.6524c-.5606.2949-1.2159-.1817-1.1084-.8057l.5996-3.499c.0429-.2481-.0391-.501-.2198-.6768l-2.542-2.4775c-.4531-.4424-.2031-1.2129.4239-1.3037l3.5127-.5108c.249-.0361.4638-.1924.5752-.4179l1.5713-3.1827c.2802-.5683,1.0908-.5683,1.371,0Z" fill="url(#uuid-e69365bd-1249-4b21-ae43-023095351e32)"/><path d="M36,41.75H6c-.4141,0-.75-.3359-.75-.75s.3359-.75.75-.75h30c.4141,0,.75.3359.75.75s-.3359.75-.75.75Z" fill="#fff"/><path d="M54,35.75h-24c-.4141,0-.75-.3359-.75-.75s.3359-.75.75-.75h24c.4141,0,.75.3359.75.75s-.3359.75-.75.75Z" fill="#fff"/><path d="M24,35.75H6c-.4141,0-.75-.3359-.75-.75s.3359-.75.75-.75h18c.4141,0,.75.3359.75.75s-.3359.75-.75.75Z" fill="#fff"/><path d="M47,29.75h-27c-.4141,0-.75-.3359-.75-.75s.3359-.75.75-.75h27c.4141,0,.75.3359.75.75s-.3359.75-.75.75Z" fill="#fff"/><path d="M14,29.75H6c-.4141,0-.75-.3359-.75-.75s.3359-.75.75-.75h8c.4141,0,.75.3359.75.75s-.3359.75-.75.75Z" fill="#fff"/><path d="M54,23.75h-15c-.4141,0-.75-.3359-.75-.75s.3359-.75.75-.75h15c.4141,0,.75.3359.75.75s-.3359.75-.75.75Z" fill="#fff"/><path d="M33,23.75H6c-.4141,0-.75-.3359-.75-.75s.3359-.75.75-.75h27c.4141,0,.75.3359.75.75s-.3359.75-.75.75Z" fill="#fff"/></g></svg>