<?xml version="1.0" encoding="UTF-8"?><svg id="uuid-4f446b5f-0d2f-4636-9940-0a0213c7d857" xmlns="http://www.w3.org/2000/svg" xmlns:xlink="http://www.w3.org/1999/xlink" viewBox="0 0 60 60"><defs><linearGradient id="uuid-66f9bf91-2654-4051-9d62-a2913545c685" x1="8.0858" y1="32.9142" x2="13.9142" y2="27.0858" gradientUnits="userSpaceOnUse"><stop offset="0" stop-color="#a62b9f"/><stop offset="1" stop-color="#59c8fa"/></linearGradient><linearGradient id="uuid-08ee8b8e-8d48-44db-8b9c-b58da90d32dc" x1="46.0858" x2="51.9142" y2="27.0858" xlink:href="#uuid-66f9bf91-2654-4051-9d62-a2913545c685"/><linearGradient id="uuid-f944cf9b-7ace-4e7d-9526-efbb366525f5" x1="27.0858" y1="51.9142" x2="32.9142" y2="46.0858" xlink:href="#uuid-66f9bf91-2654-4051-9d62-a2913545c685"/><linearGradient id="uuid-bbeca698-a235-4f72-a871-c71f8b44f5cb" x1="27.0858" y1="13.9142" x2="32.9142" y2="8.0858" xlink:href="#uuid-66f9bf91-2654-4051-9d62-a2913545c685"/><linearGradient id="uuid-69ec3243-18ed-4dba-96a4-6cc9c0129b54" x1="46.0858" x2="51.9142" y2="27.0858" xlink:href="#uuid-66f9bf91-2654-4051-9d62-a2913545c685"/><linearGradient id="uuid-d63c9875-4a77-4ea7-bdc9-744acf48ea57" x1="27.0858" y1="51.9142" x2="32.9142" y2="46.0858" xlink:href="#uuid-66f9bf91-2654-4051-9d62-a2913545c685"/><linearGradient id="uuid-1a8f3cdd-37db-4cbb-9172-7ef18af1e55b" x1="10.0818" y1="42.9637" x2="17.0091" y2="36.0364" xlink:href="#uuid-66f9bf91-2654-4051-9d62-a2913545c685"/><linearGradient id="uuid-85f00ec2-ced3-4932-b937-efdfd2d736f2" x1="42.9909" y1="23.9636" x2="49.9182" y2="17.0363" xlink:href="#uuid-66f9bf91-2654-4051-9d62-a2913545c685"/><linearGradient id="uuid-106d5c49-3885-41dc-8e26-49339b5beaa2" x1="37.5364" y1="48.4179" x2="41.4635" y2="44.4908" xlink:href="#uuid-66f9bf91-2654-4051-9d62-a2913545c685"/><linearGradient id="uuid-6cf37205-4269-4c20-8b31-939134d44c84" x1="17.0365" y1="49.9179" x2="23.9636" y2="42.9908" xlink:href="#uuid-66f9bf91-2654-4051-9d62-a2913545c685"/><linearGradient id="uuid-9dc8a783-f14b-4cb2-b557-55fce2b46c89" x1="36.0364" y1="17.0092" x2="42.9635" y2="10.0821" xlink:href="#uuid-66f9bf91-2654-4051-9d62-a2913545c685"/><linearGradient id="uuid-27bc16ea-5b27-4a61-b288-ba8e8576d368" x1="44.4908" y1="41.4637" x2="48.4183" y2="37.5363" xlink:href="#uuid-66f9bf91-2654-4051-9d62-a2913545c685"/></defs><g id="uuid-ad89b92a-6f4a-4126-92e7-4d080c0ccb6d"><circle cx="30" cy="30" r="30" fill="#203b72"/><path d="M14,32h-6c-1.1045,0-2-.8955-2-2h0c0-1.1045.8955-2,2-2h6c1.1045,0,2,.8955,2,2h0c0,1.1045-.8955,2-2,2Z" fill="url(#uuid-66f9bf91-2654-4051-9d62-a2913545c685)"/><path d="M52,32h-6c-1.1045,0-2-.8955-2-2h0c0-1.1045.8955-2,2-2h6c1.1045,0,2,.8955,2,2h0c0,1.1045-.8955,2-2,2Z" fill="url(#uuid-08ee8b8e-8d48-44db-8b9c-b58da90d32dc)"/><path d="M32,46v6c0,1.1045-.8955,2-2,2h0c-1.1045,0-2-.8955-2-2v-6c0-1.1045.8955-2,2-2h0c1.1045,0,2,.8955,2,2Z" fill="url(#uuid-f944cf9b-7ace-4e7d-9526-efbb366525f5)"/><path d="M32,8v6c0,1.1045-.8955,2-2,2h0c-1.1045,0-2-.8955-2-2v-6c0-1.1045.8955-2,2-2h0c1.1045,0,2,.8955,2,2Z" fill="url(#uuid-bbeca698-a235-4f72-a871-c71f8b44f5cb)"/><path d="M14,32h-6c-1.1045,0-2-.8955-2-2h0c0-1.1045.8955-2,2-2h6c1.1045,0,2,.8955,2,2h0c0,1.1045-.8955,2-2,2Z" fill="#fff"/><path d="M52,32h-6c-1.1045,0-2-.8955-2-2h0c0-1.1045.8955-2,2-2h6c1.1045,0,2,.8955,2,2h0c0,1.1045-.8955,2-2,2Z" fill="url(#uuid-69ec3243-18ed-4dba-96a4-6cc9c0129b54)"/><path d="M32,46v6c0,1.1045-.8955,2-2,2h0c-1.1045,0-2-.8955-2-2v-6c0-1.1045.8955-2,2-2h0c1.1045,0,2,.8955,2,2Z" fill="url(#uuid-d63c9875-4a77-4ea7-bdc9-744acf48ea57)"/><path d="M32,8v6c0,1.1045-.8955,2-2,2h0c-1.1045,0-2-.8955-2-2v-6c0-1.1045.8955-2,2-2h0c1.1045,0,2,.8955,2,2Z" fill="#fff"/><path d="M17.1436,39.7324l-5.1963,3c-.9566.5518-2.1797.2246-2.732-.7324h0c-.5522-.957-.2246-2.1797.732-2.7324l5.1963-3c.9565-.5518,2.1796-.2246,2.7319.7324h0c.5522.957.2246,2.1797-.7319,2.7324Z" fill="url(#uuid-1a8f3cdd-37db-4cbb-9172-7ef18af1e55b)"/><path d="M50.0527,20.7324l-5.1963,3c-.9565.5518-2.1796.2246-2.7319-.7324h0c-.5522-.957-.2246-2.1797.7319-2.7324l5.1963-3c.9566-.5518,2.1797-.2246,2.732.7324h0c.5522.957.2246,2.1797-.732,2.7324Z" fill="url(#uuid-85f00ec2-ced3-4932-b937-efdfd2d736f2)"/><path d="M39.7319,42.8564l3,5.1963c.5523.9561.2246,2.1797-.7319,2.7315h0c-.9565.5527-2.1797.2246-2.7319-.7315l-3-5.1963c-.5523-.957-.2246-2.1796.7319-2.7324h0c.9565-.5517,2.1797-.2246,2.7319.7324Z" fill="url(#uuid-106d5c49-3885-41dc-8e26-49339b5beaa2)"/><path d="M20.7319,9.9473l3,5.1963c.5523.957.2246,2.1796-.7319,2.7324h0c-.9565.5517-2.1797.2246-2.7319-.7324l-3-5.1963c-.5523-.9561-.2246-2.1797.7319-2.7315h0c.9565-.5527,2.1797-.2246,2.7319.7315Z" fill="#fff"/><path d="M23.7319,44.8564l-3,5.1963c-.5522.9561-1.7754,1.2842-2.7319.7315h0c-.9565-.5518-1.2842-1.7754-.7319-2.7315l3-5.1963c.5522-.957,1.7754-1.2841,2.7319-.7324h0c.9565.5528,1.2842,1.7754.7319,2.7324Z" fill="url(#uuid-6cf37205-4269-4c20-8b31-939134d44c84)"/><path d="M42.7319,11.9473l-3,5.1963c-.5522.957-1.7754,1.2841-2.7319.7324h0c-.9565-.5528-1.2842-1.7754-.7319-2.7324l3-5.1963c.5522-.9561,1.7754-1.2842,2.7319-.7315h0c.9565.5518,1.2842,1.7754.7319,2.7315Z" fill="url(#uuid-9dc8a783-f14b-4cb2-b557-55fce2b46c89)"/><path d="M44.8564,36.2676l5.1963,3c.9566.5527,1.2842,1.7754.732,2.7324h0c-.5523.957-1.7754,1.2842-2.732.7324l-5.1963-3c-.9565-.5527-1.2841-1.7754-.7319-2.7324h0c.5523-.957,1.7754-1.2842,2.7319-.7324Z" fill="url(#uuid-27bc16ea-5b27-4a61-b288-ba8e8576d368)"/><path d="M11.9473,17.2676l5.1963,3c.9565.5527,1.2841,1.7754.7319,2.7324h0c-.5523.957-1.7754,1.2842-2.7319.7324l-5.1963-3c-.9566-.5527-1.2842-1.7754-.732-2.7324h0c.5523-.957,1.7754-1.2842,2.732-.7324Z" fill="#fff"/></g></svg>