<?xml version="1.0" encoding="UTF-8"?><svg id="uuid-2818ad92-3de8-43f0-b7ed-ede330f60cb2" xmlns="http://www.w3.org/2000/svg" xmlns:xlink="http://www.w3.org/1999/xlink" viewBox="0 0 60 60"><defs><linearGradient id="uuid-88ff9f89-29d2-4f7b-b5b3-511ae24978c3" x1="48.4207" y1="34.0669" x2="56.5544" y2="25.9331" gradientUnits="userSpaceOnUse"><stop offset="0" stop-color="#a62b9f"/><stop offset="1" stop-color="#59c8fa"/></linearGradient><linearGradient id="uuid-62b2edfa-8d4d-4f2c-bbd7-ea9bed5a10e8" x1="3.4394" y1="34.0606" x2="11.5606" y2="25.9394" xlink:href="#uuid-88ff9f89-29d2-4f7b-b5b3-511ae24978c3"/><linearGradient id="uuid-1944236c-a5ad-42e3-93a9-81468575033e" x1="25.9333" y1="11.5789" x2="34.0667" y2="3.4455" xlink:href="#uuid-88ff9f89-29d2-4f7b-b5b3-511ae24978c3"/><linearGradient id="uuid-aca742d0-ad1a-4156-8b2f-1c7a6c930935" x1="25.9394" y1="56.5606" x2="34.0606" y2="48.4394" xlink:href="#uuid-88ff9f89-29d2-4f7b-b5b3-511ae24978c3"/><linearGradient id="uuid-12242f41-1bfe-47e5-ab25-5d32996f4718" x1="24.7766" y1="33.7624" x2="34.5493" y2="23.9898" xlink:href="#uuid-88ff9f89-29d2-4f7b-b5b3-511ae24978c3"/></defs><g id="uuid-549acdbe-7f29-433a-95af-5b732583019e"><circle cx="30" cy="30" r="28.5" fill="#203b72"/><circle cx="30" cy="30" r="22.5" fill="#fff"/><circle cx="30" cy="30" r="16.5" fill="#203b72"/><circle cx="30" cy="30" r="10.5" fill="#fff"/><path d="M58.5,31.5h-12.0249c-.8286,0-1.5-.6719-1.5-1.5s.6714-1.5,1.5-1.5h12.0249c.8286,0,1.5.6719,1.5,1.5s-.6714,1.5-1.5,1.5Z" fill="url(#uuid-88ff9f89-29d2-4f7b-b5b3-511ae24978c3)"/><path d="M13.5,31.5H1.5c-.8286,0-1.5-.6719-1.5-1.5s.6714-1.5,1.5-1.5h12c.8286,0,1.5.6719,1.5,1.5s-.6714,1.5-1.5,1.5Z" fill="url(#uuid-62b2edfa-8d4d-4f2c-bbd7-ea9bed5a10e8)"/><path d="M30,15.0244c-.8286,0-1.5-.6719-1.5-1.5V1.5c0-.8281.6714-1.5,1.5-1.5s1.5.6719,1.5,1.5v12.0244c0,.8281-.6714,1.5-1.5,1.5Z" fill="url(#uuid-1944236c-a5ad-42e3-93a9-81468575033e)"/><path d="M30,60c-.8286,0-1.5-.6719-1.5-1.5v-12c0-.8281.6714-1.5,1.5-1.5s1.5.6719,1.5,1.5v12c0,.8281-.6714,1.5-1.5,1.5Z" fill="url(#uuid-aca742d0-ad1a-4156-8b2f-1c7a6c930935)"/><path d="M28.0112,36.376h0c-.3979,0-.7793-.1582-1.0605-.4395l-4.3482-4.3486c-.5859-.5859-.5859-1.5352,0-2.1211.586-.5859,1.5352-.5859,2.1211,0l3.2876,3.2881,6.5913-6.5908c.586-.586,1.5352-.586,2.1211,0,.586.5859.586,1.5351,0,2.1211l-7.6518,7.6513c-.2813.2813-.6626.4395-1.0606.4395Z" fill="url(#uuid-12242f41-1bfe-47e5-ab25-5d32996f4718)"/></g></svg>