<?xml version="1.0" encoding="UTF-8"?><svg id="uuid-9e03f228-f54c-409e-8335-dabe90a57597" xmlns="http://www.w3.org/2000/svg" xmlns:xlink="http://www.w3.org/1999/xlink" viewBox="0 0 60 60"><defs><linearGradient id="uuid-7dfb679d-a73c-490a-929d-d42cc74bfc79" x1="43.9211" y1="35.5667" x2="55.0545" y2="24.4333" gradientUnits="userSpaceOnUse"><stop offset="0" stop-color="#a62b9f"/><stop offset="1" stop-color="#59c8fa"/></linearGradient><linearGradient id="uuid-b949715b-8a4d-4243-a5e1-ce3b6975cc77" x1="4.9394" y1="35.5606" x2="16.0606" y2="24.4394" xlink:href="#uuid-7dfb679d-a73c-490a-929d-d42cc74bfc79"/><linearGradient id="uuid-9272b44f-50b7-4be4-bbe3-45e200e6ad2a" x1="24.4331" y1="16.0793" x2="35.5668" y2="4.9456" xlink:href="#uuid-7dfb679d-a73c-490a-929d-d42cc74bfc79"/><linearGradient id="uuid-227ec9fd-053c-41f6-bed8-b9a7e6b4d151" x1="24.4394" y1="55.0606" x2="35.5606" y2="43.9394" xlink:href="#uuid-7dfb679d-a73c-490a-929d-d42cc74bfc79"/></defs><g id="uuid-45e10715-fa23-4cee-bc7b-708da440dfe9"><circle cx="30" cy="30" r="28.5" fill="#203b72"/><circle cx="30" cy="30" r="22.5" fill="#fff"/><circle cx="30" cy="30" r="16.5" fill="#203b72"/><circle cx="30" cy="30" r="10.5" fill="#fff"/><path d="M58.5,31.5h-18.0244c-.8281,0-1.5-.6714-1.5-1.5s.6719-1.5,1.5-1.5h18.0244c.8281,0,1.5.6714,1.5,1.5s-.6719,1.5-1.5,1.5Z" fill="url(#uuid-7dfb679d-a73c-490a-929d-d42cc74bfc79)"/><path d="M19.5,31.5H1.5c-.8281,0-1.5-.6714-1.5-1.5s.6719-1.5,1.5-1.5h18c.8281,0,1.5.6714,1.5,1.5s-.6719,1.5-1.5,1.5Z" fill="url(#uuid-b949715b-8a4d-4243-a5e1-ce3b6975cc77)"/><path d="M30,21.0249c-.8281,0-1.5-.6714-1.5-1.5V1.5c0-.8286.6719-1.5,1.5-1.5s1.5.6714,1.5,1.5v18.0249c0,.8286-.6719,1.5-1.5,1.5Z" fill="url(#uuid-9272b44f-50b7-4be4-bbe3-45e200e6ad2a)"/><path d="M30,60c-.8281,0-1.5-.6714-1.5-1.5v-18c0-.8286.6719-1.5,1.5-1.5s1.5.6714,1.5,1.5v18c0,.8286-.6719,1.5-1.5,1.5Z" fill="url(#uuid-227ec9fd-053c-41f6-bed8-b9a7e6b4d151)"/></g></svg>