<?xml version="1.0" encoding="UTF-8"?><svg id="uuid-d683489d-061d-40f4-adb0-94cdc8d19663" xmlns="http://www.w3.org/2000/svg" xmlns:xlink="http://www.w3.org/1999/xlink" viewBox="0 0 60 60"><defs><linearGradient id="uuid-b6e013d6-b559-448e-b531-40c84bc58888" x1="17.7071" y1="24.7071" x2="49.1213" y2="-6.7071" gradientUnits="userSpaceOnUse"><stop offset="0" stop-color="#a62b9f"/><stop offset="1" stop-color="#59c8fa"/></linearGradient><linearGradient id="uuid-8a911839-c21c-4148-b2b9-0f1896ce9d97" x1="17.5607" y1="45.5607" x2="48.682" y2="14.4393" xlink:href="#uuid-b6e013d6-b559-448e-b531-40c84bc58888"/><linearGradient id="uuid-a1ad4910-a365-4ab1-a7a4-27d55d5ee9d9" x1="17.5607" y1="66.5607" x2="48.682" y2="35.4393" xlink:href="#uuid-b6e013d6-b559-448e-b531-40c84bc58888"/></defs><g id="uuid-5ada342f-1a24-4b50-b186-c46483669a4f"><path d="M8,3h50c1.1038,0,2,.8962,2,2v8c0,1.1038-.8962,2-2,2H8V3h0Z" fill="url(#uuid-b6e013d6-b559-448e-b531-40c84bc58888)"/><path d="M8,24h49c1.6557,0,3,1.3443,3,3v6c0,1.6557-1.3443,3-3,3H8v-12h0Z" fill="url(#uuid-8a911839-c21c-4148-b2b9-0f1896ce9d97)"/><path d="M8,45h49c1.6557,0,3,1.3443,3,3v6c0,1.6557-1.3443,3-3,3H8v-12h0Z" fill="url(#uuid-a1ad4910-a365-4ab1-a7a4-27d55d5ee9d9)"/><circle cx="9" cy="9" r="9" fill="#203b72"/><circle cx="9" cy="30" r="9" fill="#203b72"/><circle cx="9" cy="51" r="9" fill="#203b72"/><path d="M54,7.75h-12c-.4141,0-.75-.3359-.75-.75s.3359-.75.75-.75h12c.4141,0,.75.3359.75.75s-.3359.75-.75.75Z" fill="#fff"/><path d="M37,7.75h-14c-.4141,0-.75-.3359-.75-.75s.3359-.75.75-.75h14c.4141,0,.75.3359.75.75s-.3359.75-.75.75Z" fill="#fff"/><path d="M48,11.75h-15c-.4141,0-.75-.3359-.75-.75s.3359-.75.75-.75h15c.4141,0,.75.3359.75.75s-.3359.75-.75.75Z" fill="#fff"/><path d="M28,11.75h-5c-.4141,0-.75-.3359-.75-.75s.3359-.75.75-.75h5c.4141,0,.75.3359.75.75s-.3359.75-.75.75Z" fill="#fff"/><path d="M54,28.75h-19c-.4141,0-.75-.3359-.75-.75s.3359-.75.75-.75h19c.4141,0,.75.3359.75.75s-.3359.75-.75.75Z" fill="#fff"/><path d="M30,28.75h-7c-.4141,0-.75-.3359-.75-.75s.3359-.75.75-.75h7c.4141,0,.75.3359.75.75s-.3359.75-.75.75Z" fill="#fff"/><path d="M54,32.75h-9c-.4141,0-.75-.3359-.75-.75s.3359-.75.75-.75h9c.4141,0,.75.3359.75.75s-.3359.75-.75.75Z" fill="#fff"/><path d="M40,32.75h-17c-.4141,0-.75-.3359-.75-.75s.3359-.75.75-.75h17c.4141,0,.75.3359.75.75s-.3359.75-.75.75Z" fill="#fff"/><path d="M54,49.75h-18c-.4141,0-.75-.3359-.75-.75s.3359-.75.75-.75h18c.4141,0,.75.3359.75.75s-.3359.75-.75.75Z" fill="#fff"/><path d="M31,49.75h-8c-.4141,0-.75-.3359-.75-.75s.3359-.75.75-.75h8c.4141,0,.75.3359.75.75s-.3359.75-.75.75Z" fill="#fff"/><path d="M44,53.75h-21c-.4141,0-.75-.3359-.75-.75s.3359-.75.75-.75h21c.4141,0,.75.3359.75.75s-.3359.75-.75.75Z" fill="#fff"/><path d="M7.7432,13.6284h0c-.1993,0-.3897-.0791-.5303-.2197l-3.2432-3.2437c-.2929-.2929-.2929-.7675,0-1.0605.293-.293.7676-.293,1.0606,0l2.7129,2.7134,5.2265-5.2266c.293-.293.7676-.293,1.0606,0,.2929.293.2929.7676,0,1.0606l-5.7569,5.7568c-.1406.1406-.331.2197-.5302.2197Z" fill="#fff"/><path d="M7.7432,34.6284h0c-.1993,0-.3897-.0791-.5303-.2197l-3.2432-3.2437c-.2929-.2929-.2929-.7675,0-1.0605.293-.293.7676-.293,1.0606,0l2.7129,2.7134,5.2265-5.2266c.293-.293.7676-.293,1.0606,0,.2929.293.2929.7676,0,1.0606l-5.7569,5.7568c-.1406.1406-.331.2197-.5302.2197Z" fill="#fff"/></g></svg>