<?xml version="1.0" encoding="UTF-8"?><svg id="uuid-90911c10-0a25-4eac-a9d7-830cb185d9a9" xmlns="http://www.w3.org/2000/svg" xmlns:xlink="http://www.w3.org/1999/xlink" viewBox="0 0 60 60"><defs><linearGradient id="uuid-45c7cef6-9785-469c-8a91-2ceaa60785d8" x1="8.6055" y1="41.8513" x2="24.1743" y2="26.2825" gradientUnits="userSpaceOnUse"><stop offset="0" stop-color="#a62b9f"/><stop offset="1" stop-color="#59c8fa"/></linearGradient></defs><g id="uuid-ef916f7b-bcc6-4891-b192-a243a3703989"><circle cx="30" cy="30" r="30" fill="#203b72"/><rect x="10.7666" y="23.4453" width="11.2466" height="21.2432" rx="1.1543" ry="1.1543" fill="url(#uuid-45c7cef6-9785-469c-8a91-2ceaa60785d8)"/><path d="M46.4214,33.4424c1.5532,0,2.812-1.2588,2.812-2.8115s-1.2588-2.8116-2.812-2.8116h-.8228c1.5528,0,2.8116-1.2588,2.8116-2.8115s-1.2588-2.8115-2.8116-2.8115h-11.0898l.6846-3.1143c.4462-2.0293.2309-4.1465-.6138-6.0439h0c-.8032-1.8037-2.5923-2.9649-4.5659-2.9649h-1.753v4.3692c0,2.6045-.8134,5.1435-2.3276,7.2637l-3.9199,5.4882v14.9952l2.0957,1.0478c1.9087.9541,4.0132,1.4512,6.147,1.4512h14.0932c1.5528,0,2.8115-1.2588,2.8115-2.8115s-1.2587-2.8116-2.8115-2.8116h1.2495c1.5528,0,2.8116-1.2588,2.8116-2.8115s-1.2588-2.8115-2.8116-2.8115h.8228Z" fill="#fff"/><circle cx="16.3896" cy="39.0654" r="1.5" fill="#203b72"/></g></svg>