<?xml version="1.0" encoding="UTF-8"?><svg id="uuid-4f415341-f530-44fc-aacd-94a6de04ca55" xmlns="http://www.w3.org/2000/svg" xmlns:xlink="http://www.w3.org/1999/xlink" viewBox="0 0 59.9997 59.9997"><defs><linearGradient id="uuid-378ad7fd-bcc2-4b03-95e5-02356f9008b5" x1="9.8926" y1="38.7041" x2="37.7207" y2="10.876" gradientUnits="userSpaceOnUse"><stop offset="0" stop-color="#a62b9f"/><stop offset="1" stop-color="#59c8fa"/></linearGradient><linearGradient id="uuid-1945a5e8-c397-4b2e-b4a3-ab9ab1376da8" x1="40.8164" y1="18.7813" x2="46.6782" y2="12.9194" xlink:href="#uuid-378ad7fd-bcc2-4b03-95e5-02356f9008b5"/><linearGradient id="uuid-f591d826-a694-4bad-94b6-1558ee9a5d7d" x1="24.271" y1="35.3258" x2="31.3422" y2="28.2546" xlink:href="#uuid-378ad7fd-bcc2-4b03-95e5-02356f9008b5"/><linearGradient id="uuid-c04462dd-fc9b-44b3-90f1-77e8bb2d0198" x1="13.271" y1="24.3258" x2="20.3422" y2="17.2546" xlink:href="#uuid-378ad7fd-bcc2-4b03-95e5-02356f9008b5"/></defs><g id="uuid-253aaf4b-839f-433f-87cc-076c9bb456b5"><path d="M58.4111,50.7754l-12.6298-12.584c-1.9766,3.0274-4.5665,5.6162-7.5938,7.5928l12.5537,12.6328c2.1182,2.1103,5.5518,2.1103,7.6699,0,2.1182-2.1104,2.1182-5.5313,0-7.6416Z" fill="#203b72"/><circle cx="24" cy="24" r="19" fill="#fff"/><path d="M24,0v6c9.9414,0,18,8.0586,18,18s-8.0586,18-18,18v6c13.2549,0,24-10.7451,24-24S37.2549,0,24,0Z" fill="#203b72"/><path d="M27.8066,33.79c-.5117,0-1.0234-.1953-1.414-.5859l-9.586-9.5859-9.5859,9.5859c-.7812.7813-2.0469.7813-2.8281,0-.7813-.7812-.7813-2.0469,0-2.8281l11-11c.7812-.7813,2.0469-.7813,2.8281,0l9.5859,9.5859,12.586-12.5859c.7812-.7813,2.0469-.7813,2.8281,0,.7813.7812.7813,2.0469,0,2.8281l-14,14c-.3906.3906-.9023.5859-1.4141.5859Z" fill="url(#uuid-378ad7fd-bcc2-4b03-95e5-02356f9008b5)"/><polygon points="44.2012 22.166 46.6777 12.9189 37.4316 15.3965 44.2012 22.166" fill="url(#uuid-1945a5e8-c397-4b2e-b4a3-ab9ab1376da8)"/><circle cx="27.8066" cy="31.79" r="5" fill="url(#uuid-f591d826-a694-4bad-94b6-1558ee9a5d7d)"/><circle cx="27.8066" cy="31.79" r="2" fill="#fff"/><circle cx="16.8066" cy="20.79" r="5" fill="url(#uuid-c04462dd-fc9b-44b3-90f1-77e8bb2d0198)"/><circle cx="16.8066" cy="20.79" r="2" fill="#fff"/><path d="M6,24C6,14.0586,14.0586,6,24,6V0C10.7451,0,0,10.7451,0,24s10.7451,24,24,24v-6c-9.9414,0-18-8.0586-18-18Z" fill="#203b72"/></g></svg>